<?xml version="1.0" encoding="utf-8"?>
<!-- Generator: Adobe Illustrator 24.0.1, SVG Export Plug-In . SVG Version: 6.00 Build 0)  -->
<svg version="1.1" xmlns="http://www.w3.org/2000/svg" xmlns:xlink="http://www.w3.org/1999/xlink" x="0px" y="0px"
	 viewBox="0 0 500 500" style="enable-background:new 0 0 500 500;" xml:space="preserve">
<style type="text/css">
	.st0{display:none;fill:#E1E1FC;}
	.st1{opacity:0.68;fill:#F0F0FC;}
	.st2{fill:#F0F0FC;}
	.st3{fill:#040962;}
	.st4{fill:#FFFFFF;}
	.st5{fill:#3C4AA0;}
	.st6{fill:#111A75;}
	.st7{fill:#B4B0FA;}
	.st8{fill:#101A77;}
	.st9{fill:#FCE8D4;}
	.st10{fill:#FE5A75;}
	.st11{fill:#00BDFF;}
	.st12{fill:#00AEF9;}
	.st13{fill:#FFCB9C;}
	.st14{fill:#FF8DA3;}
	.st15{fill:#FCBFAC;}
	.st16{fill:#F9FBFC;}
	.st17{fill:#6161C9;}
	.st18{fill:#7F7FDD;}
	.st19{opacity:0.28;fill:#6161C9;}
	.st20{fill:#553F77;}
	.st21{fill:#5A91FF;}
	.st22{fill:#362656;}
	.st23{fill:#7859B5;}
	.st24{fill:#735F99;}
	.st25{fill:#FF6498;}
	.st26{fill:#FFEE4D;}
	.st27{fill:#A4A4F4;}
	.st28{display:none;}
	.st29{display:inline;}
	.st30{fill:#1D262D;}
</style>
<g id="background">
	<rect class="st0" width="500" height="500"/>
	<g>
		<path class="st1" d="M393.95,391.54h-287.9c-12.79,0-23.16-10.37-23.16-23.16V121.33c0-12.79,10.37-23.16,23.16-23.16h287.9
			c12.79,0,23.16,10.37,23.16,23.16v247.05C417.11,381.17,406.74,391.54,393.95,391.54z"/>
		<circle class="st2" cx="391.6" cy="85.73" r="5.24"/>
		<circle class="st2" cx="377.55" cy="85.73" r="5.24"/>
		<circle class="st2" cx="363.51" cy="85.73" r="5.24"/>
		<path class="st2" d="M67.95,256.59c0-2.89,2.34-5.24,5.24-5.24c2.89,0,5.24,2.34,5.24,5.24c0,2.89-2.34,5.24-5.24,5.24
			C70.3,261.82,67.95,259.48,67.95,256.59z"/>
		<path class="st2" d="M67.95,270.91c0-2.89,2.34-5.24,5.24-5.24c2.89,0,5.24,2.34,5.24,5.24s-2.34,5.24-5.24,5.24
			C70.3,276.15,67.95,273.8,67.95,270.91z"/>
		<path class="st2" d="M67.95,285.24c0-2.89,2.34-5.24,5.24-5.24c2.89,0,5.24,2.34,5.24,5.24c0,2.89-2.34,5.24-5.24,5.24
			C70.3,290.47,67.95,288.13,67.95,285.24z"/>
	</g>
</g>
<g id="objects">
	<g>
		<g>
			<g>
				<g>
					<ellipse class="st3" cx="268.14" cy="416.52" rx="6.8" ry="8.43"/>
					<ellipse class="st3" cx="339.22" cy="416.52" rx="6.8" ry="8.43"/>
				</g>
				<path class="st4" d="M340.04,398.27h-20.29c-5.65,0-10.22-4.58-10.22-10.22v-80.49h-13.05v80.49c0,5.65-4.58,10.22-10.22,10.22
					h-18.93h-1.99c-3.07,0-5.56,2.49-5.56,5.56V405v9.97c0,0.69,0.56,1.24,1.24,1.24h5.06c0.69,0,1.24-0.56,1.24-1.24v-4.41
					c0-3.07,2.49-5.56,5.56-5.56h61.6c3.07,0,5.56,2.49,5.56,5.56v4.41c0,0.69,0.56,1.24,1.24,1.24h5.06c0.69,0,1.24-0.56,1.24-1.24
					V405v-1.17c0-3.07-2.49-5.56-5.56-5.56H340.04z"/>
				<path class="st5" d="M310.44,316.82h-15.91c-1.07,0-1.93-0.86-1.93-1.93v-5.11c0-1.07,0.86-1.93,1.93-1.93h15.91
					c1.07,0,1.93,0.86,1.93,1.93v5.11C312.37,315.95,311.51,316.82,310.44,316.82z"/>
			</g>
			<g>
				<path class="st6" d="M367.92,298.2v8.2c0,2.04-1.65,3.69-3.69,3.69H251.04l0.11-11.89H367.92z"/>
				<path class="st6" d="M393.34,160.48L367.92,298.2h-30.05c0,0,8.51-2.92,9.71-22.26c0.61-9.77-0.65-23.73-5.81-43.62h1.49
					c5.78,0,10.47-4.69,10.47-10.47V148.9c0-1.13-0.14-2.21-0.39-3.26h27.64C388.84,145.64,394.76,152.76,393.34,160.48z"/>
				<path class="st7" d="M381.62,160.48L356.2,298.2h-18.33c0,0,8.51-2.92,9.71-22.26c0.61-9.77-0.65-23.73-5.81-43.62h1.49
					c5.78,0,10.47-4.69,10.47-10.47V148.9c0-1.13-0.14-2.21-0.39-3.26h15.92C377.12,145.64,383.04,152.76,381.62,160.48z"/>
			</g>
		</g>
		<g>
			<path class="st3" d="M341.83,135.32L341.83,135.32c0,0-7.12-24.1-7.12-50.05c0-25.96-10.09-34.81-21.01-34.81h-23.2
				c-12.71,0-23.19,9.91-23.94,22.6c-0.62,10.61-1.57,22.33-2.92,28.9c-2.88,14.01-8.84,41-14,55.21
				c-5.16,14.21-1.04,26.36,11.53,26.57c0,0-1.03,25.75,33.16,18.75c32.43-6.64,54.29-16.42,50.85-55.54
				C344.83,142.89,343.7,138.93,341.83,135.32z"/>
			<path class="st8" d="M278.31,79.72c-2.11,0-4.24-0.35-5.85-1.42c-1.6-1.06-2.5-2.69-2.68-4.84c-0.81-9.71,7.11-15.84,7.45-16.09
				c0.22-0.17,0.53-0.12,0.7,0.1c0.17,0.22,0.12,0.53-0.1,0.7c-0.08,0.06-7.82,6.06-7.06,15.21c0.16,1.86,0.89,3.2,2.24,4.09
				c4.32,2.85,13.29-0.07,13.38-0.1c0.26-0.09,0.55,0.06,0.63,0.32c0.09,0.26-0.06,0.54-0.32,0.63
				C286.46,78.4,282.4,79.72,278.31,79.72z"/>
			<path class="st8" d="M311.9,76.5c-0.27,0-0.49-0.21-0.5-0.48c0-0.1-0.33-9.63-1.19-12.81c-0.07-0.27,0.08-0.54,0.35-0.61
				c0.27-0.07,0.54,0.09,0.61,0.35c0.89,3.29,1.21,12.64,1.22,13.04c0.01,0.28-0.21,0.51-0.48,0.52
				C311.91,76.5,311.9,76.5,311.9,76.5z"/>
			<path class="st9" d="M350.67,140.28c-40.72,21.51-71.05,13.14-81.53,8.95c1.29-1.07,2.66-2.06,4.11-2.93
				c5.8-3.47,13.81-8.32,18.64-11.48c3.79-2.48,5.11-6.61,5.43-10.35c0.37-4.35-0.62-8.16-0.62-8.16h-3.39
				c-9.91,0-17.94-8.03-17.94-17.94V76h36.53l4.97,43.99c0.98,8.67,8.31,15.21,17.03,15.21h6.13
				C344.33,135.2,348.16,137.18,350.67,140.28z"/>
			<path class="st10" d="M310.78,258.67c6.98,3.6,18.56,19.48,36.79,17.27c0.61-9.77-0.65-23.72-5.81-43.62h1.49
				c5.78,0,10.47-4.69,10.47-10.47V148.9c0-3.27-1.15-6.27-3.06-8.62c-40.72,21.52-71.05,13.15-81.52,8.96
				c-2.84,2.36-5.28,5.19-7.18,8.39l-25.15,42.28c-1.56,2.61-4.37,4.21-7.41,4.21h-2.46v23.7h6.72c3.82,0,7.46-1.67,9.95-4.56
				l28.26-32.83c0,0,6.95,23.84-1.35,61.9l0,0.01C270.52,252.33,302.73,254.52,310.78,258.67z"/>
			<path class="st9" d="M238.32,413.13c0,0-1.8,2.19-4.92,4.87c2.15,1.21,4.57,3.12,6.38,6.11c0,0,5.73-5.89,13.6-6.35
				c-0.89-2.47-1.97-4.82-3.22-6.61l0.17-19.01h-14.93L238.32,413.13z"/>
			<path class="st4" d="M239.78,424.11c-1.81-2.98-4.23-4.9-6.38-6.11c-4.31,3.72-11.15,8.39-19.23,9.53c0,0-4.21-0.34-6.13,2.51
				c-0.65,0.97,0,2.29,1.15,2.49c5.5,0.92,22.1,3.06,44.71-0.01c1.41-0.2,2.43-1.45,2.3-2.86c-0.24-2.67-1.23-7.48-2.83-11.9
				C245.51,418.22,239.78,424.11,239.78,424.11z"/>
			<path class="st11" d="M219.53,280.87c-11.47,3.17-4.39,38.55-4.39,38.55l0,0.01c0.07,0.57,5.36,41.98,3.66,45.13
				c-1.7,3.17-4.39,10.25,3.66,15.62c0,0-3.66,13.42,9.28,11.95h3.66l0,0h14.93l0.83-93.94h23.14
				C260.08,291.86,228.34,278.44,219.53,280.87z"/>
			<path class="st12" d="M310.78,258.67c-8.05-4.15-40.26-6.34-40.26-6.34l0-0.01c0,0,0,0,0,0.01c0,0-37.57-8.3-46.11,0
				c-8.54,8.29-42.95,46.85-45.88,57.58c-1.89,6.93,0,11.47,0,11.47s-6.61,2.62-8.54,6.59c-4.14,8.52,4.11,15.1,4.15,15.13l0,0
				c0,0,5.01,1.04,11.69,9.22l29.3-32.89c0,0,0,0.01,0,0.01l0-0.01c0,0-7.08-35.38,4.39-38.55c8.82-2.44,40.56,10.98,54.77,17.32
				h63.58c0,0,8.51-2.92,9.71-22.26C329.35,278.15,317.77,262.27,310.78,258.67z"/>
			<path class="st9" d="M174.14,343.1L174.14,343.1L174.14,343.1l-11.22,20.25c0,0-2.33-0.58-5.79-1.58
				c1.29,2.65,2.53,6.05,1.88,8.41c0,0,5-0.64,10.28,3.31c0.63-1.41,1.27-2.98,1.92-4.78l14.62-16.4
				C179.15,344.14,174.14,343.1,174.14,343.1z"/>
			<path class="st4" d="M159.01,370.18c0.65-2.36-0.59-5.76-1.88-8.41c-6.95-2-18.48-5.66-24.94-9.63
				c-0.87-0.54-1.99-0.37-2.64,0.43c-0.31,0.37-0.46,0.82-0.46,1.28c0,0.45,0.15,0.9,0.45,1.27c3.82,4.67,17.52,20.84,29.3,27.12
				c2.17,1.16,4.88,0.61,6.33-1.38c1.17-1.6,2.61-3.97,4.12-7.36C164.01,369.54,159.01,370.18,159.01,370.18z"/>
			<path class="st13" d="M307.09,116.31c0,0-4.94,8.21-9.77,8.16c0.37-4.35-0.62-8.16-0.62-8.16H307.09z"/>
			<g>
				<path class="st14" d="M271.87,190.92c-0.21,0-0.4-0.13-0.47-0.34c-0.06-0.16-5.47-16.33,3.57-31.48
					c0.14-0.24,0.45-0.31,0.69-0.17c0.24,0.14,0.32,0.45,0.17,0.69c-8.8,14.74-3.54,30.48-3.49,30.64c0.09,0.26-0.05,0.55-0.31,0.64
					C271.98,190.91,271.93,190.92,271.87,190.92z"/>
				<path class="st14" d="M283.45,218.18c-0.25,0-0.46-0.18-0.49-0.43c-0.04-0.27,0.15-0.53,0.43-0.56l52.25-7.26l-3.14-52.73
					c-0.02-0.28,0.19-0.51,0.47-0.53c0.27-0.02,0.51,0.19,0.53,0.47l3.17,53.19c0.02,0.26-0.17,0.49-0.43,0.52l-52.71,7.32
					C283.5,218.18,283.48,218.18,283.45,218.18z"/>
				<path class="st14" d="M283.46,232.68c-0.17,0-0.33-0.09-0.42-0.23l-1.11-1.77c-0.15-0.23-0.08-0.54,0.16-0.69
					c0.23-0.15,0.54-0.08,0.69,0.16l0.96,1.53l56.75-0.15h0c0.28,0,0.5,0.22,0.5,0.5c0,0.28-0.22,0.5-0.5,0.5L283.46,232.68
					L283.46,232.68z"/>
			</g>
			<path class="st4" d="M290.97,100.65c0,0-4.51-1.95-5.22-0.8c-0.71,1.15,2.21,2.56,6.1,2.56s6.9-2.39,6.1-3.71
				C297.16,97.38,290.97,100.65,290.97,100.65z"/>
			<path class="st13" d="M292.2,105.73c-1.53,0-2.62-0.53-2.68-0.57c-0.25-0.12-0.35-0.42-0.22-0.67c0.12-0.25,0.42-0.35,0.67-0.23
				c0.02,0.01,2.13,1.03,4.44-0.01c0.25-0.11,0.55,0,0.66,0.25c0.11,0.25,0,0.55-0.25,0.66
				C293.87,105.59,292.98,105.73,292.2,105.73z"/>
			<path class="st13" d="M290.22,96.6c-0.99,0-1.77-0.43-2.16-0.8c-0.1-0.09-0.16-0.23-0.16-0.36V83.06c0-2.5-2.36-3.14-2.38-3.14
				c-0.27-0.07-0.43-0.34-0.36-0.61c0.07-0.27,0.34-0.43,0.61-0.36c1.08,0.28,3.13,1.49,3.13,4.11v12.14
				c0.4,0.27,1.52,0.84,2.97-0.17c0.23-0.16,0.54-0.1,0.7,0.13c0.16,0.23,0.1,0.54-0.13,0.7C291.66,96.4,290.89,96.6,290.22,96.6z"
				/>
			<g>
				<path class="st3" d="M297.45,84.86c-1.17,0-2.11,0.95-2.11,2.11c0,1.17,0.95,2.11,2.11,2.11c1.17,0,2.11-0.95,2.11-2.11
					C299.57,85.8,298.62,84.86,297.45,84.86z"/>
				<path class="st3" d="M281.34,84.86c-1.17,0-2.11,0.95-2.11,2.11c0,1.17,0.95,2.11,2.11,2.11c1.17,0,2.11-0.95,2.11-2.11
					C283.46,85.8,282.51,84.86,281.34,84.86z"/>
			</g>
			<circle class="st15" cx="303.67" cy="92" r="3.41"/>
			<path class="st15" d="M281.35,92c0,1.89-1.53,3.41-3.42,3.41c-1.02,0-1.94-0.45-2.56-1.16v-4.51c0.62-0.71,1.54-1.16,2.56-1.16
				C279.82,88.58,281.35,90.11,281.35,92z"/>
			<path class="st3" d="M302.74,80.46c-0.05,0-0.09-0.01-0.14-0.02c-5.98-1.74-8.29-0.1-8.31-0.08c-0.22,0.16-0.53,0.12-0.7-0.1
				c-0.17-0.22-0.13-0.53,0.09-0.7c0.11-0.08,2.67-1.99,9.2-0.09c0.27,0.08,0.42,0.35,0.34,0.62
				C303.15,80.32,302.95,80.46,302.74,80.46z"/>
			<path class="st3" d="M277.09,80.46c-0.18,0-0.36-0.1-0.45-0.28c-0.12-0.25-0.02-0.55,0.22-0.67c3.33-1.66,7.11-0.49,7.27-0.44
				c0.26,0.08,0.41,0.36,0.33,0.63s-0.36,0.41-0.63,0.33c-0.04-0.01-3.57-1.09-6.52,0.38C277.24,80.44,277.17,80.46,277.09,80.46z"
				/>
			<path class="st4" d="M323.76,59.19l-16.33-9.35c-1.61-2.68-4.53-4.48-7.88-4.48c-3.06,0-5.77,1.51-7.44,3.82
				c-4.25-1.98-6.84-0.8-7.82-0.14c-1.68-2.23-4.34-3.68-7.34-3.68c-5.07,0-9.19,4.12-9.19,9.19s4.12,9.19,9.19,9.19
				s9.19-4.12,9.19-9.19c0-1.71-0.48-3.31-1.3-4.69c0.76-0.52,2.95-1.55,6.72,0.16c-0.76,1.34-1.2,2.88-1.2,4.53
				c0,5.07,4.13,9.19,9.19,9.19c5.07,0,9.19-4.12,9.19-9.19c0-1.1-0.2-2.15-0.56-3.13l15.08,8.63c0.08,0.04,0.16,0.07,0.25,0.07
				c0.17,0,0.34-0.09,0.43-0.25C324.09,59.63,324.01,59.32,323.76,59.19z M276.96,62.75c-4.52,0-8.19-3.68-8.19-8.19
				s3.68-8.19,8.19-8.19c4.52,0,8.19,3.68,8.19,8.19S281.48,62.75,276.96,62.75z M299.56,62.75c-4.52,0-8.19-3.68-8.19-8.19
				s3.68-8.19,8.19-8.19c4.52,0,8.19,3.68,8.19,8.19S304.08,62.75,299.56,62.75z"/>
		</g>
		<path class="st16" d="M391.7,217.39c-0.01,0-0.03,0-0.04,0v-3.53c0-0.46-0.38-0.84-0.84-0.84h-17.08c-0.46,0-0.84,0.38-0.84,0.84
			v20.89c0,0.46,0.38,0.84,0.84,0.84h17.08c0.46,0,0.84-0.38,0.84-0.84v-4.37c0.01,0,0.03,0,0.04,0c2.99,0,5.43-2.91,5.43-6.5
			C397.12,220.31,394.69,217.39,391.7,217.39z M391.7,228.39c-0.01,0-0.03-0.01-0.04-0.01v-8.98c0.01,0,0.03-0.01,0.04-0.01
			c1.89,0,3.43,2.02,3.43,4.5C395.12,226.37,393.59,228.39,391.7,228.39z"/>
		<g>
			<polygon class="st3" points="379.04,248.64 372.62,248.64 311.78,428.07 318.12,428.07 375.83,257.85 433.54,428.07 
				439.88,428.07 			"/>
			<polygon class="st3" points="120.96,248.64 60.12,428.07 66.46,428.07 124.17,257.85 181.88,428.07 188.22,428.07 127.38,248.64 
							"/>
		</g>
		<g>
			<g>
				<polygon class="st17" points="142.87,187.98 137.13,211.43 131.86,233 101,233 113.17,197.74 116.54,187.98 				"/>
				<polygon class="st4" points="144.82,187.98 138.85,212.41 133.81,233 102.95,233 114.81,198.67 118.5,187.98 				"/>
				<path class="st18" d="M141.25,230.42H90.92c-0.96,0-1.73,0.78-1.73,1.73v1.71c0,0.96,0.78,1.73,1.73,1.73h50.34
					c0.96,0,1.73-0.78,1.73-1.73v-1.71C142.98,231.19,142.21,230.42,141.25,230.42z"/>
				<polygon class="st19" points="144.82,187.98 138.85,212.41 137.13,211.43 114.81,198.67 113.17,197.74 116.54,187.98 				"/>
			</g>
			<g>
				<path class="st18" d="M195.45,194.78H83.15c-1.62,0-3.19-1.32-3.5-2.94l-13.74-72.13c-0.15-0.78,0.02-1.53,0.47-2.08l0.38-0.47
					c0.45-0.55,1.14-0.86,1.92-0.86h112.3c1.62,0,3.19,1.32,3.5,2.94l13.74,72.13c0.15,0.78-0.02,1.53-0.47,2.08l-0.38,0.47
					C196.91,194.47,196.23,194.78,195.45,194.78z"/>
				<path class="st4" d="M195.5,192.6H84.92c-1.62,0-3.19-1.32-3.5-2.94l-13.41-70.41c-0.31-1.62,0.76-2.94,2.38-2.94h110.57
					c1.62,0,3.19,1.32,3.5,2.94l13.41,70.41C198.19,191.28,197.12,192.6,195.5,192.6z"/>
				<path class="st20" d="M193.93,190.02H85.51c-0.58,0-1.13-0.47-1.24-1.05l-13.15-69.05c-0.11-0.58,0.27-1.05,0.85-1.05h108.42
					c0.58,0,1.13,0.47,1.24,1.05l13.15,69.05C194.88,189.55,194.5,190.02,193.93,190.02z"/>
				<g>
					<g>
						<path class="st21" d="M76,126.13h1.65c0.46,0,0.76-0.37,0.67-0.83c-0.09-0.46-0.53-0.83-0.98-0.83h-1.65
							c-0.46,0-0.76,0.37-0.67,0.83C75.11,125.76,75.55,126.13,76,126.13z"/>
						<path class="st22" d="M92.51,126.13h16.51c0.46,0,0.76-0.37,0.67-0.83c-0.09-0.46-0.53-0.83-0.98-0.83H92.2
							c-0.46,0-0.76,0.37-0.67,0.83C91.62,125.76,92.06,126.13,92.51,126.13z"/>
						<path class="st23" d="M112.33,126.13h1.65c0.46,0,0.76-0.37,0.67-0.83c-0.09-0.46-0.53-0.83-0.98-0.83h-1.65
							c-0.46,0-0.76,0.37-0.67,0.83C111.43,125.76,111.87,126.13,112.33,126.13z"/>
						<path class="st23" d="M128.84,126.13h5.42c0.46,0,0.76-0.37,0.67-0.83c-0.09-0.46-0.53-0.83-0.98-0.83h-5.42
							c-0.46,0-0.76,0.37-0.67,0.83C127.94,125.76,128.38,126.13,128.84,126.13z"/>
						<path class="st24" d="M117.28,126.13h8.26c0.46,0,0.76-0.37,0.67-0.83c-0.09-0.46-0.53-0.83-0.98-0.83h-8.26
							c-0.46,0-0.76,0.37-0.67,0.83C116.39,125.76,116.83,126.13,117.28,126.13z"/>
						<path class="st24" d="M80.96,126.13h8.26c0.46,0,0.76-0.37,0.67-0.83c-0.09-0.46-0.53-0.83-0.98-0.83h-8.26
							c-0.46,0-0.76,0.37-0.67,0.83C80.06,125.76,80.5,126.13,80.96,126.13z"/>
						<path class="st24" d="M101.55,130.24c-0.09-0.46-0.53-0.83-0.98-0.83H82.41c-0.46,0-0.76,0.37-0.67,0.83
							c0.09,0.46,0.53,0.83,0.98,0.83h18.16C101.34,131.06,101.64,130.69,101.55,130.24z"/>
						<path class="st25" d="M79.11,129.41h-2.48c-0.46,0-0.76,0.37-0.67,0.83c0.09,0.46,0.53,0.83,0.98,0.83h2.48
							c0.46,0,0.76-0.37,0.67-0.83C80,129.78,79.56,129.41,79.11,129.41z"/>
						<path class="st24" d="M120.38,129.41h-16.51c-0.46,0-0.76,0.37-0.67,0.83c0.09,0.46,0.53,0.83,0.98,0.83h16.51
							c0.46,0,0.76-0.37,0.67-0.83C121.28,129.78,120.84,129.41,120.38,129.41z"/>
						<path class="st23" d="M126.48,131.06c0.46,0,0.76-0.37,0.67-0.83c-0.09-0.46-0.53-0.83-0.98-0.83h-2.48
							c-0.46,0-0.76,0.37-0.67,0.83c0.09,0.46,0.53,0.83,0.98,0.83H126.48z"/>
						<path class="st24" d="M134.88,129.41h-5.42c-0.46,0-0.76,0.37-0.67,0.83c0.09,0.46,0.53,0.83,0.98,0.83h5.42
							c0.46,0,0.76-0.37,0.67-0.83C135.78,129.78,135.34,129.41,134.88,129.41z"/>
						<path class="st23" d="M115.86,136c0.46,0,0.76-0.37,0.67-0.83c-0.09-0.46-0.53-0.83-0.98-0.83h-1.65
							c-0.46,0-0.76,0.37-0.67,0.83c0.09,0.46,0.53,0.83,0.98,0.83H115.86z"/>
						<path class="st26" d="M77.88,136h1.65c0.46,0,0.76-0.37,0.67-0.83c-0.09-0.46-0.53-0.83-0.98-0.83h-1.65
							c-0.46,0-0.76,0.37-0.67,0.83C76.99,135.63,77.43,136,77.88,136z"/>
						<path class="st21" d="M118.18,135.17c0.09,0.46,0.53,0.83,0.98,0.83h8.26c0.46,0,0.76-0.37,0.67-0.83
							c-0.09-0.46-0.53-0.83-0.98-0.83h-8.26C118.39,134.35,118.09,134.72,118.18,135.17z"/>
						<path class="st21" d="M82.84,136h8.26c0.46,0,0.76-0.37,0.67-0.83c-0.09-0.46-0.53-0.83-0.98-0.83h-8.26
							c-0.46,0-0.76,0.37-0.67,0.83C81.94,135.63,82.38,136,82.84,136z"/>
						<path class="st21" d="M135.82,134.35h-5.42c-0.46,0-0.76,0.37-0.67,0.83c0.09,0.46,0.53,0.83,0.98,0.83h5.42
							c0.46,0,0.76-0.37,0.67-0.83C136.72,134.72,136.28,134.35,135.82,134.35z"/>
						<path class="st23" d="M94.4,136h16.51c0.46,0,0.76-0.37,0.67-0.83c-0.09-0.46-0.53-0.83-0.98-0.83H94.08
							c-0.46,0-0.76,0.37-0.67,0.83C93.5,135.63,93.94,136,94.4,136z"/>
						<path class="st24" d="M136.76,139.28h-5.42c-0.46,0-0.76,0.37-0.67,0.83c0.09,0.46,0.53,0.83,0.98,0.83h5.42
							c0.46,0,0.76-0.37,0.67-0.83C137.66,139.65,137.22,139.28,136.76,139.28z"/>
						<path class="st22" d="M128.04,139.28h-2.48c-0.46,0-0.76,0.37-0.67,0.83c0.09,0.46,0.53,0.83,0.98,0.83h2.48
							c0.46,0,0.76-0.37,0.67-0.83C128.94,139.65,128.5,139.28,128.04,139.28z"/>
						<path class="st24" d="M123.25,140.11c-0.09-0.46-0.53-0.83-0.98-0.83h-16.51c-0.46,0-0.76,0.37-0.67,0.83
							c0.09,0.46,0.53,0.83,0.98,0.83h16.51C123.03,140.94,123.33,140.57,123.25,140.11z"/>
						<path class="st24" d="M83.62,140.11c0.09,0.46,0.53,0.83,0.98,0.83h18.16c0.46,0,0.76-0.37,0.67-0.83
							c-0.09-0.46-0.53-0.83-0.98-0.83H84.29C83.83,139.28,83.53,139.65,83.62,140.11z"/>
						<path class="st21" d="M80.99,139.28h-2.48c-0.46,0-0.76,0.37-0.67,0.83c0.09,0.46,0.53,0.83,0.98,0.83h2.48
							c0.46,0,0.76-0.37,0.67-0.83C81.88,139.65,81.44,139.28,80.99,139.28z"/>
						<path class="st21" d="M137.7,144.22h-2.11c-0.46,0-0.76,0.37-0.67,0.83c0.09,0.46,0.53,0.83,0.98,0.83h2.11
							c0.46,0,0.76-0.37,0.67-0.83C138.6,144.59,138.16,144.22,137.7,144.22z"/>
						<path class="st21" d="M120.06,145.05c-0.09-0.46-0.53-0.83-0.98-0.83h-1.65c-0.46,0-0.76,0.37-0.67,0.83
							c0.09,0.46,0.53,0.83,0.98,0.83h1.65C119.85,145.87,120.15,145.5,120.06,145.05z"/>
						<path class="st24" d="M114.12,144.22H97.61c-0.46,0-0.76,0.37-0.67,0.83c0.09,0.46,0.53,0.83,0.98,0.83h16.51
							c0.46,0,0.76-0.37,0.67-0.83C115.02,144.59,114.58,144.22,114.12,144.22z"/>
						<path class="st24" d="M133.27,145.05c-0.09-0.46-0.53-0.83-0.98-0.83h-9.91c-0.46,0-0.76,0.37-0.67,0.83
							c0.09,0.46,0.53,0.83,0.98,0.83h9.91C133.06,145.87,133.36,145.5,133.27,145.05z"/>
						<path class="st23" d="M84.72,145.87h9.91c0.46,0,0.76-0.37,0.67-0.83c-0.09-0.46-0.53-0.83-0.98-0.83H84.4
							c-0.46,0-0.76,0.37-0.67,0.83C83.82,145.5,84.26,145.87,84.72,145.87z"/>
						<path class="st25" d="M79.77,145.87h1.65c0.46,0,0.76-0.37,0.67-0.83c-0.09-0.46-0.53-0.83-0.98-0.83h-1.65
							c-0.46,0-0.76,0.37-0.67,0.83C78.87,145.5,79.31,145.87,79.77,145.87z"/>
						<path class="st26" d="M80.71,150.81h1.65c0.46,0,0.76-0.37,0.67-0.83c-0.09-0.46-0.53-0.83-0.98-0.83h-1.65
							c-0.46,0-0.76,0.37-0.67,0.83C79.81,150.44,80.25,150.81,80.71,150.81z"/>
						<path class="st22" d="M85.66,150.81h8.26c0.46,0,0.76-0.37,0.67-0.83c-0.09-0.46-0.53-0.83-0.98-0.83h-8.26
							c-0.46,0-0.76,0.37-0.67,0.83C84.76,150.44,85.2,150.81,85.66,150.81z"/>
						<path class="st24" d="M129.92,149.16h-8.26c-0.46,0-0.76,0.37-0.67,0.83c0.09,0.46,0.53,0.83,0.98,0.83h8.26
							c0.46,0,0.76-0.37,0.67-0.83C130.82,149.53,130.38,149.16,129.92,149.16z"/>
						<path class="st24" d="M138.64,149.16h-5.42c-0.46,0-0.76,0.37-0.67,0.83c0.09,0.46,0.53,0.83,0.98,0.83h5.42
							c0.46,0,0.76-0.37,0.67-0.83C139.54,149.53,139.1,149.16,138.64,149.16z"/>
						<path class="st21" d="M117.03,150.81h1.65c0.46,0,0.76-0.37,0.67-0.83c-0.09-0.46-0.53-0.83-0.98-0.83h-1.65
							c-0.46,0-0.76,0.37-0.67,0.83C116.13,150.44,116.57,150.81,117.03,150.81z"/>
						<path class="st24" d="M97.22,150.81h16.51c0.46,0,0.76-0.37,0.67-0.83c-0.09-0.46-0.53-0.83-0.98-0.83H96.9
							c-0.46,0-0.76,0.37-0.67,0.83C96.32,150.44,96.76,150.81,97.22,150.81z"/>
						<path class="st24" d="M86.44,154.92c0.09,0.46,0.53,0.83,0.98,0.83h18.16c0.46,0,0.76-0.37,0.67-0.83
							c-0.09-0.46-0.53-0.83-0.98-0.83H87.11C86.65,154.09,86.36,154.46,86.44,154.92z"/>
						<path class="st25" d="M83.81,154.09h-2.48c-0.46,0-0.76,0.37-0.67,0.83c0.09,0.46,0.53,0.83,0.98,0.83h2.48
							c0.46,0,0.76-0.37,0.67-0.83C84.7,154.46,84.26,154.09,83.81,154.09z"/>
						<path class="st24" d="M126.07,154.92c-0.09-0.46-0.53-0.83-0.98-0.83h-16.51c-0.46,0-0.76,0.37-0.67,0.83
							c0.09,0.46,0.53,0.83,0.98,0.83h16.51C125.86,155.74,126.16,155.38,126.07,154.92z"/>
						<path class="st22" d="M131.18,155.74c0.46,0,0.76-0.37,0.67-0.83c-0.09-0.46-0.53-0.83-0.98-0.83h-2.48
							c-0.46,0-0.76,0.37-0.67,0.83c0.09,0.46,0.53,0.83,0.98,0.83H131.18z"/>
						<path class="st24" d="M139.58,154.09h-5.42c-0.46,0-0.76,0.37-0.67,0.83c0.09,0.46,0.53,0.83,0.98,0.83h5.42
							c0.46,0,0.76-0.37,0.67-0.83C140.48,154.46,140.04,154.09,139.58,154.09z"/>
						<path class="st23" d="M121.23,159.86c-0.09-0.46-0.53-0.83-0.98-0.83h-1.65c-0.46,0-0.76,0.37-0.67,0.83
							c0.09,0.46,0.53,0.83,0.98,0.83h1.65C121.02,160.68,121.32,160.31,121.23,159.86z"/>
						<path class="st22" d="M140.52,159.03h-5.42c-0.46,0-0.76,0.37-0.67,0.83c0.09,0.46,0.53,0.83,0.98,0.83h5.42
							c0.46,0,0.76-0.37,0.67-0.83C141.42,159.4,140.98,159.03,140.52,159.03z"/>
						<path class="st21" d="M99.1,160.68h16.51c0.46,0,0.76-0.37,0.67-0.83c-0.09-0.46-0.53-0.83-0.98-0.83H98.78
							c-0.46,0-0.76,0.37-0.67,0.83C98.2,160.31,98.64,160.68,99.1,160.68z"/>
						<path class="st24" d="M87.54,160.68h8.26c0.46,0,0.76-0.37,0.67-0.83c-0.09-0.46-0.53-0.83-0.98-0.83h-8.26
							c-0.46,0-0.76,0.37-0.67,0.83C86.64,160.31,87.08,160.68,87.54,160.68z"/>
						<path class="st26" d="M82.59,160.68h1.65c0.46,0,0.76-0.37,0.67-0.83c-0.09-0.46-0.53-0.83-0.98-0.83h-1.65
							c-0.46,0-0.76,0.37-0.67,0.83C81.69,160.31,82.13,160.68,82.59,160.68z"/>
						<path class="st23" d="M123.86,160.68h8.26c0.46,0,0.76-0.37,0.67-0.83c-0.09-0.46-0.53-0.83-0.98-0.83h-8.26
							c-0.46,0-0.76,0.37-0.67,0.83C122.97,160.31,123.41,160.68,123.86,160.68z"/>
						<path class="st23" d="M98.39,165.62c0.46,0,0.76-0.37,0.67-0.83c-0.09-0.46-0.53-0.83-0.98-0.83h-9.91
							c-0.46,0-0.76,0.37-0.67,0.83c0.09,0.46,0.53,0.83,0.98,0.83H98.39z"/>
						<path class="st23" d="M141.46,163.97h-2.11c-0.46,0-0.76,0.37-0.67,0.83c0.09,0.46,0.53,0.83,0.98,0.83h2.11
							c0.46,0,0.76-0.37,0.67-0.83C142.36,164.34,141.92,163.97,141.46,163.97z"/>
						<path class="st21" d="M121.5,165.62h1.65c0.46,0,0.76-0.37,0.67-0.83c-0.09-0.46-0.53-0.83-0.98-0.83h-1.65
							c-0.46,0-0.76,0.37-0.67,0.83C120.61,165.25,121.05,165.62,121.5,165.62z"/>
						<path class="st24" d="M101.69,165.62h16.51c0.46,0,0.76-0.37,0.67-0.83c-0.09-0.46-0.53-0.83-0.98-0.83h-16.51
							c-0.46,0-0.76,0.37-0.67,0.83C100.79,165.25,101.23,165.62,101.69,165.62z"/>
						<path class="st25" d="M83.53,165.62h1.65c0.46,0,0.76-0.37,0.67-0.83c-0.09-0.46-0.53-0.83-0.98-0.83h-1.65
							c-0.46,0-0.76,0.37-0.67,0.83C82.63,165.25,83.07,165.62,83.53,165.62z"/>
						<path class="st24" d="M126.46,165.62h9.91c0.46,0,0.76-0.37,0.67-0.83c-0.09-0.46-0.53-0.83-0.98-0.83h-9.91
							c-0.46,0-0.76,0.37-0.67,0.83C125.56,165.25,126,165.62,126.46,165.62z"/>
						<path class="st23" d="M142.4,168.9h-5.42c-0.46,0-0.76,0.37-0.67,0.83c0.09,0.46,0.53,0.83,0.98,0.83h5.42
							c0.46,0,0.76-0.37,0.67-0.83C143.3,169.27,142.86,168.9,142.4,168.9z"/>
						<path class="st21" d="M133.69,168.9h-2.48c-0.46,0-0.76,0.37-0.67,0.83c0.09,0.46,0.53,0.83,0.98,0.83H134
							c0.46,0,0.76-0.37,0.67-0.83C134.58,169.27,134.14,168.9,133.69,168.9z"/>
						<path class="st22" d="M108.09,168.9H89.93c-0.46,0-0.76,0.37-0.67,0.83c0.09,0.46,0.53,0.83,0.98,0.83h18.16
							c0.46,0,0.76-0.37,0.67-0.83C108.99,169.27,108.55,168.9,108.09,168.9z"/>
						<path class="st24" d="M127.91,168.9H111.4c-0.46,0-0.76,0.37-0.67,0.83c0.09,0.46,0.53,0.83,0.98,0.83h16.51
							c0.46,0,0.76-0.37,0.67-0.83C128.8,169.27,128.36,168.9,127.91,168.9z"/>
						<path class="st22" d="M148.96,126.13h16.51c0.46,0,0.76-0.37,0.67-0.83c-0.09-0.46-0.53-0.83-0.98-0.83h-16.51
							c-0.46,0-0.76,0.37-0.67,0.83C148.06,125.76,148.5,126.13,148.96,126.13z"/>
						<path class="st23" d="M168.77,126.13h1.65c0.46,0,0.76-0.37,0.67-0.83c-0.09-0.46-0.53-0.83-0.98-0.83h-1.65
							c-0.46,0-0.76,0.37-0.67,0.83C167.87,125.76,168.31,126.13,168.77,126.13z"/>
						<path class="st24" d="M173.72,126.13h4.84c0.46,0,0.76-0.37,0.67-0.83c-0.09-0.46-0.53-0.83-0.98-0.83h-4.84
							c-0.46,0-0.76,0.37-0.67,0.83C172.83,125.76,173.27,126.13,173.72,126.13z"/>
						<path class="st24" d="M137.4,126.13h8.26c0.46,0,0.76-0.37,0.67-0.83c-0.09-0.46-0.53-0.83-0.98-0.83h-8.26
							c-0.46,0-0.76,0.37-0.67,0.83C136.5,125.76,136.94,126.13,137.4,126.13z"/>
						<path class="st24" d="M157.04,130.24c-0.09-0.46-0.53-0.83-0.98-0.83h-18.16c-0.46,0-0.76,0.37-0.67,0.83
							c0.09,0.46,0.53,0.83,0.98,0.83h18.16C156.83,131.06,157.12,130.69,157.04,130.24z"/>
						<path class="st24" d="M179.19,129.41h-19.83c-0.46,0-0.76,0.37-0.67,0.83c0.09,0.46,0.53,0.83,0.98,0.83h19.83
							c0.46,0,0.76-0.37,0.67-0.83C180.08,129.78,179.64,129.41,179.19,129.41z"/>
						<path class="st23" d="M172.3,136c0.46,0,0.76-0.37,0.67-0.83c-0.09-0.46-0.53-0.83-0.98-0.83h-1.65
							c-0.46,0-0.76,0.37-0.67,0.83c0.09,0.46,0.53,0.83,0.98,0.83H172.3z"/>
						<path class="st21" d="M174.62,135.17c0.09,0.46,0.53,0.83,0.98,0.83h4.43c0.46,0,0.76-0.37,0.67-0.83
							c-0.09-0.46-0.53-0.83-0.98-0.83h-4.43C174.83,134.35,174.53,134.72,174.62,135.17z"/>
						<path class="st21" d="M139.28,136h8.26c0.46,0,0.76-0.37,0.67-0.83c-0.09-0.46-0.53-0.83-0.98-0.83h-8.26
							c-0.46,0-0.76,0.37-0.67,0.83C138.38,135.63,138.82,136,139.28,136z"/>
						<path class="st23" d="M150.84,136h16.51c0.46,0,0.76-0.37,0.67-0.83c-0.09-0.46-0.53-0.83-0.98-0.83h-16.51
							c-0.46,0-0.76,0.37-0.67,0.83C149.94,135.63,150.38,136,150.84,136z"/>
						<path class="st24" d="M181.75,140.11c-0.09-0.46-0.53-0.83-0.98-0.83h-18.57c-0.46,0-0.76,0.37-0.67,0.83
							c0.09,0.46,0.53,0.83,0.98,0.83h18.57C181.54,140.94,181.84,140.57,181.75,140.11z"/>
						<path class="st24" d="M140.06,140.11c0.09,0.46,0.53,0.83,0.98,0.83h18.16c0.46,0,0.76-0.37,0.67-0.83
							c-0.09-0.46-0.53-0.83-0.98-0.83h-18.16C140.27,139.28,139.98,139.65,140.06,140.11z"/>
						<path class="st21" d="M176.5,145.05c-0.09-0.46-0.53-0.83-0.98-0.83h-1.65c-0.46,0-0.76,0.37-0.67,0.83
							c0.09,0.46,0.53,0.83,0.98,0.83h1.65C176.29,145.87,176.59,145.5,176.5,145.05z"/>
						<path class="st24" d="M170.57,144.22h-16.51c-0.46,0-0.76,0.37-0.67,0.83c0.09,0.46,0.53,0.83,0.98,0.83h16.51
							c0.46,0,0.76-0.37,0.67-0.83C171.46,144.59,171.02,144.22,170.57,144.22z"/>
						<path class="st24" d="M183.11,145.05c-0.09-0.46-0.53-0.83-0.98-0.83h-3.3c-0.46,0-0.76,0.37-0.67,0.83
							c0.09,0.46,0.53,0.83,0.98,0.83h3.3C182.89,145.87,183.19,145.5,183.11,145.05z"/>
						<path class="st23" d="M141.16,145.87h9.91c0.46,0,0.76-0.37,0.67-0.83c-0.09-0.46-0.53-0.83-0.98-0.83h-9.91
							c-0.46,0-0.76,0.37-0.67,0.83C140.26,145.5,140.7,145.87,141.16,145.87z"/>
						<path class="st22" d="M142.1,150.81h8.26c0.46,0,0.76-0.37,0.67-0.83c-0.09-0.46-0.53-0.83-0.98-0.83h-8.26
							c-0.46,0-0.76,0.37-0.67,0.83C141.2,150.44,141.64,150.81,142.1,150.81z"/>
						<path class="st24" d="M182.41,149.16h-4.3c-0.46,0-0.76,0.37-0.67,0.83c0.09,0.46,0.53,0.83,0.98,0.83h4.3
							c0.46,0,0.76-0.37,0.67-0.83C183.3,149.53,182.86,149.16,182.41,149.16z"/>
						<path class="st21" d="M173.47,150.81h1.65c0.46,0,0.76-0.37,0.67-0.83c-0.09-0.46-0.53-0.83-0.98-0.83h-1.65
							c-0.46,0-0.76,0.37-0.67,0.83C172.58,150.44,173.02,150.81,173.47,150.81z"/>
						<path class="st24" d="M153.66,150.81h16.51c0.46,0,0.76-0.37,0.67-0.83c-0.09-0.46-0.53-0.83-0.98-0.83h-16.51
							c-0.46,0-0.76,0.37-0.67,0.83C152.76,150.44,153.2,150.81,153.66,150.81z"/>
						<path class="st24" d="M142.88,154.92c0.09,0.46,0.53,0.83,0.98,0.83h18.16c0.46,0,0.76-0.37,0.67-0.83
							c-0.09-0.46-0.53-0.83-0.98-0.83h-18.16C143.1,154.09,142.8,154.46,142.88,154.92z"/>
						<path class="st24" d="M184.99,154.92c-0.09-0.46-0.53-0.83-0.98-0.83h-18.99c-0.46,0-0.76,0.37-0.67,0.83
							c0.09,0.46,0.53,0.83,0.98,0.83h18.99C184.77,155.74,185.07,155.38,184.99,154.92z"/>
						<path class="st23" d="M177.67,159.86c-0.09-0.46-0.53-0.83-0.98-0.83h-1.65c-0.46,0-0.76,0.37-0.67,0.83
							c0.09,0.46,0.53,0.83,0.98,0.83H177C177.46,160.68,177.76,160.31,177.67,159.86z"/>
						<path class="st21" d="M155.54,160.68h16.51c0.46,0,0.76-0.37,0.67-0.83c-0.09-0.46-0.53-0.83-0.98-0.83h-16.51
							c-0.46,0-0.76,0.37-0.67,0.83C154.64,160.31,155.08,160.68,155.54,160.68z"/>
						<path class="st24" d="M143.98,160.68h8.26c0.46,0,0.76-0.37,0.67-0.83c-0.09-0.46-0.53-0.83-0.98-0.83h-8.26
							c-0.46,0-0.76,0.37-0.67,0.83C143.09,160.31,143.53,160.68,143.98,160.68z"/>
						<path class="st23" d="M180.31,160.68h4.95c0.46,0,0.76-0.37,0.67-0.83c-0.09-0.46-0.53-0.83-0.98-0.83h-4.95
							c-0.46,0-0.76,0.37-0.67,0.83C179.41,160.31,179.85,160.68,180.31,160.68z"/>
						<path class="st23" d="M154.83,165.62c0.46,0,0.76-0.37,0.67-0.83c-0.09-0.46-0.53-0.83-0.98-0.83h-9.91
							c-0.46,0-0.76,0.37-0.67,0.83c0.09,0.46,0.53,0.83,0.98,0.83H154.83z"/>
						<path class="st21" d="M177.94,165.62h1.65c0.46,0,0.76-0.37,0.67-0.83c-0.09-0.46-0.53-0.83-0.98-0.83h-1.65
							c-0.46,0-0.76,0.37-0.67,0.83C177.05,165.25,177.49,165.62,177.94,165.62z"/>
						<path class="st24" d="M158.13,165.62h16.51c0.46,0,0.76-0.37,0.67-0.83c-0.09-0.46-0.53-0.83-0.98-0.83h-16.51
							c-0.46,0-0.76,0.37-0.67,0.83C157.23,165.25,157.67,165.62,158.13,165.62z"/>
						<path class="st24" d="M182.9,165.62h3.6c0.46,0,0.76-0.37,0.67-0.83c-0.09-0.46-0.53-0.83-0.98-0.83h-3.6
							c-0.46,0-0.76,0.37-0.67,0.83C182,165.25,182.44,165.62,182.9,165.62z"/>
						<path class="st21" d="M187.24,168.9h-0.54c-0.46,0-0.76,0.37-0.67,0.83c0.09,0.46,0.53,0.83,0.98,0.83h0.54
							c0.46,0,0.76-0.37,0.67-0.83C188.13,169.27,187.69,168.9,187.24,168.9z"/>
						<path class="st22" d="M164.53,168.9h-18.16c-0.46,0-0.76,0.37-0.67,0.83c0.09,0.46,0.53,0.83,0.98,0.83h18.16
							c0.46,0,0.76-0.37,0.67-0.83C165.43,169.27,164.99,168.9,164.53,168.9z"/>
						<path class="st24" d="M184.35,168.9h-16.51c-0.46,0-0.76,0.37-0.67,0.83c0.09,0.46,0.53,0.83,0.98,0.83h16.51
							c0.46,0,0.76-0.37,0.67-0.83C185.24,169.27,184.8,168.9,184.35,168.9z"/>
						<path class="st21" d="M86.63,168.9h-2.48c-0.46,0-0.76,0.37-0.67,0.83c0.09,0.46,0.53,0.83,0.98,0.83h2.48
							c0.46,0,0.76-0.37,0.67-0.83C87.53,169.27,87.09,168.9,86.63,168.9z"/>
					</g>
					<g>
						<path class="st21" d="M85.23,174.55h1.65c0.46,0,0.76-0.37,0.67-0.83c-0.09-0.46-0.53-0.83-0.98-0.83h-1.65
							c-0.46,0-0.76,0.37-0.67,0.83C84.33,174.19,84.77,174.55,85.23,174.55z"/>
						<path class="st22" d="M101.74,174.55h16.51c0.46,0,0.76-0.37,0.67-0.83c-0.09-0.46-0.53-0.83-0.98-0.83h-16.51
							c-0.46,0-0.76,0.37-0.67,0.83C100.84,174.19,101.28,174.55,101.74,174.55z"/>
						<path class="st23" d="M121.55,174.55h1.65c0.46,0,0.76-0.37,0.67-0.83c-0.09-0.46-0.53-0.83-0.98-0.83h-1.65
							c-0.46,0-0.76,0.37-0.67,0.83C120.66,174.19,121.1,174.55,121.55,174.55z"/>
						<path class="st23" d="M138.06,174.55h5.42c0.46,0,0.76-0.37,0.67-0.83c-0.09-0.46-0.53-0.83-0.98-0.83h-5.42
							c-0.46,0-0.76,0.37-0.67,0.83C137.17,174.19,137.61,174.55,138.06,174.55z"/>
						<path class="st24" d="M126.51,174.55h8.26c0.46,0,0.76-0.37,0.67-0.83c-0.09-0.46-0.53-0.83-0.98-0.83h-8.26
							c-0.46,0-0.76,0.37-0.67,0.83C125.61,174.19,126.05,174.55,126.51,174.55z"/>
						<path class="st24" d="M90.18,174.55h8.26c0.46,0,0.76-0.37,0.67-0.83c-0.09-0.46-0.53-0.83-0.98-0.83h-8.26
							c-0.46,0-0.76,0.37-0.67,0.83C89.29,174.19,89.73,174.55,90.18,174.55z"/>
						<path class="st24" d="M110.78,178.67c-0.09-0.46-0.53-0.83-0.98-0.83H91.63c-0.46,0-0.76,0.37-0.67,0.83
							c0.09,0.46,0.53,0.83,0.98,0.83h18.16C110.57,179.49,110.87,179.12,110.78,178.67z"/>
						<path class="st25" d="M88.33,177.84h-2.48c-0.46,0-0.76,0.37-0.67,0.83c0.09,0.46,0.53,0.83,0.98,0.83h2.48
							c0.46,0,0.76-0.37,0.67-0.83C89.23,178.21,88.79,177.84,88.33,177.84z"/>
						<path class="st24" d="M129.61,177.84H113.1c-0.46,0-0.76,0.37-0.67,0.83c0.09,0.46,0.53,0.83,0.98,0.83h16.51
							c0.46,0,0.76-0.37,0.67-0.83C130.51,178.21,130.07,177.84,129.61,177.84z"/>
						<path class="st23" d="M135.7,179.49c0.46,0,0.76-0.37,0.67-0.83c-0.09-0.46-0.53-0.83-0.98-0.83h-2.48
							c-0.46,0-0.76,0.37-0.67,0.83c0.09,0.46,0.53,0.83,0.98,0.83H135.7z"/>
						<path class="st24" d="M144.11,177.84h-5.42c-0.46,0-0.76,0.37-0.67,0.83c0.09,0.46,0.53,0.83,0.98,0.83h5.42
							c0.46,0,0.76-0.37,0.67-0.83C145,178.21,144.56,177.84,144.11,177.84z"/>
						<path class="st23" d="M125.09,184.43c0.46,0,0.76-0.37,0.67-0.83c-0.09-0.46-0.53-0.83-0.98-0.83h-1.65
							c-0.46,0-0.76,0.37-0.67,0.83c0.09,0.46,0.53,0.83,0.98,0.83H125.09z"/>
						<path class="st26" d="M87.11,184.43h1.65c0.46,0,0.76-0.37,0.67-0.83c-0.09-0.46-0.53-0.83-0.98-0.83H86.8
							c-0.46,0-0.76,0.37-0.67,0.83C86.21,184.06,86.65,184.43,87.11,184.43z"/>
						<path class="st21" d="M127.4,183.6c0.09,0.46,0.53,0.83,0.98,0.83h8.26c0.46,0,0.76-0.37,0.67-0.83
							c-0.09-0.46-0.53-0.83-0.98-0.83h-8.26C127.62,182.78,127.32,183.15,127.4,183.6z"/>
						<path class="st21" d="M92.06,184.43h8.26c0.46,0,0.76-0.37,0.67-0.83c-0.09-0.46-0.53-0.83-0.98-0.83h-8.26
							c-0.46,0-0.76,0.37-0.67,0.83C91.17,184.06,91.61,184.43,92.06,184.43z"/>
						<path class="st21" d="M145.05,182.78h-5.42c-0.46,0-0.76,0.37-0.67,0.83c0.09,0.46,0.53,0.83,0.98,0.83h5.42
							c0.46,0,0.76-0.37,0.67-0.83C145.94,183.15,145.5,182.78,145.05,182.78z"/>
						<path class="st23" d="M103.62,184.43h16.51c0.46,0,0.76-0.37,0.67-0.83c-0.09-0.46-0.53-0.83-0.98-0.83h-16.51
							c-0.46,0-0.76,0.37-0.67,0.83C102.73,184.06,103.17,184.43,103.62,184.43z"/>
						<path class="st22" d="M158.18,174.55h16.51c0.46,0,0.76-0.37,0.67-0.83c-0.09-0.46-0.53-0.83-0.98-0.83h-16.51
							c-0.46,0-0.76,0.37-0.67,0.83C157.29,174.19,157.73,174.55,158.18,174.55z"/>
						<path class="st23" d="M177.99,174.55h1.65c0.46,0,0.76-0.37,0.67-0.83c-0.09-0.46-0.53-0.83-0.98-0.83h-1.65
							c-0.46,0-0.76,0.37-0.67,0.83C177.1,174.19,177.54,174.55,177.99,174.55z"/>
						<path class="st24" d="M182.95,174.55h5.37c0.46,0,0.76-0.37,0.67-0.83c-0.09-0.46-0.53-0.83-0.98-0.83h-5.37
							c-0.46,0-0.76,0.37-0.67,0.83C182.05,174.19,182.49,174.55,182.95,174.55z"/>
						<path class="st24" d="M146.62,174.55h8.26c0.46,0,0.76-0.37,0.67-0.83c-0.09-0.46-0.53-0.83-0.98-0.83h-8.26
							c-0.46,0-0.76,0.37-0.67,0.83C145.73,174.19,146.17,174.55,146.62,174.55z"/>
						<path class="st24" d="M166.26,178.67c-0.09-0.46-0.53-0.83-0.98-0.83h-18.16c-0.46,0-0.76,0.37-0.67,0.83
							c0.09,0.46,0.53,0.83,0.98,0.83h18.16C166.05,179.49,166.35,179.12,166.26,178.67z"/>
						<path class="st24" d="M188.83,177.84h-20.24c-0.46,0-0.76,0.37-0.67,0.83c0.09,0.46,0.53,0.83,0.98,0.83h20.24
							c0.46,0,0.76-0.37,0.67-0.83C189.72,178.21,189.28,177.84,188.83,177.84z"/>
						<path class="st23" d="M181.53,184.43c0.46,0,0.76-0.37,0.67-0.83c-0.09-0.46-0.53-0.83-0.98-0.83h-1.65
							c-0.46,0-0.76,0.37-0.67,0.83c0.09,0.46,0.53,0.83,0.98,0.83H181.53z"/>
						<path class="st21" d="M183.85,183.6c0.09,0.46,0.53,0.83,0.98,0.83h5.37c0.46,0,0.76-0.37,0.67-0.83
							c-0.09-0.46-0.53-0.83-0.98-0.83h-5.37C184.06,182.78,183.76,183.15,183.85,183.6z"/>
						<path class="st21" d="M148.5,184.43h8.26c0.46,0,0.76-0.37,0.67-0.83c-0.09-0.46-0.53-0.83-0.98-0.83h-8.26
							c-0.46,0-0.76,0.37-0.67,0.83C147.61,184.06,148.05,184.43,148.5,184.43z"/>
						<path class="st23" d="M160.06,184.43h16.51c0.46,0,0.76-0.37,0.67-0.83c-0.09-0.46-0.53-0.83-0.98-0.83h-16.51
							c-0.46,0-0.76,0.37-0.67,0.83C159.17,184.06,159.61,184.43,160.06,184.43z"/>
					</g>
				</g>
			</g>
		</g>
		<path class="st17" d="M417.47,248.83H82.53c-1.1,0-1.99-0.89-1.99-1.99l0,0c0-1.1,0.89-1.99,1.99-1.99h334.94
			c1.1,0,1.99,0.89,1.99,1.99l0,0C419.46,247.94,418.57,248.83,417.47,248.83z"/>
		<path class="st3" d="M440.44,245.76H59.56c-1.1,0-1.99-0.89-1.99-1.99v-6.2c0-1.1,0.89-1.99,1.99-1.99h380.87
			c1.1,0,1.99,0.89,1.99,1.99v6.2C442.42,244.87,441.53,245.76,440.44,245.76z"/>
		<path class="st9" d="M282.35,217.68c0,0-8.06-2.66-12.87-4.22c-4.81-1.56-12.51,1.32-18.05,5.41c0,0-3.85,3.25-2.53,4.33
			c1.32,1.08,7.7-4.09,13.24-4.69c0,0-12.87,8.18-11.55,11.07c0.44,0.96,2.04,0.75,3.98,0.03c-0.29,0.53-0.38,0.99-0.11,1.29
			c0.68,0.76,4.4-0.58,7.77-2.03c-0.65,0.48-1.08,0.97-1.05,1.43c0.12,1.8,10.47-2.89,10.47-2.89s6.62,4.33,11.19,1.56
			C282.83,228.97,284.64,221.42,282.35,217.68z"/>
		<g>
			<path class="st7" d="M277.98,230.42H131.39c-1.21,0-2.18,0.98-2.18,2.18v0.8c0,1.21,0.98,2.18,2.18,2.18h146.59
				c1.21,0,2.18-0.98,2.18-2.18v-0.8C280.17,231.4,279.19,230.42,277.98,230.42z"/>
			<path class="st18" d="M234.94,155.49l14.99,70.98c0.46,2.18-0.94,3.95-3.11,3.95H131.41c-2.18,0-4.32-1.77-4.78-3.95
				l-14.99-70.98c-0.46-2.18,0.94-3.94,3.12-3.94h115.42C232.34,151.55,234.48,153.31,234.94,155.49z"/>
			<path class="st27" d="M231.31,155.49l14.99,70.98c0.46,2.18-0.93,3.95-3.11,3.95H131.41c-2.18,0-4.32-1.77-4.78-3.95
				l-14.99-70.98c-0.46-2.18,0.94-3.94,3.12-3.94h111.79C228.72,151.55,230.85,153.31,231.31,155.49z"/>
			<path class="st4" d="M175.36,198.38c-4.06,0-7.36-3.3-7.36-7.36c0-4.06,3.3-7.36,7.36-7.36c4.06,0,7.36,3.3,7.36,7.36
				C182.72,195.07,179.42,198.38,175.36,198.38z M175.36,186.65c-2.41,0-4.36,1.96-4.36,4.36c0,2.41,1.96,4.36,4.36,4.36
				c2.41,0,4.36-1.96,4.36-4.36C179.72,188.61,177.76,186.65,175.36,186.65z"/>
		</g>
	</g>
</g>
<g id="designed_by_freepik" class="st28">
	<g class="st29">
		<g id="XMLID_319_">
			<g id="XMLID_338_">
				<path id="XMLID_346_" class="st30" d="M260.1,465.47c-0.43,0.44-0.8,0.93-1.11,1.45l-0.47-0.24c-0.07-0.3-0.35-0.5-0.66-0.47
					c-0.33,0.04-0.57,0.34-0.53,0.67c0.04,0.33,0.34,0.57,0.67,0.53c0.07-0.01,0.13-0.03,0.18-0.05l0.45,0.23
					c-0.25,0.55-0.43,1.14-0.54,1.74l0.75,0.13c0.23-1.31,0.85-2.51,1.79-3.47L260.1,465.47z"/>
				<path id="XMLID_345_" class="st30" d="M265.59,463.16c-0.17,0-0.34,0.01-0.51,0.02l-0.07-0.63c0.19-0.15,0.3-0.39,0.27-0.64
					c-0.05-0.39-0.4-0.67-0.8-0.63c-0.39,0.05-0.67,0.4-0.63,0.8c0.03,0.25,0.19,0.46,0.4,0.56l0.07,0.62
					c-0.71,0.12-1.4,0.33-2.06,0.65l0.33,0.68c0.93-0.45,1.94-0.67,3-0.67c0.5,0,0.99,0.05,1.48,0.16l0.16-0.74
					C266.69,463.22,266.14,463.16,265.59,463.16z"/>
				<path id="XMLID_344_" class="st30" d="M272.19,465.71c0.33-0.04,0.57-0.34,0.53-0.67c-0.04-0.33-0.34-0.57-0.67-0.53
					c-0.31,0.04-0.54,0.3-0.53,0.61l-0.42,0.36c-0.42-0.43-0.89-0.81-1.41-1.14l-0.4,0.64c1.13,0.71,2.02,1.73,2.56,2.93l0.69-0.31
					c-0.25-0.55-0.57-1.07-0.94-1.55l0.4-0.35C272.06,465.72,272.13,465.72,272.19,465.71z"/>
				<path id="XMLID_343_" class="st30" d="M265.04,473.37c-0.39,0.02-0.77,0.03-1.16,0.03c-0.88,0-1.73-0.06-2.48-0.18
					c-0.39-0.06-0.85-0.15-1.27-0.29c1.05,1.86,3.07,3.13,5.39,3.13c2.86,0,5.26-1.92,5.95-4.5c-0.68,0.45-1.51,0.83-2.46,1.12
					C267.84,473.05,266.46,473.29,265.04,473.37z"/>
				<path id="XMLID_339_" class="st30" d="M265.59,464.68c-3.35,0-6.08,2.67-6.08,5.94c0,0.43,0.05,0.85,0.14,1.26
					c0.67,0.48,2.71,0.89,5.35,0.73c2.88-0.17,5.3-0.96,6.67-2.16c-0.01-0.19-0.02-0.39-0.05-0.58
					C271.24,466.91,268.65,464.68,265.59,464.68z M263.43,471.19c-1.02,0-1.85-0.83-1.85-1.85c0-1.02,0.83-1.85,1.85-1.85
					c1.02,0,1.85,0.83,1.85,1.85C265.28,470.36,264.45,471.19,263.43,471.19z M268.17,470.29c-0.75,0-1.36-0.61-1.36-1.36
					s0.61-1.36,1.36-1.36c0.75,0,1.36,0.61,1.36,1.36S268.92,470.29,268.17,470.29z"/>
			</g>
			<path id="XMLID_336_" class="st30" d="M281.6,466.55c-0.29-0.12-0.81-0.31-1.38-0.24c-0.55,0.07-0.84,0.34-0.84,1.01v0.87h2.23
				v1.72h-2.23v5.45h-1.93v-5.45h-1.34v-1.72h1.34v-0.89c0-1.68,0.9-2.78,2.57-2.78c0.64,0,1.16,0.12,1.59,0.31L281.6,466.55z"/>
			<path id="XMLID_334_" class="st30" d="M286.3,469.88c-0.18-0.03-0.36-0.05-0.53-0.05c-0.9,0-1.51,0.55-1.51,1.61v3.91h-1.93
				v-7.17h1.87v0.78c0.45-0.67,1.14-0.98,2.02-0.98c0.41,0,0.85,0.13,1.09,0.34L286.3,469.88z"/>
			<path id="XMLID_331_" class="st30" d="M293.97,471.76c0,0.22-0.01,0.49-0.04,0.65h-5.08c0.21,1.04,0.93,1.49,1.84,1.49
				c0.62,0,1.3-0.25,1.81-0.69l1.13,1.24c-0.81,0.75-1.85,1.09-3.06,1.09c-2.2,0-3.72-1.5-3.72-3.75c0-2.26,1.48-3.8,3.63-3.8
				C292.54,467.99,293.96,469.52,293.97,471.76z M288.85,471.09h3.18c-0.18-0.92-0.73-1.44-1.56-1.44
				C289.55,469.65,289.02,470.2,288.85,471.09z"/>
			<path id="XMLID_328_" class="st30" d="M301.62,471.76c0,0.22-0.02,0.49-0.04,0.65h-5.08c0.21,1.04,0.93,1.49,1.84,1.49
				c0.62,0,1.3-0.25,1.81-0.69l1.13,1.24c-0.81,0.75-1.85,1.09-3.06,1.09c-2.2,0-3.72-1.5-3.72-3.75c0-2.26,1.48-3.8,3.63-3.8
				C300.2,467.99,301.61,469.52,301.62,471.76z M296.5,471.09h3.18c-0.18-0.92-0.73-1.44-1.56-1.44
				C297.21,469.65,296.67,470.2,296.5,471.09z"/>
			<path id="XMLID_325_" class="st30" d="M309.96,471.76c0,2.15-1.5,3.77-3.47,3.77c-0.96,0-1.64-0.38-2.11-0.93v3.71h-1.92v-10.13
				h1.89v0.79c0.47-0.58,1.15-0.98,2.14-0.98C308.47,467.99,309.96,469.61,309.96,471.76z M304.29,471.76
				c0,1.13,0.75,1.98,1.84,1.98c1.14,0,1.85-0.88,1.85-1.98c0-1.1-0.71-1.98-1.85-1.98C305.03,469.79,304.29,470.63,304.29,471.76z"
				/>
			<path id="XMLID_322_" class="st30" d="M313.07,465.84c0,0.7-0.54,1.23-1.24,1.23c-0.7,0-1.23-0.53-1.23-1.23
				c0-0.7,0.53-1.24,1.23-1.24C312.53,464.59,313.07,465.14,313.07,465.84z M312.81,475.35h-1.93v-7.17h1.93V475.35z"/>
			<path id="XMLID_320_" class="st30" d="M316.03,470.74l2.7-2.55h2.37l-3.48,3.38l3.5,3.8h-2.38l-2.72-2.9v2.9h-1.93V464.7h1.93
				V470.74z"/>
		</g>
		<g>
			<path class="st30" d="M184.41,475.29v-1.05c-0.53,0.72-1.39,1.23-2.39,1.23c-1.85,0-3.15-1.41-3.15-3.71
				c0-2.26,1.29-3.72,3.15-3.72c0.95,0,1.82,0.47,2.39,1.25v-3.76h1.1v9.77H184.41z M184.41,473.37v-3.21
				c-0.4-0.62-1.24-1.14-2.12-1.14c-1.42,0-2.27,1.17-2.27,2.74c0,1.57,0.85,2.72,2.27,2.72
				C183.17,474.48,184.02,473.99,184.41,473.37z"/>
			<path class="st30" d="M186.93,471.74c0-2.05,1.46-3.71,3.49-3.71c2.14,0,3.4,1.67,3.4,3.79v0.28h-5.73
				c0.09,1.33,1.03,2.45,2.55,2.45c0.81,0,1.63-0.32,2.18-0.89l0.53,0.72c-0.7,0.7-1.65,1.08-2.81,1.08
				C188.44,475.46,186.93,473.96,186.93,471.74z M190.4,468.95c-1.51,0-2.26,1.27-2.31,2.36h4.64
				C192.72,470.25,192.01,468.95,190.4,468.95z"/>
			<path class="st30" d="M194.61,474.35l0.57-0.79c0.47,0.54,1.36,1.01,2.33,1.01c1.08,0,1.67-0.51,1.67-1.22
				c0-1.71-4.38-0.66-4.38-3.28c0-1.1,0.95-2.04,2.64-2.04c1.2,0,2.05,0.45,2.62,1.03l-0.51,0.76c-0.42-0.51-1.2-0.89-2.11-0.89
				c-0.97,0-1.57,0.48-1.57,1.11c0,1.55,4.38,0.53,4.38,3.28c0,1.19-0.95,2.14-2.78,2.14C196.31,475.46,195.32,475.11,194.61,474.35
				z"/>
			<path class="st30" d="M201.48,466.47c0-0.41,0.34-0.75,0.73-0.75c0.41,0,0.75,0.34,0.75,0.75c0,0.41-0.34,0.73-0.75,0.73
				C201.81,467.2,201.48,466.88,201.48,466.47z M201.67,475.29v-7.07h1.1v7.07H201.67z"/>
			<path class="st30" d="M204.58,477.11l0.56-0.82c0.59,0.7,1.29,0.97,2.3,0.97c1.17,0,2.27-0.57,2.27-2.12v-1.01
				c-0.51,0.72-1.38,1.26-2.37,1.26c-1.85,0-3.15-1.38-3.15-3.66c0-2.27,1.29-3.68,3.15-3.68c0.95,0,1.8,0.47,2.37,1.25v-1.07h1.1
				v6.87c0,2.34-1.64,3.08-3.37,3.08C206.24,478.16,205.42,477.93,204.58,477.11z M209.71,473.25v-3.09
				c-0.38-0.62-1.23-1.14-2.11-1.14c-1.42,0-2.27,1.13-2.27,2.7c0,1.55,0.85,2.7,2.27,2.7
				C208.48,474.41,209.33,473.87,209.71,473.25z"/>
			<path class="st30" d="M217.41,475.29v-4.63c0-1.24-0.63-1.64-1.58-1.64c-0.86,0-1.68,0.53-2.09,1.1v5.17h-1.1v-7.07h1.1v1.03
				c0.5-0.59,1.46-1.2,2.52-1.2c1.48,0,2.26,0.75,2.26,2.29v4.97H217.41z"/>
			<path class="st30" d="M219.93,471.74c0-2.05,1.46-3.71,3.49-3.71c2.14,0,3.4,1.67,3.4,3.79v0.28h-5.73
				c0.09,1.33,1.03,2.45,2.55,2.45c0.81,0,1.63-0.32,2.18-0.89l0.53,0.72c-0.7,0.7-1.66,1.08-2.81,1.08
				C221.44,475.46,219.93,473.96,219.93,471.74z M223.4,468.95c-1.51,0-2.26,1.27-2.31,2.36h4.64
				C225.72,470.25,225.02,468.95,223.4,468.95z"/>
			<path class="st30" d="M233.35,475.29v-1.05c-0.53,0.72-1.39,1.23-2.39,1.23c-1.85,0-3.15-1.41-3.15-3.71
				c0-2.26,1.29-3.72,3.15-3.72c0.95,0,1.82,0.47,2.39,1.25v-3.76h1.1v9.77H233.35z M233.35,473.37v-3.21
				c-0.4-0.62-1.25-1.14-2.12-1.14c-1.42,0-2.27,1.17-2.27,2.74c0,1.57,0.85,2.72,2.27,2.72
				C232.1,474.48,232.95,473.99,233.35,473.37z"/>
			<path class="st30" d="M239.69,475.29v-9.77h1.1v3.76c0.57-0.78,1.42-1.25,2.39-1.25c1.85,0,3.15,1.46,3.15,3.72
				c0,2.3-1.3,3.71-3.15,3.71c-1,0-1.86-0.51-2.39-1.23v1.05H239.69z M242.9,474.48c1.44,0,2.29-1.16,2.29-2.72
				c0-1.57-0.85-2.74-2.29-2.74c-0.86,0-1.73,0.53-2.11,1.14v3.21C241.17,473.99,242.04,474.48,242.9,474.48z"/>
			<path class="st30" d="M247.53,477.06c0.16,0.07,0.43,0.12,0.6,0.12c0.48,0,0.81-0.16,1.05-0.75l0.47-1.07l-2.96-7.15h1.19
				l2.36,5.8l2.34-5.8h1.2l-3.54,8.51c-0.42,1.03-1.14,1.42-2.08,1.44c-0.23,0-0.6-0.04-0.81-0.1L247.53,477.06z"/>
		</g>
	</g>
</g>
</svg>
