<?xml version="1.0" encoding="utf-8"?>
<!-- Generator: Adobe Illustrator 24.0.1, SVG Export Plug-In . SVG Version: 6.00 Build 0)  -->
<svg version="1.1" xmlns="http://www.w3.org/2000/svg" xmlns:xlink="http://www.w3.org/1999/xlink" x="0px" y="0px"
	 viewBox="0 0 500 500" style="enable-background:new 0 0 500 500;" xml:space="preserve">
<style type="text/css">
	.st0{display:none;fill:url(#SVGID_1_);}
	.st1{opacity:0.8;}
	.st2{fill:url(#SVGID_2_);}
	.st3{fill:url(#SVGID_3_);}
	.st4{fill:none;}
	.st5{display:none;fill:#372F82;}
	.st6{font-family:'Montserrat-Bold';}
	.st7{font-size:43px;}
	.st8{opacity:0.43;fill:#FFFFFF;}
	.st9{opacity:0;fill:#FFFFFF;}
	.st10{fill:#372F82;}
	.st11{fill:#514A92;}
	.st12{fill:none;stroke:#372F82;stroke-width:2;stroke-linecap:round;stroke-linejoin:round;}
	.st13{fill:none;stroke:#372F82;stroke-width:2;stroke-linecap:round;stroke-linejoin:round;stroke-dasharray:4.0228,8.0456;}
	.st14{fill:#953183;}
	.st15{fill:#FFECC2;}
	.st16{fill:#A24A92;}
	.st17{opacity:0.25;fill:#FFFFFF;}
	.st18{opacity:0.5;fill:#FFFFFF;}
	.st19{fill:#F79527;}
	.st20{fill:#FCB82E;}
	.st21{opacity:0.1;fill:#FFFFFF;}
	.st22{opacity:0.31;}
	.st23{fill:#FFFFFF;}
	.st24{fill:#A56F28;}
	.st25{fill:#398CA6;}
	.st26{fill:#006B8C;}
	.st27{fill:#589EB4;}
	.st28{clip-path:url(#SVGID_5_);fill:#514A92;}
	.st29{opacity:0.26;fill:#FFFFFF;}
	.st30{fill:#F6B58B;}
	.st31{fill:#F39C64;}
	.st32{fill:#3E352D;}
	.st33{fill:#232322;}
	.st34{fill:#004A60;}
	.st35{fill:#AC5E9E;}
	.st36{fill:#004D6A;}
	.st37{fill:#445F65;}
	.st38{fill:#D95932;}
	.st39{fill:#3B565B;}
	.st40{fill:#BB4D31;}
	.st41{fill:#CFCFCF;}
	.st42{fill:#B0B0B0;}
	.st43{font-family:'TrashHand';}
	.st44{font-size:8.5669px;}
	.st45{font-size:20.0481px;}
	.st46{font-size:14.5191px;}
	.st47{font-size:6.6516px;}
	.st48{font-size:17.0247px;}
	.st49{font-size:8.3632px;}
	.st50{font-size:13.7275px;}
	.st51{fill:none;stroke:#FFFFFF;stroke-width:0.25;stroke-miterlimit:10;}
	.st52{fill:#EFE2CE;}
	.st53{fill:#938676;}
	.st54{fill:#3A5C66;}
	.st55{opacity:0.3;}
	.st56{fill:#443937;}
	.st57{fill:#ADAAEC;}
	.st58{fill:#9894E7;}
	.st59{fill:#6B392F;}
	.st60{fill:#FFFAEF;}
	.st61{display:none;}
	.st62{display:inline;}
</style>
<g id="BACKGROUND">
	<linearGradient id="SVGID_1_" gradientUnits="userSpaceOnUse" x1="1.839" y1="1.839" x2="497.7075" y2="497.7075">
		<stop  offset="0" style="stop-color:#BEEDC2"/>
		<stop  offset="1" style="stop-color:#56B8B3"/>
	</linearGradient>
	<rect class="st0" width="500" height="500"/>
	<g class="st1">
		
			<linearGradient id="SVGID_2_" gradientUnits="userSpaceOnUse" x1="-99.5961" y1="223.3607" x2="360.2048" y2="223.3607" gradientTransform="matrix(0.1142 0.8322 0.9907 -0.136 -5.8098 192.2245)">
			<stop  offset="0" style="stop-color:#BEEDC2"/>
			<stop  offset="1" style="stop-color:#56B8B3;stop-opacity:0.1"/>
		</linearGradient>
		<path class="st2" d="M384.53,247.12c65.24,35.24,72.52,108.31,7.23,169.08c-65.29,60.78-231.4,54.88-293.39,1.36
			c-61.98-53.52-85.98-152.71-49.6-238.32C85.14,93.64,172.18,65.02,242.2,92.61c43.14,17,42.83,58.02,66.51,95.49
			C323.46,211.44,359.48,233.59,384.53,247.12z"/>
	</g>
	<g class="st1">
		
			<linearGradient id="SVGID_3_" gradientUnits="userSpaceOnUse" x1="41.5332" y1="199.9297" x2="419.163" y2="199.9297" gradientTransform="matrix(0.8322 -0.1142 -0.136 -0.9907 154.7638 521.8074)">
			<stop  offset="0" style="stop-color:#BEEDC2"/>
			<stop  offset="1" style="stop-color:#56B8B3;stop-opacity:0.1"/>
		</linearGradient>
		<path class="st3" d="M300.24,170.81c28.95-53.58,88.95-59.56,138.87-5.94s45.07,190.05,1.12,240.96
			c-43.95,50.91-125.42,70.61-195.73,40.74c-70.31-29.88-93.81-101.36-71.15-158.86c13.96-35.43,47.65-35.18,78.42-54.62
			C270.94,220.96,289.13,191.38,300.24,170.81z"/>
	</g>
</g>
<g id="OBJECTS">
	<rect x="71" y="51.21" class="st4" width="358" height="57.97"/>
	<text transform="matrix(1 0 0 1 140.7817 81.7362)" class="st5 st6 st7">Education</text>
	<g>
		<g>
			<g>
				<path class="st8" d="M128.21,299.46l-21.09-4c-2.09-0.4-3.47-2.41-3.07-4.51l0,0c0.4-2.09,2.41-3.47,4.51-3.07l21.09,4
					c2.09,0.4,3.47,2.41,3.07,4.51l0,0C132.32,298.48,130.3,299.86,128.21,299.46z"/>
				<path class="st8" d="M136.96,376.21l-13.25-54.49c-0.25-1.03-0.29-2.09-0.11-3.13l3.28-19.39l-9.21-1.75l-9.21-1.75l-4.05,19.24
					c-0.22,1.03-0.64,2.01-1.25,2.87l-32.3,45.84c-2.8,3.97-0.56,9.51,4.22,10.41l27.07,5.14l27.07,5.14
					C133.99,385.26,138.11,380.93,136.96,376.21z"/>
				<path class="st9" d="M118.9,323.12c-0.45-1.84-0.51-3.72-0.2-5.59l4.8-26.81l-8.79-1.67l-5.37,26.71
					c-0.39,1.86-1.14,3.58-2.23,5.13l-31.17,44.28c-1.16,1.65-0.23,3.94,1.75,4.31l50.8,9.62c1.98,0.37,3.68-1.42,3.2-3.37
					L118.9,323.12z"/>
				<path class="st10" d="M122.91,339.6l-25.56-4.85l-21.41,30.42c-1.16,1.65-0.23,3.94,1.75,4.31l50.78,9.64
					c1.98,0.38,3.68-1.42,3.21-3.37L122.91,339.6z"/>
				<g>
					<path class="st11" d="M110.15,351.77c-0.76,2.75-3.6,4.36-6.35,3.6c-2.75-0.76-4.36-3.6-3.6-6.35c0.76-2.75,3.6-4.36,6.35-3.6
						C109.3,346.18,110.91,349.02,110.15,351.77z"/>
					<path class="st11" d="M116.85,361.12c-0.41,1.47-1.92,2.32-3.39,1.92c-1.47-0.41-2.32-1.92-1.92-3.39
						c0.41-1.47,1.92-2.32,3.39-1.92C116.39,358.14,117.25,359.66,116.85,361.12z"/>
					<path class="st11" d="M108,362.87c-0.29,1.05-1.38,1.67-2.43,1.38c-1.05-0.29-1.67-1.38-1.38-2.43
						c0.29-1.05,1.38-1.67,2.43-1.38C107.67,360.73,108.29,361.82,108,362.87z"/>
					<path class="st11" d="M95.91,364.52c-0.42,1.51-1.98,2.4-3.49,1.98c-1.51-0.42-2.4-1.98-1.98-3.49
						c0.42-1.51,1.98-2.4,3.49-1.98C95.44,361.45,96.33,363.01,95.91,364.52z"/>
					<path class="st11" d="M116.66,369.24c-0.15,0.53-0.69,0.84-1.22,0.69c-0.53-0.15-0.84-0.69-0.69-1.22
						c0.15-0.53,0.69-0.84,1.22-0.69C116.49,368.17,116.8,368.71,116.66,369.24z"/>
				</g>
				<polygon class="st8" points="108.49,295.72 126.84,299.2 128.12,291.59 110.08,288.17 				"/>
				<path class="st8" d="M124.44,294.83c-0.24,0.88-1.16,1.4-2.04,1.15c-0.88-0.24-1.4-1.16-1.15-2.04c0.24-0.88,1.16-1.4,2.04-1.15
					C124.17,293.03,124.68,293.94,124.44,294.83z"/>
				<path class="st8" d="M127.96,295.15c-0.15,0.55-0.72,0.87-1.27,0.72c-0.55-0.15-0.87-0.72-0.72-1.27
					c0.15-0.55,0.72-0.87,1.27-0.72C127.79,294.03,128.11,294.6,127.96,295.15z"/>
			</g>
		</g>
		<g>
			<g>
				<path class="st12" d="M294.01,109.87c0.65,0.17,1.29,0.33,1.93,0.51"/>
				<path class="st13" d="M303.65,112.67c39.95,12.96,74.65,41.78,93.93,82.79c37.01,78.71,3.22,172.52-75.49,209.53
					c-78.71,37.01-172.52,3.22-209.53-75.49c-36.16-76.88-4.75-168.17,70.08-206.87"/>
				<path class="st12" d="M186.25,120.82c0.6-0.29,1.2-0.58,1.8-0.86"/>
			</g>
		</g>
		<g>
			<g>
				<path class="st14" d="M45.16,380.13c-4.7,1.15-9.46-1.74-10.61-6.44c-1.15-4.7,1.74-9.46,6.44-10.61l55.6-13.6l4.17,17.04
					L45.16,380.13z"/>
				<path class="st15" d="M104.78,363.52l-60.09,14.7c-3.65,0.89-7.34-1.34-8.23-5l0,0c-0.89-3.65,1.34-7.34,5-8.23l53.73-13.14
					L104.78,363.52z"/>
				<path class="st16" d="M52.11,445.47c0.89,3.65,5.44,5.68,10.14,4.53l62-15.16l-17.55-71.78l-62,15.16
					c-4.7,1.15-9.25-0.88-10.14-4.53L52.11,445.47z"/>
				<g>
					<path class="st14" d="M67.2,405.06l-0.7-2.72l1.97-0.51l-0.8-1.3l-4.26,1.1l-0.07,1.52l1.62-0.42l0.7,2.72l-6.61,1.7l-0.7-2.72
						l1.41-0.36l0.46-9.84l-0.85,0.22l-0.69-2.68l7.98-2.05l6.71,10.85l1.45-0.37l0.7,2.72L67.2,405.06z M66.26,398.24l-2.53-4.13
						l-0.19,4.83L66.26,398.24z"/>
					<path class="st14" d="M75.67,400l1.2-0.31l-2.35-9.14l-1.2,0.31l-0.69-2.68l7.75-2c3.45-0.89,5.42-0.02,6,2.24
						c0.45,1.74,0.19,2.72-1.21,3.74c1.6,0.03,3.13,0.81,3.65,2.82c0.75,2.93-0.55,4.64-4.56,5.67l-7.89,2.03L75.67,400z
						 M79.64,392.62l1.27-0.33c1.1-0.28,1.26-0.97,1-1.96c-0.25-0.96-0.97-1.37-1.76-1.16l-1.31,0.34L79.64,392.62z M82.84,398.15
						c0.87-0.22,1.51-1.1,1.22-2.22c-0.27-1.06-1.07-1.67-2.22-1.38l-1.6,0.41l0.93,3.61L82.84,398.15z"/>
					<path class="st14" d="M103.39,392.97c-1.01,1.92-2.82,3.85-5.54,4.55c-4.4,1.13-8.06-0.94-9.25-5.57
						c-1.23-4.78,1.63-8.57,4.35-9.27c2.08-0.53,3.31,0.39,3.56,0.59l0.18-1.29l3.26-0.84l1.52,5.9L97.75,388
						c-0.41-1.33-1.4-2.43-2.87-2.05c-1.5,0.39-2,2.48-1.41,4.75c0.53,2.06,2.06,3.63,4.04,3.12c1.75-0.45,2.64-2.63,2.78-2.89
						L103.39,392.97z"/>
				</g>
			</g>
		</g>
		<g>
			<path class="st17" d="M134.31,379.63l0.02-17.03c12.78-3.5,7.26-14.29,7.59-14.29c0-1.29-7.15-1.05-15.97-1.06
				c-0.71,0-1.4,0-2.09,0c2.86,0.25,5.72,0.65,8.56,1c0.96,0.12,4.03,0.42,4.36,1.81c-6.17,1.64-16.92,3.22-26.81-1.23
				c0,0-5.24,11.2,7.67,14.15l-0.02,16.63c-16.17,3.76-28.24,18.22-28.26,35.54c-0.02,20.19,16.33,36.58,36.52,36.6
				c20.19,0.02,36.58-16.33,36.6-36.52C162.51,397.91,150.47,383.43,134.31,379.63z"/>
			<path class="st18" d="M125.95,347.25c-8.82-0.01-15.97,0.29-15.97,1.58c0,1.29,7.15,3.09,15.97,3.1
				c8.82,0.01,15.97-2.33,15.97-3.62C141.92,347.02,134.77,347.26,125.95,347.25z"/>
			<path class="st19" d="M92.45,412.72c-0.08,0.92-0.13,1.84-0.13,2.77c-0.02,18.56,15.01,33.62,33.57,33.64
				c18.56,0.02,33.62-15.01,33.64-33.57c0-0.94-0.05-1.86-0.12-2.78L92.45,412.72z"/>
			<path class="st20" d="M159.41,412.79c0,1.2-14.99,2.16-33.48,2.14c-18.49-0.02-33.48-1.01-33.48-2.21
				c0-1.2,14.99-2.16,33.48-2.14C144.42,410.6,159.41,411.59,159.41,412.79z"/>
			<path class="st21" d="M150.82,395.13c0,0-12.11-16.86-34.42-10.05c-22.3,6.81-21.92,33.31-21.92,33.31s10.91-21.14,27.26-24.55
				C138.1,390.45,150.82,395.13,150.82,395.13z"/>
			<g class="st22">
				<path class="st23" d="M129.02,402.42c0,2.64-2.14,4.77-4.78,4.77c-2.64,0-4.77-2.14-4.77-4.78c0-2.64,2.14-4.77,4.78-4.77
					C126.89,397.64,129.02,399.78,129.02,402.42z"/>
				<path class="st23" d="M144.07,398.05c0,1.98-1.61,3.59-3.59,3.58c-1.98,0-3.59-1.61-3.58-3.59c0-1.98,1.61-3.59,3.59-3.58
					C142.47,394.46,144.08,396.07,144.07,398.05z"/>
				<path class="st23" d="M135.09,423.02c0,2.53-2.06,4.58-4.59,4.58c-2.53,0-4.58-2.06-4.58-4.59c0-2.53,2.06-4.58,4.59-4.58
					C133.04,418.43,135.09,420.49,135.09,423.02z"/>
				<path class="st23" d="M116.46,424.78c0,2.37-1.92,4.28-4.29,4.28c-2.37,0-4.28-1.92-4.28-4.29c0-2.37,1.92-4.28,4.29-4.28
					C114.54,420.49,116.46,422.42,116.46,424.78z"/>
				<path class="st23" d="M113.65,407.91c0,1.59-1.29,2.87-2.88,2.87c-1.59,0-2.87-1.29-2.87-2.88c0-1.59,1.29-2.87,2.88-2.87
					C112.37,405.03,113.65,406.32,113.65,407.91z"/>
				<path class="st23" d="M128.08,387.7c0,0.87-0.71,1.57-1.58,1.57c-0.87,0-1.57-0.71-1.57-1.58c0-0.87,0.71-1.57,1.58-1.57
					C127.38,386.12,128.08,386.83,128.08,387.7z"/>
				<path class="st23" d="M138.71,407.83c0,1.53-1.24,2.77-2.77,2.76c-1.53,0-2.77-1.24-2.76-2.77c0-1.53,1.24-2.77,2.77-2.76
					C137.47,405.06,138.71,406.3,138.71,407.83z"/>
				<path class="st23" d="M142.87,422.19c0,1.45-1.18,2.62-2.63,2.62c-1.45,0-2.62-1.18-2.62-2.63c0-1.45,1.18-2.62,2.63-2.62
					C141.69,419.56,142.87,420.74,142.87,422.19z"/>
				<path class="st23" d="M132.48,436.14c0,1.23-1,2.22-2.23,2.22c-1.23,0-2.22-1-2.22-2.23c0-1.23,1-2.22,2.23-2.22
					C131.49,433.91,132.48,434.91,132.48,436.14z"/>
			</g>
		</g>
		<g>
			<g>
				<path class="st24" d="M370.93,433.21c0.02,1.89,12.69,3.28,28.29,3.12c15.61-0.16,28.24-1.83,28.22-3.71
					c-0.02-1.89-12.69-3.28-28.29-3.12C383.54,429.66,370.91,431.33,370.93,433.21z"/>
			</g>
			<g>
				<path class="st10" d="M371,440.04c0.02,1.89,12.69,3.28,28.29,3.12c15.61-0.16,28.24-1.83,28.22-3.71
					c-0.02-1.89-12.69-3.28-28.29-3.12C383.62,436.5,370.98,438.16,371,440.04z"/>
				
					<rect x="370.96" y="432.92" transform="matrix(0.9999 -0.0105 0.0105 0.9999 -4.5697 4.2255)" class="st11" width="56.52" height="6.83"/>
				<path class="st11" d="M370.93,433.21c0.02,1.89,12.69,3.28,28.29,3.12c15.61-0.16,28.24-1.83,28.22-3.71
					c-0.02-1.89-12.69-3.28-28.29-3.12C383.54,429.66,370.91,431.33,370.93,433.21z"/>
			</g>
			
				<rect x="394.31" y="413.17" transform="matrix(0.9999 -0.0105 0.0105 0.9999 -4.4338 4.2342)" class="st11" width="11.1" height="19.95"/>
			<g>
				<path class="st10" d="M388.47,417.94c-0.08,0-0.14,0-0.16,0l0.01-5.69c0.28,0.01,28.31-0.23,46.14-18.25
					c10.07-10.18,15.08-24.17,14.9-41.58c-0.26-25.08-10.77-42.75-31.23-52.52c-15.44-7.37-30.94-7.3-31.1-7.3l-0.06-5.69
					c0.69-0.01,16.99-0.09,33.61,7.85c9.87,4.71,17.77,11.27,23.49,19.51c7.13,10.25,10.82,23.07,10.98,38.09
					c0.2,19-5.38,34.37-16.58,45.67c-10.24,10.33-23.33,15.2-32.5,17.45C396.74,417.76,389.64,417.93,388.47,417.94z"/>
			</g>
			
				<rect x="384.08" y="283.69" transform="matrix(0.9999 -0.0105 0.0105 0.9999 -3.6859 4.0997)" class="st11" width="7.15" height="137.07"/>
			<path class="st10" d="M391.88,413.84l-1.33-126.41c-2.4,0.18-4.78,0.45-7.15,0.85l1.33,126.85
				C387.16,414.94,389.56,414.53,391.88,413.84z"/>
			<g>
				
					<ellipse transform="matrix(0.4387 -0.8987 0.8987 0.4387 -98.9281 546.0839)" class="st25" cx="387.65" cy="352.23" rx="56.66" ry="56.66"/>
				<path class="st26" d="M436.91,324.21c-0.16,3.93-0.69,7.84-1.68,11.69c-3.43,13.41-12.68,24.73-22.83,33.8
					c-9.87,8.82-21.35,15.74-33.55,20.84c-7.88,3.29-16.08,5.82-24.44,7.56c9.5,6.9,21.21,10.92,33.85,10.78
					c31.29-0.33,56.39-25.96,56.06-57.25C444.2,341.65,441.52,332.31,436.91,324.21z"/>
				<path class="st27" d="M374.89,323.02c6.32-6.54,11.75-14.13,15.49-22.43c0.71-1.57,1.35-3.18,1.91-4.82
					c-1.72-0.14-3.47-0.21-5.23-0.19c-31.29,0.33-56.39,25.96-56.06,57.25c0,0.28,0.01,0.56,0.02,0.85
					C347.74,347.03,362.45,335.89,374.89,323.02z"/>
				<g>
					<defs>
						
							<ellipse id="SVGID_4_" transform="matrix(0.4387 -0.8987 0.8987 0.4387 -98.9281 546.0839)" cx="387.65" cy="352.23" rx="56.66" ry="56.66"/>
					</defs>
					<clipPath id="SVGID_5_">
						<use xlink:href="#SVGID_4_"  style="overflow:visible;"/>
					</clipPath>
					<path class="st28" d="M434.23,315.44c-1.19-0.7-15.94,13.46-10.6,21.45c5.34,7.98-4.25,15.2-0.89,21.66
						s21.34,11.53,21.34,11.53S463.17,332.45,434.23,315.44z"/>
					<path class="st28" d="M352.65,302.28c0,0,34.24,7.14,34.68,19.81c0.44,12.67-11.83,19.16-8.68,24.08
						c3.14,4.91,7.76,19.46-1.49,22.65c-9.24,3.19-10.13,7.22-7.65,8.12c2.48,0.9,15.9,11.89,4,27.48
						c-11.9,15.59-2.5-1.06-6.24-5.65c-2.58-3.16-8.32-7.22-8.18-12.9c0.06-2.58,0.85-7.43,5.01-8.87
						c11.69-4.03-26.26-12.85-19.54-20.27c6.72-7.42,5.19-12.36-1.23-16.93S313.78,310.73,352.65,302.28z"/>
				</g>
			</g>
			<path class="st11" d="M394.41,433.18c0.01,0.83,2.5,1.47,5.57,1.44c3.07-0.03,5.54-0.73,5.53-1.55c-0.01-0.83-2.5-1.47-5.57-1.44
				C396.88,431.66,394.41,432.35,394.41,433.18z"/>
			<path class="st29" d="M353.73,334.61c0.15,14.01,11.63,25.25,25.64,25.11s25.25-11.63,25.11-25.64
				c-0.15-14.01-11.63-25.25-25.64-25.11C364.82,309.12,353.58,320.6,353.73,334.61z"/>
			<path class="st29" d="M374.44,372.77c0.05,4.7,3.9,8.46,8.59,8.42c4.7-0.05,8.46-3.9,8.42-8.59c-0.05-4.7-3.9-8.46-8.59-8.42
				C378.15,364.23,374.39,368.07,374.44,372.77z"/>
		</g>
		<g>
			<path class="st14" d="M409.29,243.58l8.53,10.96l-19.28,16.02l-8.59-10.91C389.95,259.66,393.8,249.56,409.29,243.58z"/>
			<polygon class="st19" points="402.83,235.77 339.99,156.61 320.54,172.05 384.07,252.07 			"/>
			<polygon class="st30" points="339.99,156.61 316.73,148.13 320.54,172.05 327.57,173.49 328.28,167.38 334.26,168.07 
				334.89,162.59 340.49,163.23 			"/>
			<path class="st31" d="M336.25,157.51c-2.35,2.56-4.91,4.92-7.8,6.87c-2.64,1.79-5.55,3.19-8.51,3.9l0.6,3.77l7.03,1.44l0.7-6.1
				l5.98,0.69l0.63-5.48l5.61,0.64l-0.5-6.62l-2.17-0.79C337.23,156.48,336.66,157.07,336.25,157.51z"/>
			<path class="st32" d="M328.45,152.38l-11.72-4.25l1.87,11.73l0.13-0.02C323.03,159.18,326.7,156.37,328.45,152.38L328.45,152.38z
				"/>
			<polygon class="st20" points="402.83,235.77 339.99,156.61 340.49,163.23 334.89,162.59 334.26,168.07 392.63,242.39 			"/>
			<path class="st33" d="M318.57,155.59c-0.26-0.16-0.5-0.34-0.74-0.53l0.77,4.81l0.13-0.02c3.84-0.59,7.18-2.9,9.1-6.23
				C325.06,155.6,321.7,157.51,318.57,155.59z"/>
			<path class="st26" d="M381.87,249.3l8.08,10.36c0,0,3.65-4.86,8.91-9.15c2.56-2.09,10.44-6.92,10.44-6.92l-8.54-10.43
				C400.75,233.15,387.83,236.47,381.87,249.3z"/>
			<path class="st34" d="M398.86,250.5c0.49-0.4,1.18-0.91,1.97-1.46c0.77-3.58,2.64-6.94,4.61-10.17l-1.7-2.08
				c-1.82,2.9-3.4,5.94-4.63,9.15c-0.75,1.96-1.34,3.99-1.94,6C397.7,251.47,398.27,250.98,398.86,250.5z"/>
			<path class="st34" d="M394.73,254.27c0.01-0.03,0.01-0.05,0.02-0.08c0.68-2.59,1.48-5.22,2.38-7.74
				c1.39-3.89,3.28-7.55,5.49-11.02l-1.87-2.28c0,0-1.82,0.48-4.4,1.74c-1.58,2.72-2.94,5.56-3.99,8.54
				c-1.35,3.84-2.17,7.84-2.43,11.9c-0.07,1.14-0.35,2.58-0.37,3.86l0.39,0.46C389.95,259.66,391.87,257.15,394.73,254.27z"/>
			<path class="st16" d="M417.79,254.56c-0.71-0.86-5.6,2.03-10.92,6.45c-5.32,4.42-9.05,8.7-8.34,9.55
				c0.71,0.86,5.6-2.03,10.92-6.45C414.77,259.7,418.5,255.42,417.79,254.56z"/>
		</g>
		<g>
			<path class="st16" d="M404.68,416.84c0,0,11.84-17.68,24-7.83c4.22,3.42,6.58,8.64,6.67,14.07c0.16,9.23-3.3,24.48-27.32,26.91
				c-34.82,3.51-35.67-19.29-33.92-30.55C375.86,408.18,392.74,401.18,404.68,416.84z"/>
			<path class="st35" d="M398.04,410.58c-10.76-6.81-22.48-0.42-23.93,8.86c-0.51,3.25-0.79,7.45-0.11,11.71
				C385.2,430.72,395.5,421.36,398.04,410.58z"/>
			<path class="st14" d="M428.68,409.01c-0.34-0.28-0.69-0.53-1.03-0.77c0.39,2.26,0.54,4.53,0.46,6.65
				c-0.28,7.66-4.5,14.25-9.71,19.6c-6.12,6.29-13.25,11.84-21.4,15.22c-0.32,0.13-0.64,0.26-0.97,0.39
				c3.46,0.36,7.44,0.35,11.99-0.11c24.02-2.42,27.48-17.68,27.32-26.91C435.25,417.64,432.9,412.43,428.68,409.01z"/>
			<path class="st25" d="M404.68,416.84c0,0-7.82-20.97,14.12-28.01C418.8,388.83,431.41,408.76,404.68,416.84z"/>
			<path class="st25" d="M411.68,404.28c-2.01,1.85-5.17,4.3-8.33,5.19c0.17,4.24,1.33,7.37,1.33,7.37
				c21.33-6.45,17.61-20.44,15.23-25.83C418.6,396.09,415.34,400.91,411.68,404.28z"/>
			<path class="st25" d="M404.68,416.84c0,0,5.3-23.9-11-32.62C393.68,384.22,404.93,392.24,404.68,416.84z"/>
		</g>
		<g>
			<g>
				<path class="st36" d="M118.19,230.66l12.82,30.86c1.3,3.13,14,0.84,28.35-5.12c14.36-5.96,24.94-13.34,23.64-16.47l-12.82-30.86
					L118.19,230.66z"/>
				<polygon class="st26" points="135.02,197.8 87.84,243.26 153.35,241.92 200.53,196.46 				"/>
				<g>
					<g>
						<path class="st19" d="M180.5,231.07l-2.01,0.84l-3.9-9.38c-0.13-0.31-0.43-0.53-0.77-0.54l-29.67-1.04l0.08-2.18l29.67,1.04
							c1.19,0.04,2.25,0.78,2.71,1.88L180.5,231.07z"/>
					</g>
				</g>
				<path class="st20" d="M180.72,231.88l-0.9,0.37l-0.9,0.37c-0.51,0.8-0.6,1.79-0.24,2.67l2.04,4.92l2.05-0.85l2.05-0.85
					l-2.04-4.92C182.41,232.73,181.64,232.08,180.72,231.88z"/>
				<path class="st20" d="M178.91,232.63l1.8-0.75c0.63-0.26,0.93-0.99,0.67-1.62l-0.69-1.65c-0.26-0.63-0.99-0.93-1.62-0.67
					l-1.8,0.75c-0.63,0.26-0.93,0.99-0.67,1.62l0.69,1.65C177.55,232.6,178.28,232.9,178.91,232.63z"/>
				<path class="st20" d="M141.73,217.86L141.73,217.86c-2.96,1.96-2.03,4.21,1.45,3.49l0,0c0.96-0.2,1.95-0.61,2.77-1.15l0,0
					c2.96-1.96,2.03-4.21-1.45-3.49l0,0C143.54,216.91,142.55,217.32,141.73,217.86z"/>
				<path class="st20" d="M142.1,217.94L142.1,217.94c-2.41,1.41-1.89,2.67,0.81,1.95l0,0c0.75-0.2,1.53-0.52,2.2-0.91l0,0
					c2.41-1.41,1.89-2.67-0.81-1.95l0,0C143.55,217.22,142.76,217.55,142.1,217.94z"/>
			</g>
		</g>
		<g>
			<g>
				<path class="st37" d="M75,278.2L75,278.2c-1.47,0.38-3.57-2.78-4.68-7.07c-1.11-4.28-0.81-8.07,0.66-8.45l0,0l-0.83-3.22
					l-5.22,1.35l5.68,21.96l5.22-1.35L75,278.2z"/>
				
					<rect x="64.03" y="255.87" transform="matrix(0.9681 -0.2505 0.2505 0.9681 -62.2551 24.9115)" class="st37" width="5.39" height="2.26"/>
				<polygon class="st37" points="76.36,283.47 71.14,284.82 71.71,287.01 71.71,287.01 76.93,285.66 				"/>
				<path class="st38" d="M67.49,249.19l-4.41,1.14c-0.45,0.12-0.72,0.57-0.6,1.02l1.35,5.22l5.22-1.35L67.49,249.19z"/>
				<polygon class="st38" points="71.71,287.01 72.36,289.53 79.06,298.2 80.1,297.93 76.93,285.66 				"/>
				
					<rect x="64.58" y="258.06" transform="matrix(0.9681 -0.2505 0.2505 0.9681 -62.767 25.1157)" class="st23" width="5.39" height="2.11"/>
				
					<rect x="70.79" y="282.07" transform="matrix(0.9681 -0.2505 0.2505 0.9681 -68.5847 27.4383)" class="st23" width="5.39" height="2.11"/>
				<path class="st39" d="M70.15,259.46l5.22-1.35l5.68,21.96l-5.22,1.35L75,278.2c1.47-0.38,1.77-4.16,0.66-8.45
					c-1.11-4.28-3.2-7.45-4.68-7.07L70.15,259.46z M76.93,285.66l5.22-1.35l-0.57-2.19l-5.22,1.35L76.93,285.66z M69.05,255.23
					l0.57,2.19l5.22-1.35l-0.57-2.19L69.05,255.23z"/>
				<path class="st40" d="M74.28,253.88l-1.35-5.22c-0.12-0.45-0.57-0.72-1.02-0.6l-4.41,1.14l1.56,6.03L74.28,253.88z"/>
				<polygon class="st40" points="82.8,286.83 82.15,284.31 82.15,284.31 76.93,285.66 80.1,297.93 81.15,297.66 				"/>
				<path class="st23" d="M70.98,262.69c-1.47,0.38-1.77,4.16-0.66,8.45c1.11,4.28,3.2,7.45,4.68,7.07
					c1.47-0.38,1.77-4.16,0.66-8.45C74.55,265.47,72.46,262.3,70.98,262.69z"/>
				
					<rect x="69.8" y="256.71" transform="matrix(0.9681 -0.2505 0.2505 0.9681 -62.2631 26.3813)" class="st23" width="5.39" height="2.11"/>
				
					<rect x="76.01" y="280.72" transform="matrix(0.9681 -0.2505 0.2505 0.9681 -68.0797 28.7034)" class="st23" width="5.39" height="2.11"/>
			</g>
		</g>
		<g>
			<g>
				<path class="st10" d="M154.12,138.86c0,0-23.84-3.52-36.07,20.27c0,0,16.13-12.14,30.55-7.82L154.12,138.86z"/>
				<path class="st10" d="M169.85,157.28c0,0-0.26,24.1-25.67,32.45c0,0,14.52-14.03,12.51-28.94L169.85,157.28z"/>
				<path class="st25" d="M143.81,153.38c12.37-32.67,46.01-44.53,69.4-49.06c-8.14,22.39-25.11,53.76-59.32,60.87L143.81,153.38z"
					/>
				<path class="st26" d="M213.21,104.32l-64.36,54.96l5.04,5.91C188.1,158.08,205.08,126.72,213.21,104.32z"/>
				<polygon class="st10" points="148.85,159.28 143.81,153.38 139.89,160.85 142.9,164.37 145.9,167.89 153.9,165.19 				"/>
				<path class="st19" d="M192.87,131.98c-3.29,2.81-8.22,2.42-11.03-0.87c-2.81-3.29-2.42-8.22,0.87-11.03
					c3.29-2.81,8.22-2.42,11.03,0.87S196.15,129.18,192.87,131.98z"/>
				<path class="st20" d="M191.38,130.24c-2.32,1.98-5.81,1.71-7.8-0.61c-1.98-2.32-1.71-5.81,0.61-7.8
					c2.32-1.98,5.81-1.71,7.8,0.61C193.98,124.77,193.7,128.26,191.38,130.24z"/>
				<path class="st19" d="M191.23,128.18c-0.83,0.71-2.08,0.61-2.79-0.22c-0.71-0.83-0.61-2.08,0.22-2.79
					c0.83-0.71,2.08-0.61,2.79,0.22C192.16,126.22,192.06,127.47,191.23,128.18z"/>
			</g>
		</g>
		<g>
			<g>
				<polygon class="st41" points="426.69,144.49 426.63,169.95 355.45,100.84 				"/>
				<g>
					<polygon class="st23" points="421.29,149.4 398.67,169.95 355.45,100.84 					"/>
					<polygon class="st23" points="426.69,144.49 355.45,100.84 447.15,125.89 					"/>
				</g>
				<polygon class="st42" points="421.29,149.4 426.63,169.95 412.32,157.54 				"/>
			</g>
		</g>
	</g>
	<g>
		<text transform="matrix(0.9942 -0.1077 0.1077 0.9942 43.2644 180.718)" class="st23 st43 st44">a2 – b2 = (a – b)(a + b)</text>
		<text transform="matrix(0.9028 0.43 -0.43 0.9028 419.4741 189.7299)" class="st23 st43 st45">abc</text>
		<g>
			<text transform="matrix(0.9978 0.0667 -0.0667 0.9978 227.4797 136.6748)" class="st23 st43 st46">e=mc</text>
			<text transform="matrix(0.9848 0.1738 -0.1738 0.9848 241.4176 130.0697)" class="st23 st43 st47">2</text>
		</g>
		<text transform="matrix(0.9978 0.0667 -0.0667 0.9978 404.4755 103.5979)" class="st23 st43 st46">a+b</text>
		<text transform="matrix(0.9604 -0.2787 0.2787 0.9604 71.7081 469.9328)" class="st23 st43 st46">Celcius </text>
		<g>
			<text transform="matrix(0.994 0.109 -0.109 0.994 426.6254 282.7766)" class="st23 st43 st46">2+3=5</text>
		</g>
		<g>
			<text transform="matrix(0.9753 -0.2209 0.2209 0.9753 139.8887 281.8223)" class="st23 st43 st46">2+2=4</text>
		</g>
		<g>
			<g>
				<text transform="matrix(0.9898 -0.1424 0.1424 0.9898 328.6083 237.4268)" class="st23 st43 st48">x</text>
			</g>
			<g>
				<text transform="matrix(0.9898 -0.1424 0.1424 0.9898 336.7009 231.2635)" class="st23 st43 st49">2</text>
			</g>
		</g>
		<g>
			<text transform="matrix(1 0 0 1 47.783 329.3758)" class="st23 st43 st46">Cos</text>
		</g>
		<g>
			<text transform="matrix(0.9475 0.3198 -0.3198 0.9475 361.6872 464.3448)" class="st23 st43 st46">Tan</text>
		</g>
		<g>
			<text transform="matrix(0.8645 -0.5026 0.5026 0.8645 86.7859 101.9661)" class="st23 st43 st50">90</text>
			<circle class="st51" cx="98.45" cy="86.66" r="1.11"/>
		</g>
	</g>
	<g>
		<g>
			<path class="st14" d="M380.84,304.06c-3.02-8.16-6.93-16.11-12.64-22.67c-7.97-9.15-18.92-15.04-29-21.79
				c-10.08-6.75-19.94-15.18-23.68-26.73c-3.82-11.82-0.64-31.12-2.3-43.43c-2.97-21.99-22.81-38.34-53.28-36.66l-12.86,22.45
				c-1.16,6.18-5.21,11.34-9.01,16.35c-13.17,17.35-24.69,35.96-34.35,55.49c-4.57,9.24-8.75,18.77-11.03,28.83
				c-6.11,27.02,2.91,56.96,22.94,76.1c13.38,12.78,30.89,20.64,48.92,24.77c18.04,4.13,36.69,4.74,55.19,4.56
				c10.2-0.1,20.5-0.46,30.39-2.95c9.89-2.49,19.46-7.3,26.09-15.05c6.76-7.9,10.02-18.4,10.35-28.79
				C386.89,324.13,384.45,313.81,380.84,304.06z"/>
		</g>
		<g>
			<path class="st52" d="M195.09,424.32c0,0-24.93-11.01-35.72,0.03c-5.83,5.97-5.42,26.58,6.53,27.92
				c11.95,1.34,41.71-4.39,41.71-4.39L195.09,424.32z"/>
			<path class="st53" d="M197.92,421.2c0,0-30.37-5.26-35.59,1.25c-5.22,6.51-5.55,25.36,6.4,26.7c11.95,1.34,41.71-4.39,41.71-4.39
				L197.92,421.2z"/>
			<path class="st52" d="M200,419.9c0,0-30.37-5.26-35.59,1.25c-5.22,6.51-5.55,25.36,6.4,26.7c11.95,1.34,41.71-4.39,41.71-4.39
				L200,419.9z"/>
			<path class="st54" d="M185.61,435.42c0.11-6.87-2.48-12.97-6.74-17.53c9.96,0.07,21.13,2,21.13,2l12.52,23.56
				c0,0-16.97,3.27-30.43,4.29C184.25,444.03,185.54,439.79,185.61,435.42z"/>
			<g>
				<path class="st52" d="M195.09,424.32c0,0-24.93-11.01-35.72,0.03c-5.83,5.97-5.42,26.58,6.53,27.92
					c11.95,1.34,41.71-4.39,41.71-4.39L195.09,424.32z"/>
				<path class="st53" d="M197.92,421.2c0,0-30.37-5.26-35.59,1.25c-5.22,6.51-5.55,25.36,6.4,26.7
					c11.95,1.34,41.71-4.39,41.71-4.39L197.92,421.2z"/>
				<path class="st52" d="M200,419.9c0,0-30.37-5.26-35.59,1.25c-5.22,6.51-5.55,25.36,6.4,26.7c11.95,1.34,41.71-4.39,41.71-4.39
					L200,419.9z"/>
				<path class="st54" d="M185.61,435.42c0.11-6.87-2.48-12.97-6.74-17.53c9.96,0.07,21.13,2,21.13,2l12.52,23.56
					c0,0-16.97,3.27-30.43,4.29C184.25,444.03,185.54,439.79,185.61,435.42z"/>
			</g>
			<g>
				<path class="st52" d="M185.38,424.13c1.97,4.64,5.28,9.69,3.23,14.84c-0.78,1.95,2.37,2.8,3.15,0.87
					c2.41-6.03-1.24-11.9-3.56-17.35C187.38,420.56,184.57,422.22,185.38,424.13L185.38,424.13z"/>
			</g>
			<g>
				<path class="st52" d="M190.49,421.84c0.94,2.38,2.84,4.14,3.54,6.64c0.92,3.28,0.42,6.7-0.35,9.94
					c-0.49,2.04,2.66,2.91,3.15,0.87c0.78-3.27,1.21-6.51,0.69-9.86c-0.2-1.27-0.48-2.5-1-3.68c-0.76-1.72-2.2-3.03-2.88-4.77
					C192.87,419.04,189.71,419.88,190.49,421.84L190.49,421.84z"/>
			</g>
		</g>
		<g class="st55">
			<path d="M209.99,443.92c0.1-0.02,0.19-0.03,0.28-0.05c0.01,0,0.01,0,0.02,0c0.17-0.03,0.33-0.06,0.48-0.09
				c0.07-0.01,0.13-0.02,0.2-0.04c0.12-0.02,0.24-0.04,0.35-0.06c0.11-0.02,0.2-0.04,0.29-0.05c0.46-0.08,0.74-0.14,0.84-0.16
				c0.01,0,0.01,0,0.02,0c0.01,0,0.04-0.01,0.04-0.01l-9.89-18.61L200,419.9c0,0-0.12-0.02-0.33-0.05c-0.02,0-0.04-0.01-0.06-0.01
				c-0.06-0.01-0.14-0.02-0.22-0.04c-0.11-0.02-0.24-0.04-0.38-0.06c-0.05-0.01-0.1-0.02-0.15-0.02
				c-3.07-0.48-11.92-1.76-19.99-1.82h0l0,0c-6.12-0.04-11.77,0.62-14.09,2.87c-0.47,0.2-0.91,0.42-1.28,0.67
				c-1.51,0.73-2.9,1.68-4.11,2.92c-5.83,5.97-5.42,26.58,6.53,27.92c11.95,1.34,41.71-4.39,41.71-4.39l-1.26-2.38
				c2.53-0.44,4.09-0.74,4.09-0.74L209.99,443.92z"/>
		</g>
		<path class="st19" d="M319.35,383.74c0,0,31.27,4.38,30.43,20.77c-0.84,16.38-7.9,32.75-87.37,42.42
			c-39.94,4.86-62.95,5.16-62.95,5.16l-6.32-35.99C193.15,416.09,290.08,382.89,319.35,383.74z"/>
		<g>
			<path class="st52" d="M298.82,420.32c0,0,25.47-9.72,35.67,1.86c5.52,6.26,4.05,26.82-7.95,27.54c-12,0.72-41.43-6.52-41.43-6.52
				L298.82,420.32z"/>
			<path class="st53" d="M296.16,417.06c0,0,30.6-3.69,35.48,3.07c4.88,6.77,4.24,25.61-7.76,26.34c-12,0.72-41.43-6.52-41.43-6.52
				L296.16,417.06z"/>
			<path class="st52" d="M294.15,415.65c0,0,30.6-3.69,35.48,3.07c4.88,6.77,4.24,25.61-7.76,26.34c-12,0.72-41.43-6.52-41.43-6.52
				L294.15,415.65z"/>
			<path class="st54" d="M307.73,431.89c0.24-6.87,3.14-12.82,7.63-17.16c-9.95-0.44-21.21,0.92-21.21,0.92l-13.71,22.89
				c0,0,16.78,4.13,30.17,5.84C308.64,440.56,307.57,436.26,307.73,431.89z"/>
			<g>
				<path class="st52" d="M298.82,420.32c0,0,25.47-9.72,35.67,1.86c5.52,6.26,4.05,26.82-7.95,27.54
					c-12,0.72-41.43-6.52-41.43-6.52L298.82,420.32z"/>
				<path class="st53" d="M296.16,417.06c0,0,30.6-3.69,35.48,3.07c4.88,6.77,4.24,25.61-7.76,26.34c-12,0.72-41.43-6.52-41.43-6.52
					L296.16,417.06z"/>
				<path class="st52" d="M294.15,415.65c0,0,30.6-3.69,35.48,3.07c4.88,6.77,4.24,25.61-7.76,26.34c-12,0.72-41.43-6.52-41.43-6.52
					L294.15,415.65z"/>
				<path class="st56" d="M307.73,431.89c0.24-6.87,3.14-12.82,7.63-17.16c-9.95-0.44-21.21,0.92-21.21,0.92l-13.71,22.89
					c0,0,16.78,4.13,30.17,5.84C308.64,440.56,307.57,436.26,307.73,431.89z"/>
			</g>
			<path class="st55" d="M334.49,422.18c-1.14-1.3-2.49-2.32-3.96-3.12c-0.37-0.27-0.79-0.51-1.25-0.73
				c-0.8-0.86-2.06-1.54-3.63-2.06c2.38,8.44-0.37,22.4-10.22,23c-7.83,0.47-23.06-2.45-32.72-4.53l-2.28,3.8
				c0,0,0.57,0.14,1.57,0.38c0.04,0.01,0.08,0.02,0.13,0.03c0.24,0.06,0.51,0.12,0.8,0.19l-0.49,0.82c0,0,1.54,0.38,4.05,0.95
				l-1.38,2.31c0,0,29.43,7.25,41.43,6.52C338.54,449,340.01,428.44,334.49,422.18z"/>
			<g>
				<path class="st52" d="M305.76,418.91c-2.61,5.36-6.48,10.98-4.38,17.16c0.67,1.98,3.83,1.13,3.14-0.87
					c-1.78-5.22,1.85-10.14,4.05-14.64C309.49,418.68,306.68,417.02,305.76,418.91L305.76,418.91z"/>
			</g>
			<g>
				<path class="st52" d="M300.59,416.74c-1.35,2.96-3.61,4.82-4.37,8.17c-0.79,3.46-0.51,6.89,0.13,10.35
					c0.38,2.06,3.53,1.19,3.14-0.87c-0.59-3.18-0.82-6.36,0.08-9.51c0.73-2.56,2.75-4.14,3.83-6.49
					C304.28,416.49,301.47,414.83,300.59,416.74L300.59,416.74z"/>
			</g>
		</g>
		<path class="st19" d="M176.81,373.41c0,0-31.45,2.77-31.45,19.18c0,16.41,6.21,33.12,85.07,46.85c39.64,6.9,62.6,8.38,62.6,8.38
			l8.15-35.62C301.19,412.2,206.09,374.07,176.81,373.41z"/>
		<path class="st20" d="M235.36,423.83c-70.18-12.22-82.83-26.8-84.76-41.42c-3.12,2.61-5.24,5.93-5.24,10.18
			c0,16.41,6.21,33.12,85.07,46.85c39.64,6.9,62.6,8.38,62.6,8.38l3.59-15.7C291.24,431.7,269.49,429.78,235.36,423.83z"/>
		<g>
			<path class="st31" d="M247.65,256.97v13.59l-12.77,3.53c0,0,0,16.04,20.43,16.04c22.45,0,20.34-17.94,20.34-17.94l-12.77-1.82
				l-0.54-13.4H247.65z"/>
			<path class="st57" d="M202.53,283.06c0,0,11.14-11.61,32.34-11.6c0,0,6.99,15.41,21.98,13.24c0,0,18.86-3.43,18.79-13.24
				c0,0,29.9-1.44,36.96,32.26c7.07,33.7-48.42,61.97-81.83,54.9c-33.41-7.07-51.89-47.83-51.89-47.83L202.53,283.06z"/>
			<path class="st58" d="M312.6,303.72c-7.07-33.7-36.96-32.26-36.96-32.26c0.04,5.3-5.46,8.74-10.52,10.78
				c-3.19,12.91-10.38,25.01-19.77,32.52c-8.53,6.82-17.51,11.86-27.64,15.81c-5.82,2.27-11.68,4.42-17.59,6.46
				c-0.92,0.32-1.83,0.64-2.75,0.96c8.44,9.13,19.65,17.73,33.39,20.64C264.18,365.69,319.67,337.42,312.6,303.72z"/>
		</g>
		<path class="st30" d="M229.65,179.57c0,0-30.3,45.63-16.58,67.38c12.83,20.35,71.83,34.05,82.53-15.15c0,0,12.12,4.46,12.83-8.82
			c0.71-13.28-9.98-12.57-9.98-12.57s4.28-27.09-14.97-34.22C264.23,169.06,246.76,157.47,229.65,179.57z"/>
		<path class="st31" d="M298.45,210.41c0,0,4.28-27.09-14.97-34.22c-12.7-4.7-24.62-11.34-36.17-8.97
			c8.18,1.97,15.22,6.94,19.85,15.1c3.64,6.42,4.47,13.21,6.41,20.12c2.74,9.75,4.99,21.89,0.8,31.62
			c-4.19,9.73-10.19,18.54-20.3,22.89c-7.35,3.16-15.37,4.65-23.21,3.58c22.54,9.65,56.84,7.66,64.74-28.71
			c0,0,12.12,4.46,12.83-8.82C309.15,209.7,298.45,210.41,298.45,210.41z"/>
		<path class="st16" d="M297.93,166.71c-64.24-41.53-93.5,22.31-93.5,22.31c14.13,15.76,41.31,13.59,41.31,13.59l-7.07,6.16
			c23.37,7.84,39.07-7.25,39.07-7.25v7.25c5.89-1.9,9.51-5.48,11.74-9.07c2.93,5.79,2.85,17.12,2.46,23.03c0,0,15.06-7.32,17-24.07
			C310.97,181.15,303.03,169.68,297.93,166.71z"/>
		<path class="st59" d="M253.54,177.85c-0.11-1.11-0.22-2.22-0.33-3.33c0.12,1.56,0.17,3.08,0.12,4.57
			C253.4,178.68,253.47,178.26,253.54,177.85z"/>
		<path class="st14" d="M297.93,166.71c-14.4-9.31-27.04-13.31-37.99-13.94c1.01,0.77,2.17,1.78,3.95,3.34
			c6.35,5.54,7.95,13.9,8.62,21.78c0.58,6.81-2.11,13.54-3.47,20.14c-0.93,4.53-4.22,8.84-8.01,11.96
			c10.47-2.47,16.72-8.46,16.72-8.46v7.25c5.89-1.9,9.51-5.48,11.74-9.07c2.93,5.79,2.85,17.12,2.46,23.03c0,0,15.06-7.32,17-24.07
			C310.97,181.15,303.03,169.68,297.93,166.71z"/>
		<path class="st32" d="M218.73,208.78c0,0,0.02,0.64,0.07,1.76c0.06,1.1,0.13,2.67,0.35,4.45c0.22,1.77,0.59,3.84,1.45,5.52
			c0.21,0.42,0.46,0.8,0.72,1.15c0.29,0.32,0.57,0.64,0.9,0.87c0.63,0.49,1.46,0.8,2.35,0.93l0.46,0.07c0.12,0.01,0.2,0.01,0.3,0.01
			c0.17,0.02,0.4,0.01,0.64,0c0.46-0.02,0.91-0.09,1.37-0.19c0.9-0.24,1.81-0.64,2.66-1.17c1.72-1.05,3.22-2.49,4.46-3.8
			c1.24-1.32,2.24-2.52,2.94-3.37c0.7-0.87,1.1-1.37,1.1-1.37s-0.05,0.65-0.33,1.75c-0.27,1.1-0.75,2.66-1.65,4.42
			c-0.9,1.75-2.19,3.76-4.26,5.48c-1.04,0.85-2.28,1.62-3.74,2.09c-0.73,0.22-1.49,0.41-2.28,0.45c-0.39,0.03-0.78,0.05-1.23,0.02
			c-0.21-0.01-0.45-0.02-0.63-0.04l-0.46-0.07c-1.57-0.26-3.16-0.87-4.4-1.99c-1.25-1.08-2.06-2.48-2.5-3.81
			c-0.46-1.33-0.61-2.62-0.64-3.8c-0.02-1.18,0.08-2.27,0.24-3.25c0.33-1.96,0.87-3.49,1.31-4.54
			C218.38,209.33,218.73,208.78,218.73,208.78z"/>
		<path class="st32" d="M260.21,215.82c0,0,0.08,0.63,0.21,1.74c0.15,1.09,0.35,2.65,0.71,4.41c0.37,1.75,0.9,3.78,1.9,5.39
			c0.25,0.4,0.53,0.76,0.81,1.09c0.31,0.3,0.62,0.59,0.97,0.79c0.67,0.44,1.52,0.68,2.42,0.74l0.47,0.04c0.12,0,0.2-0.01,0.3-0.01
			c0.18,0.01,0.4-0.02,0.63-0.05c0.45-0.06,0.9-0.16,1.35-0.3c0.88-0.31,1.75-0.79,2.56-1.38c1.63-1.19,3.01-2.75,4.14-4.15
			c1.13-1.41,2.02-2.69,2.66-3.6c0.63-0.92,0.99-1.45,0.99-1.45s0,0.65-0.19,1.77c-0.18,1.12-0.54,2.71-1.28,4.54
			c-0.75,1.82-1.88,3.93-3.81,5.81c-0.96,0.93-2.15,1.8-3.55,2.39c-0.71,0.28-1.45,0.53-2.23,0.63c-0.38,0.06-0.77,0.11-1.22,0.12
			c-0.21,0.01-0.45,0.01-0.64,0.01l-0.47-0.03c-1.58-0.13-3.22-0.61-4.54-1.63c-1.34-0.97-2.26-2.31-2.8-3.6
			c-0.56-1.29-0.82-2.56-0.95-3.74c-0.12-1.18-0.1-2.27-0.02-3.25c0.17-1.98,0.59-3.55,0.94-4.63
			C259.91,216.4,260.21,215.82,260.21,215.82z"/>
		<path class="st31" d="M245.78,226.72c0,0-4.43-5.72-5.79-0.59c-0.74,2.79-4.13,4.46-5.89,4.35c-4.41-0.29-4.46,4.02,0,6.79
			C240.85,241.48,248.19,232.79,245.78,226.72z"/>
		<path class="st32" d="M238.22,244.41c0,0,0.45,0.08,1.22,0.23c0.38,0.08,0.86,0.13,1.38,0.23c0.54,0.06,1.12,0.17,1.76,0.23
			c0.32,0.04,0.65,0.08,0.99,0.12c0.34,0.03,0.7,0.05,1.06,0.08c0.72,0.09,1.48,0.05,2.26,0.11c0.78-0.04,1.58,0.01,2.38-0.08
			c0.4-0.03,0.8-0.08,1.21-0.1c0.4-0.03,0.8-0.13,1.2-0.18c0.81-0.08,1.59-0.31,2.36-0.49c0.79-0.14,1.5-0.49,2.25-0.69
			c0.38-0.1,0.72-0.26,1.06-0.41c0.34-0.15,0.68-0.29,1.01-0.44c0.69-0.24,1.26-0.62,1.83-0.91c0.29-0.15,0.56-0.29,0.83-0.42
			c0.28-0.12,0.52-0.26,0.74-0.41c0.44-0.29,0.85-0.53,1.19-0.73c0.68-0.4,1.1-0.61,1.1-0.61s-0.21,0.4-0.65,1.07
			c-0.22,0.33-0.48,0.75-0.82,1.2c-0.3,0.49-0.78,0.9-1.26,1.41c-0.5,0.48-1.02,1.06-1.69,1.5c-0.33,0.23-0.67,0.47-1.02,0.72
			c-0.35,0.25-0.72,0.48-1.12,0.67c-0.4,0.2-0.81,0.39-1.23,0.59l-0.63,0.29l-0.67,0.21c-0.9,0.29-1.82,0.56-2.77,0.68
			c-0.47,0.06-0.94,0.16-1.42,0.18c-0.47,0.02-0.95,0.02-1.41,0.03c-0.47,0.03-0.93-0.01-1.38-0.06c-0.45-0.04-0.9-0.08-1.34-0.14
			c-0.86-0.18-1.7-0.32-2.46-0.58c-0.38-0.13-0.75-0.24-1.1-0.37c-0.35-0.15-0.68-0.29-1-0.43c-0.64-0.26-1.19-0.61-1.68-0.87
			c-0.48-0.29-0.89-0.56-1.21-0.81C238.54,244.75,238.22,244.41,238.22,244.41z"/>
		<g>
			<path class="st60" d="M187.44,298.87l2.03-21.84c0,0,67.03,42.62,65.58,60.3C253.6,355.01,187.44,298.87,187.44,298.87z"/>
			<path class="st15" d="M180.96,297.21l2.03-21.84c0,0,71.25,42.99,69.81,60.68C251.36,353.73,180.96,297.21,180.96,297.21z"/>
			<path class="st60" d="M176.81,300.5v-21.93c0,0,74.94,36.52,75.14,54.26C252.16,350.57,176.81,300.5,176.81,300.5z"/>
			<path class="st15" d="M173.26,302.93V281c0,0,74.94,36.52,75.14,54.26C248.61,352.99,173.26,302.93,173.26,302.93z"/>
			<path class="st60" d="M320.31,310.23l-0.67-21.92c0,0-72.24,38.48-71.9,56.21C248.08,362.26,320.31,310.23,320.31,310.23z"/>
			<path class="st15" d="M327.13,308.97l-0.67-21.92c0,0-76.64,38.59-76.31,56.33C250.49,361.11,327.13,308.97,327.13,308.97z"/>
			<path class="st60" d="M331.21,312.5l1.44-21.89c0,0-80.03,31.91-81.41,49.6C249.87,357.91,331.21,312.5,331.21,312.5z"/>
			<path class="st15" d="M334.73,315.14l1.44-21.89c0,0-80.03,31.91-81.41,49.6C253.39,360.55,334.73,315.14,334.73,315.14z"/>
			<path class="st10" d="M339.24,299.86l-73.47,28.84l-0.14,0.68c0,0,0.45,1.46-1.9,1.9c-4.71,0.88-14.02,1.03-23.1-3.13
				c-0.91-0.42,0.37-2.07-0.54-2.58l-70.34-38.77l-4.54,0.18l66.58,113.76l-0.22,2.5c0,0,8.41,9.27,27.65,4.12l0.27-2.66
				l84.55-103.94L339.24,299.86z"/>
			<polygon class="st10" points="165.2,286.98 237.5,327.74 233.79,408.74 160.31,372.26 			"/>
			<polygon class="st11" points="344.04,300.75 267.94,330.87 257.34,412.2 337.43,385.92 			"/>
			<path class="st11" d="M237.5,329.38l-7.07,82.08c0,0,8.87,9.78,29.17,4.35l8.34-83.17C267.94,332.64,252.95,338.09,237.5,329.38z
				"/>
			<path class="st10" d="M266.18,350.22l0.36-3.6c-19.28,4.29-28.65-3.9-30.07-5.29l-0.51,5.87
				C249.18,353.67,261.68,351.4,266.18,350.22z"/>
			<path class="st10" d="M265.2,361.58l0.36-3.6c-19.28,4.29-28.65-3.9-30.07-5.29l-0.5,5.87
				C248.2,365.02,260.7,362.75,265.2,361.58z"/>
			<polygon class="st10" points="279.85,353.38 328.41,338.96 324.42,379.18 277.31,392.59 			"/>
			<polygon class="st10" points="280.32,337.46 328.88,323.03 327.04,332.48 279.93,345.88 			"/>
		</g>
		<path class="st30" d="M159.79,310.32c0,0,0.37-5.34,4.47-5.32c4.09,0.03,14.56,5.35,12.23,6.99c-2.33,1.65-11.67-0.24-11.67-0.24
			s11.83,5.68,8.67,7.03c-3.16,1.35-10.4-0.59-10.4-0.59s22.59,11.2,0.15,6.15c0,0,15.32,12.72-1.93,4.28c0,0-4.82-4.41-2.26-8.64
			C159.03,319.99,155.32,315.64,159.79,310.32z"/>
		<path class="st30" d="M348.32,328.81c0,0,1.13-5.24-2.8-6.35c-3.94-1.12-15.47,1.06-13.69,3.3c1.78,2.23,11.27,3.03,11.27,3.03
			s-12.95,2.15-10.29,4.33s10.15,2.35,10.15,2.35s-24.82,4.44-1.87,5.86c0,0-18.26,7.93,0.66,4.65c0,0,5.86-2.89,4.59-7.66
			C346.33,338.31,351.12,335.16,348.32,328.81z"/>
	</g>
</g>
<g id="DESIGNED_BY_FREEPIK" class="st61">
	<g class="st62">
		<g>
			<g id="XMLID_197_">
				<g id="XMLID_216_">
					<path id="XMLID_224_" d="M260.1,465.47c-0.43,0.44-0.8,0.93-1.11,1.45l-0.47-0.24c-0.07-0.3-0.35-0.5-0.66-0.47
						c-0.33,0.04-0.57,0.34-0.53,0.67c0.04,0.33,0.34,0.57,0.67,0.53c0.07-0.01,0.13-0.03,0.18-0.05l0.45,0.23
						c-0.25,0.55-0.43,1.14-0.54,1.74l0.75,0.13c0.23-1.31,0.85-2.51,1.79-3.47L260.1,465.47z"/>
					<path id="XMLID_223_" d="M265.59,463.16c-0.17,0-0.34,0.01-0.51,0.02l-0.07-0.63c0.19-0.15,0.3-0.39,0.27-0.64
						c-0.05-0.39-0.4-0.67-0.8-0.63c-0.39,0.05-0.67,0.4-0.63,0.8c0.03,0.25,0.19,0.46,0.4,0.56l0.07,0.62
						c-0.71,0.12-1.4,0.33-2.06,0.65l0.33,0.68c0.93-0.45,1.94-0.67,3-0.67c0.5,0,0.99,0.05,1.48,0.16l0.16-0.74
						C266.69,463.22,266.14,463.16,265.59,463.16z"/>
					<path id="XMLID_222_" d="M272.19,465.71c0.33-0.04,0.57-0.34,0.53-0.67c-0.04-0.33-0.34-0.57-0.67-0.53
						c-0.31,0.04-0.54,0.3-0.53,0.61l-0.42,0.36c-0.42-0.43-0.89-0.81-1.41-1.14l-0.4,0.64c1.13,0.71,2.02,1.73,2.56,2.93l0.69-0.31
						c-0.25-0.55-0.57-1.07-0.94-1.55l0.4-0.35C272.06,465.72,272.13,465.72,272.19,465.71z"/>
					<path id="XMLID_221_" d="M265.04,473.37c-0.39,0.02-0.77,0.03-1.16,0.03c-0.88,0-1.73-0.06-2.48-0.18
						c-0.39-0.06-0.85-0.15-1.27-0.29c1.05,1.86,3.07,3.13,5.39,3.13c2.86,0,5.26-1.92,5.95-4.5c-0.68,0.45-1.51,0.83-2.46,1.12
						C267.84,473.05,266.46,473.29,265.04,473.37z"/>
					<path id="XMLID_217_" d="M265.59,464.68c-3.35,0-6.08,2.67-6.08,5.94c0,0.43,0.05,0.85,0.14,1.26
						c0.67,0.48,2.71,0.89,5.35,0.73c2.88-0.17,5.3-0.96,6.67-2.16c-0.01-0.19-0.02-0.39-0.05-0.58
						C271.24,466.91,268.65,464.68,265.59,464.68z M263.43,471.19c-1.02,0-1.85-0.83-1.85-1.85c0-1.02,0.83-1.85,1.85-1.85
						c1.02,0,1.85,0.83,1.85,1.85C265.28,470.36,264.45,471.19,263.43,471.19z M268.17,470.29c-0.75,0-1.36-0.61-1.36-1.36
						s0.61-1.36,1.36-1.36c0.75,0,1.36,0.61,1.36,1.36S268.92,470.29,268.17,470.29z"/>
				</g>
				<path id="XMLID_214_" d="M281.6,466.55c-0.29-0.12-0.81-0.31-1.38-0.24c-0.55,0.07-0.84,0.34-0.84,1.01v0.87h2.23v1.72h-2.23
					v5.45h-1.93v-5.45h-1.34v-1.72h1.34v-0.89c0-1.68,0.9-2.78,2.57-2.78c0.64,0,1.16,0.12,1.59,0.31L281.6,466.55z"/>
				<path id="XMLID_212_" d="M286.3,469.88c-0.18-0.03-0.36-0.05-0.53-0.05c-0.9,0-1.51,0.55-1.51,1.61v3.91h-1.93v-7.17h1.87v0.78
					c0.45-0.67,1.14-0.98,2.02-0.98c0.41,0,0.85,0.13,1.09,0.34L286.3,469.88z"/>
				<path id="XMLID_209_" d="M293.97,471.76c0,0.22-0.01,0.49-0.04,0.65h-5.08c0.21,1.04,0.93,1.49,1.84,1.49
					c0.62,0,1.3-0.25,1.81-0.69l1.13,1.24c-0.81,0.75-1.85,1.09-3.06,1.09c-2.2,0-3.72-1.5-3.72-3.75c0-2.26,1.48-3.8,3.63-3.8
					C292.54,467.99,293.96,469.52,293.97,471.76z M288.85,471.09h3.18c-0.18-0.92-0.73-1.44-1.56-1.44
					C289.55,469.65,289.02,470.2,288.85,471.09z"/>
				<path id="XMLID_206_" d="M301.62,471.76c0,0.22-0.02,0.49-0.04,0.65h-5.08c0.21,1.04,0.93,1.49,1.84,1.49
					c0.62,0,1.3-0.25,1.81-0.69l1.13,1.24c-0.81,0.75-1.85,1.09-3.06,1.09c-2.2,0-3.72-1.5-3.72-3.75c0-2.26,1.48-3.8,3.63-3.8
					C300.2,467.99,301.61,469.52,301.62,471.76z M296.5,471.09h3.18c-0.18-0.92-0.73-1.44-1.56-1.44
					C297.21,469.65,296.67,470.2,296.5,471.09z"/>
				<path id="XMLID_203_" d="M309.96,471.76c0,2.15-1.5,3.77-3.47,3.77c-0.96,0-1.64-0.38-2.11-0.93v3.71h-1.92v-10.13h1.89v0.79
					c0.47-0.58,1.15-0.98,2.14-0.98C308.47,467.99,309.96,469.61,309.96,471.76z M304.29,471.76c0,1.13,0.75,1.98,1.84,1.98
					c1.14,0,1.85-0.88,1.85-1.98c0-1.1-0.71-1.98-1.85-1.98C305.03,469.79,304.29,470.63,304.29,471.76z"/>
				<path id="XMLID_200_" d="M313.07,465.84c0,0.7-0.54,1.23-1.24,1.23c-0.7,0-1.23-0.53-1.23-1.23c0-0.7,0.53-1.24,1.23-1.24
					C312.53,464.59,313.07,465.14,313.07,465.84z M312.81,475.35h-1.93v-7.17h1.93V475.35z"/>
				<path id="XMLID_198_" d="M316.03,470.74l2.7-2.55h2.37l-3.48,3.38l3.5,3.8h-2.38l-2.72-2.9v2.9h-1.93V464.7h1.93V470.74z"/>
			</g>
			<g>
				<path d="M184.41,475.29v-1.05c-0.53,0.72-1.39,1.23-2.39,1.23c-1.85,0-3.15-1.41-3.15-3.71c0-2.26,1.29-3.72,3.15-3.72
					c0.95,0,1.82,0.47,2.39,1.25v-3.76h1.1v9.77H184.41z M184.41,473.37v-3.21c-0.4-0.62-1.24-1.14-2.12-1.14
					c-1.42,0-2.27,1.17-2.27,2.74c0,1.57,0.85,2.72,2.27,2.72C183.17,474.48,184.02,473.99,184.41,473.37z"/>
				<path d="M186.93,471.74c0-2.05,1.46-3.71,3.49-3.71c2.14,0,3.4,1.67,3.4,3.79v0.28h-5.73c0.09,1.33,1.03,2.45,2.55,2.45
					c0.81,0,1.63-0.32,2.18-0.89l0.53,0.72c-0.7,0.7-1.65,1.08-2.81,1.08C188.44,475.46,186.93,473.96,186.93,471.74z M190.4,468.95
					c-1.51,0-2.26,1.27-2.31,2.36h4.64C192.72,470.25,192.01,468.95,190.4,468.95z"/>
				<path d="M194.61,474.35l0.57-0.79c0.47,0.54,1.36,1.01,2.33,1.01c1.08,0,1.67-0.51,1.67-1.22c0-1.71-4.38-0.66-4.38-3.28
					c0-1.1,0.95-2.04,2.64-2.04c1.2,0,2.05,0.45,2.62,1.03l-0.51,0.76c-0.42-0.51-1.2-0.89-2.11-0.89c-0.97,0-1.57,0.48-1.57,1.11
					c0,1.55,4.38,0.53,4.38,3.28c0,1.19-0.95,2.14-2.78,2.14C196.31,475.46,195.32,475.11,194.61,474.35z"/>
				<path d="M201.48,466.47c0-0.41,0.34-0.75,0.73-0.75c0.41,0,0.75,0.34,0.75,0.75c0,0.41-0.34,0.73-0.75,0.73
					C201.81,467.2,201.48,466.88,201.48,466.47z M201.67,475.29v-7.07h1.1v7.07H201.67z"/>
				<path d="M204.58,477.11l0.56-0.82c0.59,0.7,1.29,0.97,2.3,0.97c1.17,0,2.27-0.57,2.27-2.12v-1.01
					c-0.51,0.72-1.38,1.26-2.37,1.26c-1.85,0-3.15-1.38-3.15-3.66c0-2.27,1.29-3.68,3.15-3.68c0.95,0,1.8,0.47,2.37,1.25v-1.07h1.1
					v6.87c0,2.34-1.64,3.08-3.37,3.08C206.24,478.16,205.42,477.93,204.58,477.11z M209.71,473.25v-3.09
					c-0.38-0.62-1.23-1.14-2.11-1.14c-1.42,0-2.27,1.13-2.27,2.7c0,1.55,0.85,2.7,2.27,2.7
					C208.48,474.41,209.33,473.87,209.71,473.25z"/>
				<path d="M217.41,475.29v-4.63c0-1.24-0.63-1.64-1.58-1.64c-0.86,0-1.68,0.53-2.09,1.1v5.17h-1.1v-7.07h1.1v1.03
					c0.5-0.59,1.46-1.2,2.52-1.2c1.48,0,2.26,0.75,2.26,2.29v4.97H217.41z"/>
				<path d="M219.93,471.74c0-2.05,1.46-3.71,3.49-3.71c2.14,0,3.4,1.67,3.4,3.79v0.28h-5.73c0.09,1.33,1.03,2.45,2.55,2.45
					c0.81,0,1.63-0.32,2.18-0.89l0.53,0.72c-0.7,0.7-1.66,1.08-2.81,1.08C221.44,475.46,219.93,473.96,219.93,471.74z M223.4,468.95
					c-1.51,0-2.26,1.27-2.31,2.36h4.64C225.72,470.25,225.02,468.95,223.4,468.95z"/>
				<path d="M233.35,475.29v-1.05c-0.53,0.72-1.39,1.23-2.39,1.23c-1.85,0-3.15-1.41-3.15-3.71c0-2.26,1.29-3.72,3.15-3.72
					c0.95,0,1.82,0.47,2.39,1.25v-3.76h1.1v9.77H233.35z M233.35,473.37v-3.21c-0.4-0.62-1.25-1.14-2.12-1.14
					c-1.42,0-2.27,1.17-2.27,2.74c0,1.57,0.85,2.72,2.27,2.72C232.1,474.48,232.95,473.99,233.35,473.37z"/>
				<path d="M239.69,475.29v-9.77h1.1v3.76c0.57-0.78,1.42-1.25,2.39-1.25c1.85,0,3.15,1.46,3.15,3.72c0,2.3-1.3,3.71-3.15,3.71
					c-1,0-1.86-0.51-2.39-1.23v1.05H239.69z M242.9,474.48c1.44,0,2.29-1.16,2.29-2.72c0-1.57-0.85-2.74-2.29-2.74
					c-0.86,0-1.73,0.53-2.11,1.14v3.21C241.17,473.99,242.04,474.48,242.9,474.48z"/>
				<path d="M247.53,477.06c0.16,0.07,0.43,0.12,0.6,0.12c0.48,0,0.81-0.16,1.05-0.75l0.47-1.07l-2.96-7.15h1.19l2.36,5.8l2.34-5.8
					h1.2l-3.54,8.51c-0.42,1.03-1.14,1.42-2.08,1.44c-0.23,0-0.6-0.04-0.81-0.1L247.53,477.06z"/>
			</g>
		</g>
	</g>
</g>
</svg>
