<?xml version="1.0" encoding="utf-8"?>
<!-- Generator: Adobe Illustrator 24.0.1, SVG Export Plug-In . SVG Version: 6.00 Build 0)  -->
<svg version="1.1" xmlns="http://www.w3.org/2000/svg" xmlns:xlink="http://www.w3.org/1999/xlink" x="0px" y="0px"
	 viewBox="0 0 500 500" style="enable-background:new 0 0 500 500;" xml:space="preserve">
<style type="text/css">
	.st0{display:none;fill:#CCB6DB;}
	.st1{fill:#DBCCE6;}
	.st2{opacity:0.58;}
	.st3{fill:#FFFFFF;}
	.st4{fill:#74CACD;}
	.st5{fill:#26113C;}
	.st6{fill:none;}
	.st7{font-family:'Montserrat-Medium';}
	.st8{font-size:7.4375px;}
	.st9{fill:#F9AE3B;}
	.st10{fill:#B2DEE8;}
	.st11{fill:#4B385C;}
	.st12{fill:#D67B80;}
	.st13{fill:#E26B6D;}
	.st14{fill:#F1C559;}
	.st15{fill:#C4CC8F;}
	.st16{fill:#EBF3F3;}
	.st17{font-family:'Montserrat-Bold';}
	.st18{font-size:28.6953px;}
	.st19{fill:#F0AB89;}
	.st20{fill:#C46877;}
	.st21{fill:#DF8054;}
	.st22{fill:#5B9D9A;}
	.st23{fill:#79C7A1;}
	.st24{fill:#C16A75;}
	.st25{fill:#D0E3E3;}
	.st26{font-size:12px;}
	.st27{fill:#D17D81;}
	.st28{fill:#FBF8F2;}
	.st29{display:none;}
	.st30{display:inline;}
	.st31{fill:#1D262D;}
</style>
<g id="BACKGROUND">
	<g>
		<rect x="1.52" y="-13.88" class="st0" width="500" height="500"/>
		<g>
			<g>
				<path class="st1" d="M449.25,257.54c-9.91-6.5-21.03-12.49-25.46-23.34c-3.88-9.5-1.45-20.49,3.11-29.68
					s11.12-17.24,16.09-26.21c9.61-17.34,12.7-39.58,2.93-56.82c-7.6-13.41-22.04-22.05-37.15-25.07
					c-15.11-3.03-30.84-0.95-45.69,3.18c-16.34,4.55-33.47,11.63-49.64,6.51c-16.13-5.11-26.08-20.73-38.28-32.46
					c-19.33-18.58-46.22-28.17-73-29.34s-53.46,5.6-78.03,16.33c-14.54,6.35-29.4,15.04-35.94,29.49
					c-10.35,22.83,3.89,50.54-4.13,74.29c-8.74,25.87-40.11,37.36-52.76,61.56c-14.84,28.37,4.69,49.25,15.06,74.24
					c4.36,10.51,7.5,21.53,9.3,32.77c1.45,9.07,2.09,18.44,5.78,26.85c5.73,13.08,19.05,22.5,33.29,23.54
					c20.12,1.48,38.08-12.23,57.86-16.18c28.66-5.73,57.08,9.4,81.43,25.56c24.35,16.17,49.36,34.58,78.52,36.5
					c20.53,1.35,41.5-6.23,56.42-20.4c16.36-15.54,25.98-38.64,46.07-48.93c16.62-8.51,37.85-6.65,52.62-18.08
					c12.97-10.04,17.38-28.67,13.18-44.53c-4.19-15.86-15.74-28.99-29.29-38.24C450.78,258.55,450.02,258.05,449.25,257.54z"/>
			</g>
		</g>
	</g>
</g>
<g id="OBJECTS">
	<g>
		<g class="st2">
			<rect x="167.51" y="69.29" class="st3" width="1.98" height="15.53"/>
		</g>
		<g>
			<path class="st4" d="M226.72,77.36v6.59H77.84v-6.59c0-4.24,3.44-7.69,7.69-7.69h133.52C223.29,69.68,226.72,73.12,226.72,77.36z
				"/>
			<path class="st5" d="M226.72,83.95v78.55c0,4.24-3.42,7.67-7.67,7.67H85.53c-4.24,0-7.69-3.42-7.69-7.67V83.95H226.72z"/>
			<rect x="82.68" y="91.07" class="st3" width="1.52" height="11.91"/>
			<rect x="86.94" y="90.72" class="st6" width="137.54" height="65.15"/>
			<text transform="matrix(1 0 0 1 86.9432 96.0049)"><tspan x="0" y="0" class="st3 st7 st8">&lt;html&gt;</tspan><tspan x="0" y="8.92" class="st3 st7 st8">    </tspan><tspan x="6.31" y="8.92" class="st9 st7 st8">&lt;head&gt;</tspan><tspan x="0" y="17.85" class="st3 st7 st8">      </tspan><tspan x="9.46" y="17.85" class="st10 st7 st8">  &lt;title&gt;...&lt;/title&gt;</tspan><tspan x="0" y="26.77" class="st3 st7 st8"> </tspan><tspan x="0" y="35.7" class="st3 st7 st8">&lt;/html&gt;</tspan></text>
		</g>
		<g>
			<path class="st11" d="M329.55,105.02v101.27c0,1.62-1.31,2.94-2.93,2.94H160.99c-1.62,0-2.94-1.32-2.94-2.94V105.02
				c0-1.62,1.32-2.94,2.94-2.94h165.62C328.24,102.08,329.55,103.4,329.55,105.02z"/>
			<path class="st12" d="M329.55,105.02v8H158.05v-8c0-1.62,1.32-2.94,2.94-2.94h165.62C328.24,102.08,329.55,103.4,329.55,105.02z"
				/>
			<g>
				<path class="st13" d="M309.78,107.89c0,1.2-0.97,2.17-2.17,2.17c-1.2,0-2.17-0.97-2.17-2.17c0-1.2,0.97-2.17,2.17-2.17
					C308.81,105.72,309.78,106.69,309.78,107.89z"/>
				<path class="st14" d="M317.42,107.89c0,1.2-0.97,2.17-2.17,2.17s-2.17-0.97-2.17-2.17c0-1.2,0.97-2.17,2.17-2.17
					S317.42,106.69,317.42,107.89z"/>
				<path class="st15" d="M325.07,107.89c0,1.2-0.97,2.17-2.17,2.17c-1.2,0-2.17-0.97-2.17-2.17c0-1.2,0.97-2.17,2.17-2.17
					C324.1,105.72,325.07,106.69,325.07,107.89z"/>
			</g>
			<rect x="171.51" y="117.24" class="st3" width="0.93" height="7.32"/>
			<g>
				<text transform="matrix(1 0 0 1 200.9725 166.958)" class="st16 st17 st18">HTML</text>
			</g>
			<g>
				<path class="st13" d="M257.94,124.01h-81.48c-0.47,0-0.85,0.38-0.85,0.85v0.29c0,0.47,0.38,0.85,0.85,0.85h81.48
					c0.47,0,0.85-0.38,0.85-0.85v-0.29C258.79,124.39,258.41,124.01,257.94,124.01z"/>
				<path class="st14" d="M267.6,184.83h-91.14c-0.47,0-0.85,0.38-0.85,0.85v0.26c0,0.47,0.38,0.85,0.85,0.85h91.14
					c0.47,0,0.85-0.38,0.85-0.85v-0.26C268.44,185.21,268.06,184.83,267.6,184.83z"/>
				<path class="st3" d="M280.83,129.56H176.46c-0.47,0-0.85,0.38-0.85,0.85l0,0c0,0.47,0.38,0.85,0.85,0.85h104.37
					c0.47,0,0.85-0.38,0.85-0.85l0,0C281.68,129.93,281.3,129.56,280.83,129.56z"/>
				<path class="st15" d="M264.5,190.25h-88.04c-0.47,0-0.85,0.38-0.85,0.85v0.22c0,0.47,0.38,0.85,0.85,0.85h88.04
					c0.47,0,0.85-0.38,0.85-0.85v-0.22C265.34,190.62,264.96,190.25,264.5,190.25z"/>
				<path class="st13" d="M280.84,179.89H176.55c-0.52,0-0.94,0.42-0.94,0.94v0.12c0,0.52,0.42,0.94,0.94,0.94h104.28
					c0.52,0,0.94-0.42,0.94-0.94v-0.12C281.78,180.31,281.36,179.89,280.84,179.89z"/>
				<path class="st15" d="M311.39,129.46h-24.52c-0.47,0-0.85,0.38-0.85,0.85v0.11c0,0.47,0.38,0.85,0.85,0.85h24.52
					c0.47,0,0.85-0.38,0.85-0.85v-0.11C312.24,129.84,311.86,129.46,311.39,129.46z"/>
				<path class="st3" d="M204.96,118.63h-28.75c-0.47,0-0.85,0.38-0.85,0.85v0.25c0,0.47,0.38,0.85,0.85,0.85h28.75
					c0.47,0,0.85-0.38,0.85-0.85v-0.25C205.81,119.01,205.43,118.63,204.96,118.63z"/>
			</g>
		</g>
	</g>
	<g>
		<g>
			<g>
				<path class="st5" d="M352.62,218.71c0.1,1.3,0.37,2.72,0.6,4.02c1.72-4.31,3.78-8.47,3.97-13.23
					c0.3-7.59-3.96-17.02-11.25-20.04c-3.64-1.51-7.56-2.15-11.49-1.53c-2.06,0.33-4.09,0.75-5.47,2.44
					c-0.38,0.47-0.77,1.08-1.11,1.74c-0.96,0.28-1.87,0.69-2.62,1.35c-1.35,1.2-2.11,3.47-2.58,5.18
					c-2.94,10.62-1.9,23.33,4.69,32.47c4.24,5.89,10.2,10.03,17.08,12.17c5.17,1.61,11.05,3.42,16.51,2.5
					c-2.14-0.89-4.36-1.9-6.41-3.02c-2.22-1.22-4.77-2.88-6.12-5.11c-1.21-2-0.9-4.66-0.43-6.86
					C348.89,226.55,350.92,222.65,352.62,218.71z"/>
			</g>
			<g>
				<path class="st5" d="M349.3,196.56c-3.52-4.34-10.27-7.36-15.23-3.69c-0.26,0.19,0.09,0.56,0.35,0.37
					c5.7-4.21,13.13,0.73,15.98,5.84c2.42,4.34,3.31,11.25,0.76,15.75c-0.16,0.28,0.27,0.55,0.43,0.27
					C354.67,209.64,353.12,201.27,349.3,196.56z"/>
				<path class="st5" d="M346.91,204.9c-1.63-5.31-6.09-11.1-11.93-11.6c-0.32-0.03-0.34,0.48-0.01,0.5
					c5.48,0.47,9.98,6.23,11.45,11.21c1.51,5.09-0.05,8.97-2.56,13.33c-2.13,3.71-4.12,7.45-1.32,11.36
					c0.19,0.26,0.63,0.02,0.44-0.24c-4.07-5.68,2-10.38,3.83-15.44C347.88,211.07,347.83,207.88,346.91,204.9z"/>
			</g>
			<path class="st19" d="M318.06,282.21l-24.1,4.3l-0.5,0.06c-0.05,0.03-0.11,0.08-0.16,0.11c-0.12,0.06-0.25,0.14-0.37,0.22
				c-0.58,0.32-1.15,0.6-1.67,0.84c-0.16,0.06-0.34,0.14-0.51,0.22c-0.31,0.11-0.63,0.23-0.96,0.34c-0.27,0.08-0.53,0.15-0.78,0.2
				c-0.68,0.16-1.26,0.21-1.72,0.22c-0.27,0-0.55,0.04-0.83,0.1c-0.04,0.01-0.08,0.01-0.1,0.03c-0.66,0.13-1.25,0.46-1.73,0.93
				c-0.09,0.07-0.16,0.14-0.22,0.2c-2.95,2.8-3.27,1.79-3.27,1.79c-0.5-1.03,2.1-3.22,3.37-4.23c-2.63,1.94-4.68,4.04-4.68,4.04
				c-0.14,0.08-0.24,0.13-0.36,0.17c0,0,0,0,0,0.01c-0.39,0.11-0.61-0.09-0.71-0.31c-0.12-0.2-0.15-0.41-0.15-0.41
				c-0.48-0.85,4.92-4.7,5.75-5.27c-5.64,3.43-6.12,4.46-6.12,4.46c-0.35,0.25-0.56,0.17-0.68,0.03c-0.05-0.06-0.08-0.11-0.11-0.16
				c-0.05-0.12-0.07-0.24-0.09-0.31c0-0.03,0-0.05,0-0.05c0.35-1.76,2.41-3.33,4.13-4.34c0.08-0.05,0.17-0.09,0.26-0.14
				c1.05-0.61,1.91-1,2.08-1.07c-2.11,0.35-4.05,1.63-5.15,2.5c-0.06,0.03-0.11,0.08-0.16,0.12c-0.28,0.19-0.53,0.4-0.74,0.63
				c-0.02,0.03-0.04,0.03-0.04,0.03c-0.05,0.06-0.1,0.13-0.17,0.16c-0.76,0.76-0.98-0.23-1.01-0.41c0-0.03-0.01-0.03-0.01-0.03
				c1.57-4.38,6.39-5,7.11-5.06c-0.11-0.02-0.22-0.02-0.31-0.02c-2.86-0.08-3.17-0.7-3.07-1.07c0.01-0.06,0.03-0.11,0.06-0.17
				l0.02-0.01c0.04-0.08,0.07-0.12,0.07-0.12c0.02-0.02,0.04-0.04,0.07-0.05c0.68-0.53,2.2-0.59,3.9-0.45
				c0.58,0.07,1.16,0.13,1.76,0.22c1.57,0.24,5.31,1.11,5.45,1.13c0.07,0.02,0.14,0.03,0.2,0.05c0.02,0.01,0.03,0.01,0.03,0.01
				l18.23-7.32c1.05-0.43,2.18-0.73,3.33-0.95l5.1-2.09l0.63-12.66l1.03-20.28c0.13-2.66,1.79-5.11,4.23-6.22
				c4.41-2.02,9.03,1.24,8.63,6.09l-2.06,25.39l-0.55,6.73C329.86,276.86,324.37,282.16,318.06,282.21z"/>
			<path class="st20" d="M324.65,232.68c-0.31-0.93-1.5-1.18-2.16-0.46c-2.68,2.92-8.15,10.81-10.32,28.05l-3.98,44.07l18.23-2.16
				l6.46-44.67L324.65,232.68z"/>
			<path class="st4" d="M337.8,260.52l-12.79-1.05l-5.35-19.59c-0.71-2.57,0.11-5.42,2.08-7.23c3.56-3.3,8.97-1.64,10.09,3.1
				L337.8,260.52z"/>
			<path class="st11" d="M312.78,332.04l-0.98,13.82l-1.13,15.92c-0.04,0.51-0.07,1.02-0.1,1.53c-0.47,7.59-0.32,15.23,0.41,22.81
				l4.1,44.85c0.03,0.32,0.06,0.64,0.07,0.97l7.15,0.59c2.48-13.69,2.63-42.53-0.86-59.9c-0.1-0.48-0.28-0.94,0.04-1.28
				c1.88-2.06,16.97-64.32,16.97-64.32l13.04-6.8c0,0-0.56-1.07-1.39-2.59l-0.01-0.01c-1.26-2.37-3.15-5.88-4.52-8.22
				c-0.19-0.32-0.36-0.62-0.52-0.95l-0.02-0.03c-0.01-0.01-0.02-0.04-0.02-0.06c-0.64-1.27-1.15-2.61-1.45-4
				c0,0-17.76-1.35-21.15-0.83c-0.24,0.04-6.84,13.99-6.84,13.99c-0.14,0.86-0.25,1.69-0.36,2.54
				C313.75,310.67,312.95,321.37,312.78,332.04z"/>
			<path class="st11" d="M335.75,288.65c-0.01,2.15-0.05,4.32-0.1,6.49l-0.14,6.44c-0.03,0.87-0.04,1.71-0.04,2.57
				c-0.13,8.77,0.22,17.53,0.97,26.24c0,0.01,0.01,0.03,0.01,0.03c0.16,1.92,0.35,3.84,0.55,5.75l0.09,1.65l0.53,10.16l0.94,17.97
				c0.01,0.5,0.05,1.01,0.08,1.53c0.48,7.6,1.56,15.15,3.22,22.58l9.41,42.31c0.06,0.28,0.12,0.56,0.17,0.84l7.15,0.59
				c0.76-13.33-1.42-43.73-6.6-57.35c-0.17-0.45,2.7-13.54,4.24-26.95c1.45-12.65,2.51-27.36,1.79-37.65
				c-0.43-6.2-0.73-12.46-3.47-18.03c-0.98-2-2.01-3.63-2.98-4.93c-2.15-2.94-3.92-4.21-3.92-4.21l-9.43,3.11l-2.44,0.81
				L335.75,288.65z"/>
			<polygon class="st19" points="328.01,230.97 336.73,231.55 336.5,225.9 336.13,217 326.66,213.98 327.7,227.11 			"/>
			<path class="st21" d="M327.9,229.53c0,0,5.37,1.08,8.6-3.63l-0.36-8.89l-9.47-3.02L327.9,229.53z"/>
			<g>
				<path class="st4" d="M348.73,245.86c-0.59,3.75-0.86,7.6-2.67,11c-0.65,1.14-1.27,2.3-1.9,3.42c-0.74,1.38-1.46,2.76-2.15,4.16
					c-0.53,1.09-1.03,2.17-1.52,3.3c-0.66,1.55-1.38,4.31-0.86,5.99c0.18,0.5,0.46,0.94,0.83,1.31c0.9,0.93,18.73,15.01,17.69,36.24
					c-14.9-7.78-28.25-1.37-44.46-1.2c0-0.04,1.51-35.02,1.44-36.72c-0.15-3.68-1.24-7.35-1.86-10.97
					c-0.02-0.14-0.03-0.31-0.06-0.43c-0.04-0.34-0.12-1.69-0.2-1.79c-2.51-1.54-4.33-3.46-4.69-6.31c-0.61-4.78,2.8-7.65,5.73-10.9
					c0.04-0.06,0.04-0.08,0.07-0.1c0.73-0.81,1.44-1.61,2.15-2.41c2.5-2.73,5.02-5.49,7.55-8.17c-1.22,2.35-1.39,4.57-0.22,5.7
					c1.72,1.66,5.68,0.32,8.84-2.99c1.47-1.54,2.51-3.23,3.04-4.76c0.36,0.03,0.77,0.07,1.23,0.1c0.53,0.06,1.08,0.09,1.65,0.16
					c0.73,0.08,1.5,0.17,2.22,0.38c0.59,0.12,1.18,0.33,1.71,0.63C347.55,234.3,349.64,240.05,348.73,245.86z"/>
			</g>
			<path class="st5" d="M334.67,235.93c-2.69,3.28-6.4,5.3-10.72,4.55c-0.36-0.06-0.41,0.5-0.06,0.56
				c4.51,0.78,8.43-1.36,11.24-4.79C335.37,235.97,334.9,235.65,334.67,235.93z"/>
			<path class="st5" d="M335.89,256.15c-3.83,2.81-8.83,3.01-12.87,0.51c-0.42-0.26-0.87,0.37-0.45,0.63
				c4.34,2.69,9.7,2.47,13.82-0.55C336.79,256.45,336.29,255.86,335.89,256.15z"/>
			<path class="st20" d="M336.74,230.34c0,0-2.84,2.28-3.98,9.1c-2.02,12.05-2.41,35.35,1.46,64.53c0,0,7.04-2.94,24.39,2.06
				l-7.71-25.41c-2.07-6.83-2.73-14-1.93-21.09l0.99-8.83c0.52-4.6-0.17-9.29-2.22-13.44C345.67,233.09,342.23,229.2,336.74,230.34z
				"/>
			<path class="st19" d="M323.62,237.99c1.72,1.65,6.29,0.59,9.46-2.72c1.47-1.54,3.13-3.4,3.65-4.93
				c-2.26-0.21-4.35-0.49-7.17-0.33c-0.36,0.02-0.75,0.02-1.09,0.06c-1.49,0.06-2.75,0.2-3.97,1.49c-0.23,0.23-0.44,0.47-0.66,0.71
				C322.62,234.64,322.45,236.86,323.62,237.99z"/>
			<g>
				<g>
					<path class="st19" d="M341.45,212.94c0.44-2.25-0.27-5.18-2.13-5.28c-0.56-0.03-1.18,0.2-1.79,0.58
						c-1.6-6.31-6.54-13.23-11.2-13.48c-6.1-0.33-11.27,2.84-11.68,18.62c-0.16,6.24,4.28,12.67,10.28,13.52
						c4.51,0.64,9.59-4.36,11.89-9.53C338.79,216.75,340.9,215.8,341.45,212.94z"/>
					<g>
						<g>
							<g>
								<path class="st5" d="M322.2,220.58c-0.38,0.01-0.61,0-0.62-0.01c-0.21-0.02-0.36-0.2-0.34-0.41
									c0.02-0.21,0.19-0.37,0.41-0.34c0.19,0.02,4.72,0.37,5.68-4.06c0.04-0.2,0.24-0.34,0.45-0.29c0.2,0.04,0.33,0.25,0.29,0.45
									C327.19,219.97,323.65,220.53,322.2,220.58z"/>
							</g>
						</g>
						<path class="st5" d="M326.91,211.2c0.06,0.67-0.39,1.26-1,1.32c-0.61,0.06-1.15-0.45-1.22-1.12c-0.06-0.67,0.39-1.26,1-1.32
							C326.3,210.03,326.85,210.53,326.91,211.2z"/>
						<path class="st5" d="M319.53,211.69c0.06,0.67-0.39,1.26-1,1.32c-0.61,0.05-1.15-0.45-1.22-1.12c-0.06-0.67,0.39-1.26,1-1.32
							C318.92,210.51,319.47,211.01,319.53,211.69z"/>
						<g>
							<g>
								<path class="st5" d="M328.68,208.92c-0.14,0.02-0.29-0.04-0.37-0.17c-1.3-2.03-3.18-0.99-3.26-0.95
									c-0.18,0.1-0.41,0.04-0.52-0.14c-0.1-0.18-0.04-0.41,0.14-0.52c0.89-0.5,2.93-0.9,4.27,1.2c0.11,0.18,0.06,0.41-0.12,0.52
									C328.78,208.89,328.73,208.91,328.68,208.92z"/>
							</g>
						</g>
						<g>
							<g>
								<path class="st5" d="M319.65,208.21c-0.08,0.09-0.21,0.13-0.33,0.1c-1.94-0.58-2.56,1.11-2.59,1.19
									c-0.06,0.17-0.24,0.25-0.41,0.19c-0.16-0.06-0.25-0.24-0.19-0.41c0.29-0.81,1.36-2.18,3.37-1.58
									c0.17,0.05,0.26,0.23,0.21,0.4C319.7,208.14,319.68,208.18,319.65,208.21z"/>
							</g>
						</g>
					</g>
				</g>
			</g>
			<g>
				<path class="st5" d="M321.8,217.28c0.19-0.03,0.32-0.21,0.29-0.4c-0.03-0.19-0.21-0.32-0.4-0.29c-0.01,0-0.66,0.1-0.89-0.23
					c-0.11-0.15-0.27-0.64,0.48-1.99c0.09-0.17,0.03-0.38-0.14-0.47c-0.17-0.09-0.38-0.03-0.47,0.14c-0.7,1.27-0.85,2.16-0.44,2.74
					C320.71,217.46,321.75,217.29,321.8,217.28L321.8,217.28z"/>
			</g>
			<path class="st5" d="M297.87,437.72c-0.04,0.94,0.58,1.89,1.69,1.98l19.46,1.63c2.08,0.17,3.93-1.39,4.1-3.48l-0.57-4.36
				l-0.05-2.01l-7.45-0.3c0,0-15.55,4.5-16.43,5.15C298.12,436.7,297.89,437.21,297.87,437.72z"/>
			<path class="st5" d="M334.15,438.78c-0.04,0.94,0.58,1.89,1.69,1.98l19.46,1.63c2.08,0.17,4.63-1.19,4.1-3.48l-0.57-4.36
				l-0.21-1.6c-0.01-0.14-0.01-0.28-0.02-0.43l-0.02,0l-7.33-0.15c-0.01,0.14-15.48,4.37-16.36,5.02
				C334.41,437.75,334.18,438.27,334.15,438.78z"/>
			<path class="st5" d="M321.34,236.29c-0.62,1.36-0.58,2.88,0.12,4.2c0.17,0.32,0.69,0.08,0.51-0.24c-0.63-1.2-0.67-2.52-0.1-3.76
				C322.03,236.16,321.49,235.96,321.34,236.29z"/>
			<g>
				<path class="st19" d="M342.84,284.15c0,0-23.02,8.31-23.03,8.31l-0.48,0.15c-0.04,0.03-0.09,0.09-0.13,0.13
					c-0.11,0.09-0.22,0.18-0.32,0.27c-0.52,0.43-1.02,0.8-1.51,1.11c-0.14,0.1-0.3,0.2-0.46,0.31c-0.28,0.16-0.58,0.33-0.88,0.49
					c-0.26,0.13-0.51,0.24-0.74,0.34c-0.64,0.26-1.2,0.42-1.65,0.5c-0.28,0.04-0.55,0.13-0.81,0.23c-0.03,0.01-0.07,0.02-0.1,0.06
					c-0.62,0.25-1.15,0.66-1.54,1.2c-0.08,0.09-0.13,0.17-0.19,0.25c-2.43,3.26-2.92,2.3-2.92,2.3c-0.64-0.9,1.37-3.36,2.49-4.6
					c-2.21,2.31-3.82,4.64-3.82,4.64c-0.12,0.11-0.21,0.17-0.32,0.23c0,0,0,0,0,0.01c-0.37,0.17-0.6,0.01-0.76-0.19
					c-0.15-0.18-0.22-0.38-0.22-0.38c-0.6-0.76,4.07-5.46,4.77-6.16c-4.98,4.34-5.28,5.42-5.28,5.42c-0.31,0.3-0.52,0.27-0.67,0.15
					c-0.05-0.05-0.1-0.09-0.12-0.14c-0.08-0.1-0.12-0.23-0.15-0.29c-0.02-0.02-0.02-0.05-0.02-0.05c0.04-1.8,1.81-3.69,3.33-4.97
					c0.07-0.07,0.15-0.12,0.22-0.19c0.93-0.77,1.72-1.3,1.88-1.4c-2.02,0.7-3.71,2.29-4.66,3.33c-0.06,0.05-0.09,0.09-0.14,0.14
					c-0.25,0.24-0.45,0.49-0.62,0.75c-0.02,0.03-0.03,0.04-0.03,0.04c-0.05,0.08-0.09,0.15-0.15,0.2c-0.62,0.88-1-0.07-1.05-0.25
					c0-0.01-0.02-0.02-0.02-0.02c0.83-4.73,5.75-6.09,6.21-6.19c-0.14,0.01-0.26,0.02-0.37,0.04c-2.84,0.41-3.24-0.15-3.22-0.53
					c0.01-0.05,0.03-0.11,0.04-0.17l0-0.01c0.03-0.09,0.06-0.14,0.06-0.14c0.02-0.03,0.03-0.05,0.06-0.06
					c0.58-0.63,2.06-0.95,3.77-1.1c0.58-0.03,1.17-0.07,1.76-0.08c1.59-0.03,5.43,0.18,5.57,0.2c0.06,0,0.14,0,0.21,0.01
					c0.02-0.01,0.02,0.01,0.02,0.01l16.74-10.3c0.97-0.6,2.03-1.09,3.12-1.5l4.68-2.93l-1.57-13.07l-2.36-19.68
					c-0.32-2.65,0.91-5.34,3.12-6.85c4.01-2.73,9.11-0.3,9.54,4.56l2.13,24.04l0.72,8.05C353.57,276.89,349.06,283.03,342.84,284.15
					z"/>
				<path class="st4" d="M352.27,262.33c-3.17-3.29-8.92-3.69-12.42-2.08l-2.36-19.68c-0.32-2.65,0.91-5.34,3.12-6.85
					c4.01-2.73,9.11-0.3,9.54,4.56L352.27,262.33z"/>
			</g>
			<g>
				<g>
					<path class="st5" d="M334.94,195.06c0.61-0.09,1.43,0.18,2.12,0.18c0.76,0,1.48-0.18,2.21-0.28
						c-5.44-1.56-10.58-6.12-16.44-3.24c-0.47,0.23-0.93,0.54-1.38,0.87c-1.25,0.04-2.37,0.61-3.37,2.08
						c-0.79,1.16-1.21,2.51-2.14,3.63c-1.03,1.23-2.33,1.84-3.61,2.72c0.63,0.28,1.41,0.2,2.08,0.29c-0.11,0.75-0.82,1.64-1.04,2.47
						c-0.19,0.69-0.29,1.49-0.18,2.21c0.31,1.98,0.5,2.95-0.52,4.74c1.61-0.44,3.25-2.04,4.51-3.13c1.42-1.22,2.58-2.84,3.45-4.48
						c0.67,1.32,1.62,2.07,2.86,2.88c-0.14-0.86,0.39-1.36,0.65-2.15c0.24-0.75,0.31-1.58,0.48-2.34c0.98,1.77,3.13,2.47,4.32,4.1
						c1.21,1.66,1.99,4.17,1.73,6.23c1.16-0.46,1.94-2.65,2.35-3.72c0.46,2,1.13,3.82,1.07,5.94c2.61-2.25,4.65-5.92,4.72-9.38
						C338.88,201.42,336.98,197.48,334.94,195.06z M318.42,195.18l0.38-0.13C318.61,195.21,318.46,195.29,318.42,195.18z"/>
				</g>
			</g>
			<g>
				<path class="st20" d="M327.42,188.77c5.17,0.15,9.59,4.12,11.89,9.9c0.2,1.16,0.72,2.24,1.02,3.37
					c0.01,0.04,0.03,0.07,0.05,0.11c0.44,1.91,0.68,3.94,0.65,6.06l-1.99-0.06c0.1-9.33-5.08-16.99-11.68-17.18
					c-6.12-0.18-11.38,6.11-12.48,14.43c-0.15,1.17-1.1,2.02-2.18,1.98C313.18,196.85,319.71,188.54,327.42,188.77z"/>
				<g>
					<path class="st4" d="M335.87,210.41c-0.09,3.06,1.37,5.59,3.26,5.65c1.89,0.06,3.5-2.38,3.59-5.45
						c0.09-3.06-1.37-5.59-3.26-5.65C337.56,204.91,335.95,207.35,335.87,210.41z"/>
					<path class="st20" d="M337.89,210.5c-0.07,2.46,0.98,4.48,2.36,4.52c1.37,0.04,2.54-1.92,2.61-4.37
						c0.07-2.46-0.98-4.48-2.36-4.52C339.14,206.08,337.96,208.04,337.89,210.5z"/>
				</g>
			</g>
			<g>
				<path class="st5" d="M321.36,194.28c-3.33-0.06-6.87,1.94-9.47,3.82c1.21,0.11,2.46,0.11,3.66,0.04
					c-1.98,0.53-3.78,2.83-3.6,4.89c0.79-0.02,1.57-0.58,2.29-0.89c-0.9,1.06-1.94,1.63-2.51,2.96c-0.37,0.86-0.44,1.97-0.07,2.85
					c1.19-0.28,2.62-1.27,3.6-1.98c1.11-0.81,2.84-2.25,3.32-3.56"/>
			</g>
			<g>
				<path class="st5" d="M330.93,198.73c-2.36-1.83-5.35-1.42-7.78-2.81c0-0.01,0-0.01,0-0.02c3.24-1.01,6.3-2.25,9.27,0.33
					c0.24,0.21,0.61-0.13,0.37-0.35c-3.23-2.8-6.51-1.44-10.15-0.35c-0.02-0.05-0.06-0.09-0.14-0.11c-2.04-0.52-4.1-0.18-5.84,1
					c-0.27,0.18-0.03,0.62,0.24,0.44c1.63-1.1,3.54-1.45,5.45-0.96c0.03,0.01,0.05-0.01,0.08-0.01c0,0.01,0.01,0.01,0.01,0.02
					c0,0.03,0,0.06,0.01,0.1c-0.08-0.04-0.17-0.05-0.26,0.03c-0.02,0.01-0.03,0.03-0.05,0.04c-0.01,0-0.02-0.01-0.03-0.01
					c-3.26,0.46-6.09,2.21-7.98,4.9c-0.19,0.27,0.24,0.53,0.43,0.27c1.65-2.35,4.05-3.92,6.82-4.52c-1.08,0.91-2.12,1.82-2.98,2.99
					c-1.2,1.64-2.09,3.48-2.96,5.3c-0.14,0.29,0.29,0.56,0.43,0.27c0.8-1.65,1.6-3.31,2.63-4.83c1-1.47,2.23-2.52,3.54-3.62
					c-0.27,1.76-0.28,3.5-0.02,5.28c0.05,0.32,0.54,0.2,0.49-0.12c-0.28-1.89-0.25-3.76,0.1-5.64c0-0.03-0.01-0.04-0.01-0.07
					c0.01-0.04,0-0.08-0.01-0.12c0.03,0.02,0.07,0.04,0.1,0.06c0.22,1.5,1.62,2.32,2.82,3.16c2.6,1.84,5.22,3.79,5.75,7.14
					c0.05,0.32,0.54,0.2,0.49-0.12c-0.31-1.92-1.28-3.51-2.66-4.86c-1.38-1.35-5.04-2.99-5.79-4.99c1.63,0.74,3.46,0.67,5.15,1.33
					c2.87,1.12,4.84,3.66,5.52,6.62c0.07,0.32,0.56,0.2,0.49-0.12C333.93,202.13,332.76,200.15,330.93,198.73z"/>
			</g>
			<g>
				<path class="st5" d="M337.28,218.88c-11.34,8.37-1.87,24.3-7.74,35.69c6.14-3.27,5.8-8.33,6.27-14.51
					c0.17-2.23,0.13-5.01,1.04-7.08c1.16-2.62,3.83-3.9,3.22-7.17"/>
			</g>
		</g>
		<ellipse class="st16" cx="249.86" cy="442.06" rx="175.5" ry="9"/>
		<g>
			<g>
				<g>
					<g>
						<g>
							<path class="st22" d="M385.49,290.52c0.49-0.91,0.93-1.84,1.36-2.78c0.8-1.75,2.87-5.02,2.87-5.02s-8.23,4.72-12,7.62
								c-2.67,2.06-5,4.95-5.08,8.46c-0.02,0.96,4.14,0.24,4.57,0.08c2.79-1.04,5.06-3.34,6.71-5.76
								C384.5,292.28,385.01,291.41,385.49,290.52z"/>
						</g>
					</g>
					<path class="st23" d="M381.88,294.15c0.25-0.05,0.15-0.43-0.1-0.39c-1.01,0.2-2-0.03-2.98-0.29c0.41-0.45,0.82-0.89,1.23-1.33
						c0.84,0.27,1.72,0.51,2.59,0.24c0.24-0.08,0.14-0.46-0.1-0.39c-0.74,0.23-1.48,0.05-2.19-0.17c0.43-0.46,0.86-0.92,1.3-1.36
						c0.01,0.01,0.02,0.01,0.03,0.02c0.92,0.3,1.88,0.4,2.85,0.32c0.25-0.02,0.26-0.42,0-0.4c-0.87,0.08-1.73-0.01-2.57-0.25
						c0.51-0.52,1.03-1.03,1.56-1.52c0.03,0.01,0.07,0.02,0.11,0.01c0.31-0.08,0.64,0.03,0.95-0.01c0.29-0.03,0.56-0.12,0.82-0.24
						c0.23-0.11,0.03-0.46-0.2-0.35c-0.28,0.13-0.57,0.21-0.88,0.21c-0.12,0-0.23-0.01-0.35-0.02c0.56-0.5,1.13-0.98,1.73-1.45
						c0.2-0.16-0.08-0.44-0.28-0.28c-0.61,0.47-1.2,0.97-1.77,1.48c-0.03-0.27,0.05-0.56,0.13-0.82c0.07-0.25-0.31-0.35-0.39-0.1
						c-0.12,0.39-0.22,0.83-0.08,1.22c-0.53,0.49-1.04,0.99-1.55,1.5c0.01-0.41,0.08-0.8,0.24-1.19c0.09-0.24-0.29-0.34-0.39-0.1
						c-0.2,0.51-0.29,1.05-0.24,1.59c0,0.03,0.01,0.05,0.02,0.07c-0.43,0.44-0.86,0.89-1.28,1.35c-0.05-0.43-0.02-0.87,0.11-1.29
						c0.07-0.25-0.31-0.35-0.39-0.1c-0.17,0.56-0.19,1.13-0.08,1.7c0,0.02,0.01,0.03,0.02,0.05c-0.44,0.48-0.89,0.96-1.33,1.44
						c-0.23-0.51-0.27-1.07-0.12-1.61c0.07-0.25-0.32-0.35-0.39-0.1c-0.19,0.68-0.11,1.39,0.21,2.03c0,0,0,0,0.01,0.01
						c-0.52,0.56-1.03,1.12-1.56,1.67c-0.07-0.51-0.26-1.11,0.12-1.49c0.18-0.18-0.1-0.46-0.28-0.28c-0.57,0.57-0.23,1.33-0.21,2.02
						c0,0.04,0.02,0.08,0.04,0.11c-0.34,0.35-0.68,0.7-1.02,1.04c-0.06-0.22-0.12-0.45-0.18-0.67c-0.07-0.25-0.17-0.54-0.05-0.79
						c0.11-0.23-0.24-0.43-0.35-0.2c-0.28,0.59,0.09,1.36,0.24,1.94c0,0.01,0.01,0.02,0.01,0.03c-0.27,0.27-0.55,0.53-0.83,0.79
						c-0.19,0.17,0.09,0.46,0.28,0.28c0.31-0.29,0.61-0.58,0.91-0.87c1.05,0.38,2.16,0.56,3.25,0.27c0.25-0.07,0.15-0.45-0.1-0.39
						c-0.96,0.25-1.91,0.11-2.83-0.2c0.33-0.33,0.66-0.67,0.99-1.01c0.49,0.18,0.98,0.35,1.5,0.41c0.6,0.07,1.15-0.13,1.74-0.13
						c0.26,0,0.26-0.4,0-0.4c-0.53,0-1.04,0.18-1.58,0.15c-0.47-0.03-0.92-0.18-1.36-0.34c0.55-0.58,1.1-1.17,1.64-1.76
						C379.61,294.11,380.73,294.37,381.88,294.15z"/>
				</g>
				<g>
					<g>
						<g>
							<path class="st23" d="M373.85,279.97c0.44-0.63,0.92-1.24,1.4-1.83c0.9-1.12,2.39-3.59,2.39-3.59s-0.4,7.07-1.08,10.55
								c-0.48,2.47-1.63,4.98-3.95,6.21c-0.63,0.33-1.54-2.68-1.58-3.02c-0.24-2.21,0.54-4.49,1.6-6.4
								C373.01,281.22,373.42,280.58,373.85,279.97z"/>
						</g>
					</g>
					<path class="st22" d="M372.86,290.91c0.3-1.01,0.31-2.08,0.32-3.16c0.02,0,0.04-0.01,0.07-0.02c1.24-0.7,2.12-1.77,2.58-3.12
						c0.08-0.24-0.3-0.34-0.39-0.1c-0.4,1.19-1.18,2.14-2.25,2.78c0.01-0.59,0.03-1.18,0.11-1.75c0.89-0.42,1.61-1.06,2.14-1.89
						c0.14-0.22-0.21-0.41-0.35-0.2c-0.44,0.69-1.01,1.22-1.71,1.6c0.09-0.51,0.18-1.02,0.3-1.5c0.93-0.16,1.47-0.91,1.94-1.69
						c0.13-0.22-0.21-0.42-0.35-0.2c-0.36,0.6-0.78,1.27-1.48,1.46c0.15-0.55,0.32-1.1,0.53-1.62c0.04,0.02,0.08,0.03,0.12,0.02
						c0.6-0.12,1.14-0.41,1.58-0.84c0.18-0.18-0.1-0.46-0.28-0.28c-0.36,0.35-0.78,0.57-1.26,0.69c0.35-0.8,0.79-1.58,1.35-2.34
						c0.15-0.21-0.2-0.4-0.35-0.2c-0.57,0.79-1.02,1.57-1.38,2.39c-0.03-0.05-0.05-0.11-0.06-0.18c-0.04-0.25-0.42-0.15-0.39,0.1
						c0.03,0.19,0.13,0.35,0.28,0.47c-0.21,0.52-0.39,1.06-0.54,1.62c-0.09-0.15-0.14-0.31-0.15-0.49c-0.01-0.26-0.41-0.26-0.4,0
						c0.02,0.38,0.16,0.71,0.43,0.98c-0.1,0.42-0.19,0.84-0.26,1.29c-0.01,0.08-0.02,0.16-0.03,0.24c-0.12-0.15-0.2-0.33-0.22-0.54
						c-0.02-0.25-0.42-0.26-0.4,0c0.03,0.39,0.2,0.74,0.5,0.99c0.02,0.01,0.04,0.02,0.06,0.03c-0.05,0.56-0.07,1.13-0.08,1.7
						c-0.28-0.23-0.5-0.52-0.64-0.86c-0.1-0.24-0.45-0.04-0.35,0.2c0.2,0.48,0.53,0.86,0.96,1.14c0,0,0.01,0,0.01,0.01
						c-0.03,1.09-0.07,2.18-0.36,3.16C372.4,291.06,372.78,291.16,372.86,290.91z"/>
				</g>
				<g>
					<g>
						<g>
							<path class="st22" d="M372.6,281.37c-0.3-0.99-0.64-1.96-1-2.92c-0.67-1.81-1.52-5.58-1.52-5.58s-2.48,9.16-3.1,13.87
								c-0.44,3.35-0.03,7.03,2.39,9.57c0.67,0.69,3.1-2.76,3.29-3.17c1.24-2.71,1.22-5.94,0.68-8.82
								C373.15,283.32,372.9,282.34,372.6,281.37z"/>
						</g>
					</g>
					<path class="st23" d="M372.62,286.48c0.14-0.21-0.2-0.41-0.34-0.2c-0.57,0.85-1.44,1.4-2.31,1.9c-0.03-0.6-0.05-1.21-0.07-1.81
						c0.78-0.4,1.58-0.86,2-1.66c0.12-0.23-0.23-0.43-0.34-0.2c-0.36,0.68-1.01,1.08-1.67,1.42c-0.02-0.63-0.04-1.25-0.05-1.88
						c0.01,0,0.02,0,0.03-0.01c0.86-0.44,1.62-1.05,2.24-1.79c0.16-0.2-0.12-0.48-0.28-0.28c-0.56,0.67-1.23,1.22-1.99,1.63
						c0-0.73,0-1.46,0.03-2.18c0.03-0.02,0.06-0.04,0.08-0.07c0.16-0.27,0.47-0.43,0.67-0.68c0.18-0.23,0.31-0.48,0.4-0.75
						c0.08-0.24-0.3-0.35-0.38-0.11c-0.1,0.29-0.26,0.55-0.48,0.77c-0.08,0.08-0.17,0.16-0.26,0.23c0.04-0.75,0.1-1.5,0.2-2.25
						c0.03-0.25-0.37-0.25-0.4,0c-0.1,0.77-0.16,1.53-0.2,2.3c-0.22-0.17-0.36-0.43-0.49-0.67c-0.12-0.23-0.47-0.03-0.34,0.2
						c0.19,0.36,0.44,0.74,0.81,0.92c-0.03,0.72-0.04,1.44-0.03,2.16c-0.28-0.29-0.51-0.63-0.67-1.01c-0.1-0.24-0.44-0.03-0.34,0.2
						c0.22,0.5,0.54,0.94,0.95,1.3c0.02,0.02,0.04,0.03,0.07,0.04c0.01,0.62,0.03,1.24,0.05,1.86c-0.34-0.27-0.62-0.6-0.83-0.99
						c-0.12-0.23-0.47-0.02-0.34,0.2c0.28,0.51,0.67,0.94,1.15,1.26c0.02,0.01,0.03,0.01,0.05,0.02c0.02,0.65,0.05,1.31,0.08,1.96
						c-0.52-0.2-0.95-0.56-1.23-1.05c-0.13-0.22-0.47-0.02-0.34,0.2c0.35,0.62,0.91,1.07,1.58,1.29c0,0,0.01,0,0.01,0
						c0.03,0.76,0.06,1.52,0.08,2.28c-0.41-0.31-0.97-0.6-0.97-1.14c0-0.26-0.4-0.26-0.4,0c0,0.8,0.78,1.1,1.28,1.58
						c0.03,0.03,0.07,0.04,0.1,0.05c0.01,0.49,0.01,0.97,0.01,1.46c-0.2-0.12-0.4-0.23-0.6-0.35c-0.23-0.13-0.5-0.26-0.59-0.52
						c-0.09-0.24-0.47-0.14-0.38,0.11c0.22,0.62,1.02,0.9,1.54,1.2c0.01,0.01,0.02,0.01,0.03,0.01c0,0.38-0.01,0.76-0.02,1.15
						c-0.01,0.26,0.39,0.26,0.4,0c0.02-0.42,0.02-0.84,0.03-1.26c1.01-0.47,1.92-1.13,2.49-2.11c0.13-0.22-0.22-0.42-0.34-0.2
						c-0.5,0.85-1.27,1.43-2.14,1.86c0-0.47,0-0.94-0.01-1.41c0.47-0.22,0.94-0.45,1.35-0.77c0.47-0.38,0.72-0.9,1.14-1.32
						c0.18-0.18-0.1-0.46-0.28-0.28c-0.38,0.38-0.61,0.87-1.01,1.22c-0.35,0.31-0.78,0.52-1.2,0.72c-0.02-0.8-0.05-1.6-0.08-2.4
						C370.98,288.06,371.96,287.46,372.62,286.48z"/>
				</g>
				<g>
					<g>
						<g>
							<path class="st23" d="M378.45,287.09c0.13-0.76,0.23-1.52,0.31-2.28c0.15-1.43,0.85-4.23,0.85-4.23s-4.71,5.28-6.7,8.22
								c-1.41,2.09-2.37,4.68-1.6,7.18c0.21,0.68,2.99-0.81,3.25-1.02c1.73-1.39,2.79-3.56,3.39-5.66
								C378.16,288.57,378.32,287.83,378.45,287.09z"/>
						</g>
					</g>
					<path class="st22" d="M376.43,288.15c0.41-0.27,0.82-0.56,1.21-0.85c0.2-0.15,0.01-0.5-0.2-0.34c-0.37,0.28-0.75,0.54-1.13,0.8
						c0.11-0.55,0.23-1.09,0.4-1.62c0.08-0.24-0.3-0.35-0.38-0.11c-0.2,0.59-0.32,1.2-0.43,1.81c-0.22-0.26-0.25-0.66-0.35-0.97
						c-0.08-0.24-0.46-0.14-0.38,0.11c0.16,0.49,0.22,1,0.65,1.32c-0.11,0.59-0.22,1.18-0.39,1.76c-0.29-0.41-0.39-0.94-0.47-1.44
						c-0.04-0.25-0.43-0.15-0.38,0.11c0.11,0.65,0.26,1.3,0.71,1.77c-0.18,0.5-0.4,0.97-0.66,1.42c-0.17-0.43-0.27-0.88-0.29-1.35
						c-0.01-0.26-0.41-0.26-0.4,0c0.03,0.62,0.18,1.21,0.44,1.76c-0.27,0.42-0.58,0.82-0.92,1.2c-0.21-0.32-0.35-0.67-0.44-1.06
						c-0.05-0.25-0.44-0.14-0.38,0.11c0.1,0.45,0.28,0.87,0.54,1.24c-0.24,0.25-0.49,0.49-0.76,0.71c-0.2,0.17,0.09,0.45,0.28,0.28
						c0.27-0.23,0.51-0.46,0.75-0.71c0.03,0.02,0.06,0.03,0.1,0.03c0.57-0.01,1.12-0.16,1.61-0.46c0.22-0.13,0.02-0.48-0.2-0.34
						c-0.36,0.21-0.74,0.34-1.15,0.38c0.29-0.32,0.55-0.66,0.79-1.02c0.03,0.04,0.08,0.06,0.15,0.06c0.6-0.07,1.1-0.36,1.45-0.85
						c0.15-0.21-0.2-0.41-0.34-0.2c-0.24,0.34-0.61,0.57-1.02,0.63c0.27-0.44,0.5-0.9,0.7-1.39c0.02-0.06,0.04-0.12,0.06-0.18
						c0.07,0.03,0.14,0.01,0.19-0.04c0.01,0,0.02,0,0.04,0c0.58-0.21,1.06-0.57,1.43-1.08c0.15-0.21-0.19-0.41-0.34-0.2
						c-0.29,0.4-0.7,0.7-1.16,0.88c0.21-0.71,0.34-1.43,0.48-2.16C376.28,288.19,376.35,288.2,376.43,288.15z"/>
				</g>
				<g>
					<g>
						<g>
							<path class="st22" d="M354.19,290.52c-0.49-0.91-0.93-1.84-1.36-2.78c-0.8-1.75-2.87-5.02-2.87-5.02s8.23,4.72,12,7.62
								c2.67,2.06,5,4.95,5.07,8.46c0.02,0.96-4.14,0.24-4.57,0.08c-2.79-1.04-5.06-3.34-6.71-5.76
								C355.18,292.28,354.67,291.41,354.19,290.52z"/>
						</g>
					</g>
					<path class="st23" d="M357.8,294.15c-0.25-0.05-0.15-0.43,0.1-0.39c1.01,0.2,2-0.03,2.98-0.29c-0.41-0.45-0.82-0.89-1.23-1.33
						c-0.84,0.27-1.72,0.51-2.59,0.24c-0.24-0.08-0.14-0.46,0.1-0.39c0.74,0.23,1.48,0.05,2.19-0.17c-0.43-0.46-0.86-0.92-1.3-1.36
						c-0.01,0.01-0.02,0.01-0.03,0.02c-0.92,0.3-1.88,0.4-2.85,0.32c-0.25-0.02-0.26-0.42,0-0.4c0.87,0.08,1.73-0.01,2.57-0.25
						c-0.51-0.52-1.03-1.03-1.56-1.52c-0.03,0.01-0.07,0.02-0.11,0.01c-0.31-0.08-0.64,0.03-0.95-0.01
						c-0.29-0.03-0.56-0.12-0.82-0.24c-0.23-0.11-0.03-0.46,0.2-0.35c0.28,0.13,0.57,0.21,0.88,0.21c0.12,0,0.23-0.01,0.35-0.02
						c-0.56-0.5-1.13-0.98-1.73-1.45c-0.2-0.16,0.08-0.44,0.28-0.28c0.61,0.47,1.2,0.97,1.77,1.48c0.03-0.27-0.05-0.56-0.13-0.82
						c-0.07-0.25,0.31-0.35,0.39-0.1c0.12,0.39,0.22,0.83,0.08,1.22c0.53,0.49,1.04,0.99,1.55,1.5c-0.01-0.41-0.08-0.8-0.24-1.19
						c-0.1-0.24,0.29-0.34,0.39-0.1c0.2,0.51,0.29,1.05,0.24,1.59c0,0.03-0.01,0.05-0.02,0.07c0.43,0.44,0.86,0.89,1.28,1.35
						c0.05-0.43,0.02-0.87-0.11-1.29c-0.07-0.25,0.31-0.35,0.39-0.1c0.17,0.56,0.19,1.13,0.08,1.7c0,0.02-0.01,0.03-0.02,0.05
						c0.44,0.48,0.89,0.96,1.33,1.44c0.23-0.51,0.27-1.07,0.12-1.61c-0.07-0.25,0.32-0.35,0.39-0.1c0.19,0.68,0.11,1.39-0.21,2.03
						c0,0,0,0-0.01,0.01c0.52,0.56,1.03,1.12,1.56,1.67c0.07-0.51,0.26-1.11-0.12-1.49c-0.18-0.18,0.1-0.46,0.28-0.28
						c0.57,0.57,0.23,1.33,0.21,2.02c0,0.04-0.02,0.08-0.04,0.11c0.34,0.35,0.68,0.7,1.02,1.04c0.06-0.22,0.12-0.45,0.18-0.67
						c0.07-0.25,0.17-0.54,0.05-0.79c-0.11-0.23,0.24-0.43,0.35-0.2c0.28,0.59-0.09,1.36-0.24,1.94c0,0.01-0.01,0.02-0.02,0.03
						c0.27,0.27,0.55,0.53,0.83,0.79c0.19,0.17-0.09,0.46-0.28,0.28c-0.31-0.29-0.61-0.58-0.91-0.87c-1.05,0.38-2.16,0.56-3.25,0.27
						c-0.25-0.07-0.15-0.45,0.1-0.39c0.96,0.25,1.91,0.11,2.83-0.2c-0.33-0.33-0.66-0.67-0.99-1.01c-0.49,0.18-0.98,0.35-1.5,0.41
						c-0.6,0.07-1.15-0.13-1.74-0.13c-0.26,0-0.26-0.4,0-0.4c0.53,0,1.04,0.18,1.58,0.15c0.47-0.03,0.92-0.18,1.36-0.34
						c-0.55-0.58-1.1-1.17-1.64-1.76C360.07,294.11,358.95,294.37,357.8,294.15z"/>
				</g>
				<g>
					<g>
						<g>
							<path class="st23" d="M365.82,279.97c-0.44-0.63-0.92-1.24-1.4-1.83c-0.9-1.12-2.39-3.59-2.39-3.59s0.4,7.07,1.08,10.55
								c0.48,2.47,1.63,4.98,3.95,6.21c0.63,0.33,1.54-2.68,1.58-3.02c0.24-2.21-0.54-4.49-1.6-6.4
								C366.67,281.22,366.26,280.58,365.82,279.97z"/>
						</g>
					</g>
					<path class="st22" d="M366.82,290.91c-0.3-1.01-0.31-2.08-0.32-3.16c-0.02,0-0.04-0.01-0.07-0.02
						c-1.24-0.7-2.12-1.77-2.58-3.12c-0.08-0.24,0.3-0.34,0.39-0.1c0.4,1.19,1.18,2.14,2.25,2.78c-0.01-0.59-0.03-1.18-0.11-1.75
						c-0.89-0.42-1.61-1.06-2.14-1.89c-0.14-0.22,0.21-0.41,0.35-0.2c0.44,0.69,1.01,1.22,1.71,1.6c-0.09-0.51-0.18-1.02-0.3-1.5
						c-0.93-0.16-1.47-0.91-1.94-1.69c-0.13-0.22,0.21-0.42,0.35-0.2c0.36,0.6,0.78,1.27,1.48,1.46c-0.15-0.55-0.32-1.1-0.53-1.62
						c-0.04,0.02-0.08,0.03-0.12,0.02c-0.6-0.12-1.14-0.41-1.58-0.84c-0.18-0.18,0.1-0.46,0.28-0.28c0.36,0.35,0.78,0.57,1.26,0.69
						c-0.35-0.8-0.79-1.58-1.35-2.34c-0.15-0.21,0.2-0.4,0.35-0.2c0.57,0.79,1.02,1.57,1.38,2.39c0.03-0.05,0.05-0.11,0.06-0.18
						c0.04-0.25,0.42-0.15,0.39,0.1c-0.03,0.19-0.13,0.35-0.28,0.47c0.21,0.52,0.39,1.06,0.54,1.62c0.09-0.15,0.14-0.31,0.15-0.49
						c0.01-0.26,0.41-0.26,0.4,0c-0.02,0.38-0.16,0.71-0.43,0.98c0.1,0.42,0.19,0.84,0.26,1.29c0.01,0.08,0.02,0.16,0.03,0.24
						c0.12-0.15,0.2-0.33,0.22-0.54c0.02-0.25,0.42-0.26,0.4,0c-0.03,0.39-0.2,0.74-0.5,0.99c-0.02,0.01-0.04,0.02-0.06,0.03
						c0.05,0.56,0.07,1.13,0.08,1.7c0.28-0.23,0.5-0.52,0.64-0.86c0.1-0.24,0.45-0.04,0.35,0.2c-0.2,0.48-0.53,0.86-0.96,1.14
						c0,0-0.01,0-0.01,0.01c0.03,1.09,0.07,2.18,0.37,3.16C367.28,291.06,366.9,291.16,366.82,290.91z"/>
				</g>
				<g>
					<g>
						<g>
							<path class="st23" d="M361.23,287.09c-0.13-0.76-0.23-1.52-0.31-2.28c-0.15-1.43-0.85-4.23-0.85-4.23s4.71,5.28,6.7,8.22
								c1.41,2.09,2.37,4.68,1.6,7.18c-0.21,0.68-2.99-0.81-3.25-1.02c-1.73-1.39-2.8-3.56-3.39-5.66
								C361.52,288.57,361.36,287.83,361.23,287.09z"/>
						</g>
					</g>
					<path class="st22" d="M363.25,288.15c-0.41-0.27-0.82-0.56-1.21-0.85c-0.2-0.15-0.01-0.5,0.2-0.34
						c0.37,0.28,0.75,0.54,1.13,0.8c-0.11-0.55-0.23-1.09-0.4-1.62c-0.08-0.24,0.3-0.35,0.38-0.11c0.2,0.59,0.32,1.2,0.43,1.81
						c0.22-0.26,0.25-0.66,0.35-0.97c0.08-0.24,0.46-0.14,0.38,0.11c-0.16,0.49-0.22,1-0.65,1.32c0.11,0.59,0.22,1.18,0.39,1.76
						c0.29-0.41,0.39-0.94,0.47-1.44c0.04-0.25,0.43-0.15,0.38,0.11c-0.11,0.65-0.26,1.3-0.71,1.77c0.18,0.5,0.4,0.97,0.66,1.42
						c0.17-0.43,0.27-0.88,0.29-1.35c0.01-0.26,0.41-0.26,0.4,0c-0.03,0.62-0.18,1.21-0.44,1.76c0.27,0.42,0.58,0.82,0.92,1.2
						c0.21-0.32,0.35-0.67,0.44-1.06c0.05-0.25,0.44-0.14,0.38,0.11c-0.1,0.45-0.28,0.87-0.54,1.24c0.24,0.25,0.49,0.49,0.76,0.71
						c0.2,0.17-0.09,0.45-0.28,0.28c-0.27-0.23-0.51-0.46-0.75-0.71c-0.03,0.02-0.06,0.03-0.1,0.03c-0.57-0.01-1.12-0.16-1.61-0.46
						c-0.22-0.13-0.02-0.48,0.2-0.34c0.36,0.21,0.74,0.34,1.15,0.38c-0.29-0.32-0.55-0.66-0.79-1.02c-0.03,0.04-0.08,0.06-0.15,0.06
						c-0.6-0.07-1.1-0.36-1.45-0.85c-0.15-0.21,0.2-0.41,0.34-0.2c0.24,0.34,0.61,0.57,1.02,0.63c-0.27-0.44-0.5-0.9-0.7-1.39
						c-0.02-0.06-0.04-0.12-0.06-0.18c-0.07,0.03-0.14,0.01-0.19-0.04c-0.01,0-0.02,0-0.04,0c-0.58-0.21-1.07-0.57-1.43-1.08
						c-0.15-0.21,0.19-0.41,0.34-0.2c0.29,0.4,0.7,0.7,1.16,0.88c-0.21-0.71-0.34-1.43-0.48-2.16
						C363.4,288.19,363.33,288.2,363.25,288.15z"/>
				</g>
				<g>
					<g>
						<g>
							<path class="st23" d="M360.78,287.09c-0.13-0.76-0.23-1.52-0.31-2.28c-0.15-1.43-0.85-4.23-0.85-4.23s4.71,5.28,6.7,8.22
								c1.41,2.09,2.37,4.68,1.6,7.18c-0.21,0.68-2.99-0.81-3.25-1.02c-1.73-1.39-2.8-3.56-3.39-5.66
								C361.06,288.57,360.9,287.83,360.78,287.09z"/>
						</g>
					</g>
					<path class="st22" d="M367.81,295.54c-0.5-0.93-1.25-1.69-2-2.46c0.01-0.02,0.03-0.04,0.03-0.06c0.38-1.37,0.25-2.75-0.38-4.02
						c-0.11-0.23-0.46-0.03-0.34,0.2c0.56,1.13,0.68,2.35,0.38,3.56c-0.41-0.42-0.81-0.85-1.16-1.32c0.33-0.93,0.39-1.89,0.17-2.85
						c-0.06-0.25-0.44-0.14-0.38,0.11c0.18,0.79,0.15,1.58-0.08,2.34c-0.3-0.42-0.59-0.85-0.85-1.28c0.55-0.77,0.4-1.69,0.18-2.57
						c-0.06-0.25-0.45-0.14-0.38,0.11c0.17,0.68,0.34,1.45-0.02,2.08c-0.29-0.5-0.55-1-0.77-1.52c0.04-0.01,0.07-0.03,0.1-0.08
						c0.34-0.51,0.52-1.09,0.53-1.71c0-0.26-0.4-0.26-0.4,0c-0.01,0.5-0.15,0.96-0.4,1.38c-0.32-0.82-0.56-1.67-0.71-2.61
						c-0.04-0.25-0.42-0.15-0.38,0.11c0.15,0.96,0.39,1.83,0.71,2.66c-0.06-0.01-0.11-0.04-0.17-0.08c-0.2-0.15-0.4,0.19-0.2,0.34
						c0.16,0.12,0.34,0.16,0.53,0.13c0.22,0.52,0.48,1.02,0.76,1.52c-0.16-0.04-0.32-0.12-0.45-0.24c-0.19-0.17-0.47,0.11-0.28,0.28
						c0.28,0.25,0.62,0.39,1,0.39c0.23,0.36,0.46,0.73,0.72,1.1c0.05,0.06,0.1,0.13,0.15,0.19c-0.2-0.02-0.38-0.09-0.54-0.22
						c-0.2-0.16-0.48,0.12-0.28,0.28c0.3,0.25,0.66,0.38,1.06,0.34c0.02,0,0.04-0.01,0.06-0.02c0.36,0.43,0.75,0.85,1.15,1.26
						c-0.36,0.04-0.72-0.01-1.06-0.15c-0.24-0.1-0.34,0.29-0.11,0.38c0.48,0.19,0.99,0.23,1.49,0.13c0.01,0,0.01,0,0.01-0.01
						c0.76,0.79,1.49,1.59,1.98,2.5C367.59,295.96,367.93,295.76,367.81,295.54z"/>
				</g>
			</g>
			<path class="st24" d="M380.76,298.63v0.04c0,4.18-2.84,7.73-6.69,8.81c-0.23,0.07-0.47,0.12-0.71,0.17
				c-0.56,0.11-1.13,0.17-1.72,0.17l-3.69,0.01c-0.65,0-1.28-0.06-1.89-0.19c-0.24-0.05-0.49-0.11-0.72-0.18
				c-3.78-1.11-6.56-4.61-6.58-8.74v-0.02c0-1.55,1.26-2.82,2.81-2.82l1.74-0.01h0.44l11.91-0.05h0.44l1.82-0.01
				C379.48,295.81,380.76,297.07,380.76,298.63z"/>
		</g>
		<g>
			<path class="st4" d="M316.16,306.04H284.6v-4.45h27.1C314.16,301.59,316.16,303.58,316.16,306.04L316.16,306.04z"/>
			<path class="st16" d="M284.5,306.41h-64.44c-1.55,0-2.9-1.07-3.25-2.58l-9.6-41.6c-0.48-2.09,1.1-4.08,3.25-4.08h64.44
				c1.55,0,2.9,1.07,3.25,2.58l9.6,41.6C288.23,304.42,286.64,306.41,284.5,306.41z"/>
			<path class="st4" d="M249.34,283.21c0,2.56-1.66,4.64-3.71,4.64c-2.05,0-3.71-2.08-3.71-4.64c0-2.56,1.66-4.64,3.71-4.64
				C247.67,278.57,249.34,280.65,249.34,283.21z"/>
		</g>
		<g>
			<g>
				<path class="st16" d="M197.49,280.99h-56.8c-4.7,0-8.51-3.81-8.51-8.51v-60.72c0-4.7,3.81-8.51,8.51-8.51h56.8
					c-4.7,0-8.51,3.81-8.51,8.51v60.72C188.98,277.18,192.79,280.99,197.49,280.99z"/>
				<path class="st4" d="M197.59,203.25v77.74h-0.1c-4.7,0-8.51-3.81-8.51-8.51v-60.72c0-4.7,3.81-8.51,8.51-8.51H197.59z"/>
			</g>
			<path class="st4" d="M160.93,265.03l-7.44,33.15h-12.71l12.97-45.92c0.49-1.75,2.72-2.38,3.99-1.08
				c0.82,0.84,1.67,2.03,2.39,3.71C161.49,258.09,161.69,261.65,160.93,265.03z"/>
			<path class="st16" d="M183.02,306.41h-50.46l0,0c0-4.95,4.02-8.97,8.97-8.97h32.52C179,297.44,183.02,301.46,183.02,306.41
				L183.02,306.41z"/>
			<ellipse class="st4" cx="158.59" cy="234.28" rx="3.9" ry="5.57"/>
		</g>
		<g>
			<g>
				<polygon class="st16" points="378.1,440.78 378.1,347.65 373.96,347.65 373.96,440.78 355.91,440.78 355.91,445.03 
					396.86,445.03 396.86,440.78 				"/>
				<rect x="373.05" y="312.76" class="st25" width="6.67" height="94.55"/>
			</g>
			<g>
				<polygon class="st16" points="139.64,440.78 139.64,347.65 135.5,347.65 135.5,440.78 117.44,440.78 117.44,445.03 
					158.4,445.03 158.4,440.78 				"/>
				<rect x="134.59" y="312.76" class="st25" width="6.67" height="94.55"/>
			</g>
			<path class="st3" d="M395.37,313.1H107.66c-1.95,0-3.53-1.58-3.53-3.53l0,0c0-1.95,1.58-3.53,3.53-3.53h287.71
				c1.95,0,3.53,1.58,3.53,3.53l0,0C398.9,311.52,397.32,313.1,395.37,313.1z"/>
		</g>
	</g>
	<g>
		<g>
			<path class="st4" d="M392.49,156.84h-32.72c-2.93,0-5.3,2.38-5.3,5.3v9.36v4.36v14.64l6.06-9.33h31.97c2.93,0,5.3-2.38,5.3-5.3
				v-13.72C397.8,159.22,395.42,156.84,392.49,156.84z"/>
			<text transform="matrix(1 0 0 1 359.4129 173.465)" class="st3 st17 st26">CSS</text>
		</g>
		<g>
			<path class="st27" d="M245.65,247.78h32.72c2.93,0,5.3-2.38,5.3-5.3v-9.36v-4.36v-14.64l-6.06,9.33h-31.97
				c-2.93,0-5.3,2.38-5.3,5.3v13.72C240.35,245.4,242.72,247.78,245.65,247.78z"/>
			<text transform="matrix(1 0 0 1 248.4375 239.7099)" class="st28 st17 st26">JS</text>
		</g>
	</g>
</g>
<g id="DESIGNED_BY_FREEPIK" class="st29">
	<g class="st30">
		<g>
			<g id="XMLID_1_">
				<g id="XMLID_20_">
					<path id="XMLID_28_" class="st31" d="M260.1,465.47c-0.43,0.44-0.8,0.93-1.11,1.45l-0.47-0.24c-0.07-0.3-0.35-0.5-0.66-0.47
						c-0.33,0.04-0.57,0.34-0.53,0.67c0.04,0.33,0.34,0.57,0.67,0.53c0.07-0.01,0.13-0.03,0.18-0.05l0.45,0.23
						c-0.25,0.55-0.43,1.14-0.54,1.74l0.75,0.13c0.23-1.31,0.85-2.51,1.79-3.47L260.1,465.47z"/>
					<path id="XMLID_27_" class="st31" d="M265.59,463.16c-0.17,0-0.34,0.01-0.51,0.02l-0.07-0.63c0.19-0.15,0.3-0.39,0.27-0.64
						c-0.05-0.39-0.4-0.67-0.8-0.63c-0.39,0.05-0.67,0.4-0.63,0.8c0.03,0.25,0.19,0.46,0.4,0.56l0.07,0.62
						c-0.71,0.12-1.4,0.33-2.06,0.65l0.33,0.68c0.93-0.45,1.94-0.67,3-0.67c0.5,0,0.99,0.05,1.48,0.16l0.16-0.74
						C266.69,463.22,266.14,463.16,265.59,463.16z"/>
					<path id="XMLID_26_" class="st31" d="M272.19,465.71c0.33-0.04,0.57-0.34,0.53-0.67c-0.04-0.33-0.34-0.57-0.67-0.53
						c-0.31,0.04-0.54,0.3-0.53,0.61l-0.42,0.36c-0.42-0.43-0.89-0.81-1.41-1.14l-0.4,0.64c1.13,0.71,2.02,1.73,2.56,2.93l0.69-0.31
						c-0.25-0.55-0.57-1.07-0.94-1.55l0.4-0.35C272.06,465.72,272.13,465.72,272.19,465.71z"/>
					<path id="XMLID_25_" class="st31" d="M265.04,473.37c-0.39,0.02-0.77,0.03-1.16,0.03c-0.88,0-1.73-0.06-2.48-0.18
						c-0.39-0.06-0.85-0.15-1.27-0.29c1.05,1.86,3.07,3.13,5.39,3.13c2.86,0,5.26-1.92,5.95-4.5c-0.68,0.45-1.51,0.83-2.46,1.12
						C267.84,473.05,266.46,473.29,265.04,473.37z"/>
					<path id="XMLID_21_" class="st31" d="M265.59,464.68c-3.35,0-6.08,2.67-6.08,5.94c0,0.43,0.05,0.85,0.14,1.26
						c0.67,0.48,2.71,0.89,5.35,0.73c2.88-0.17,5.3-0.96,6.67-2.16c-0.01-0.19-0.02-0.39-0.05-0.58
						C271.24,466.91,268.65,464.68,265.59,464.68z M263.43,471.19c-1.02,0-1.85-0.83-1.85-1.85c0-1.02,0.83-1.85,1.85-1.85
						s1.85,0.83,1.85,1.85C265.28,470.36,264.45,471.19,263.43,471.19z M268.17,470.29c-0.75,0-1.36-0.61-1.36-1.36
						s0.61-1.36,1.36-1.36c0.75,0,1.36,0.61,1.36,1.36S268.92,470.29,268.17,470.29z"/>
				</g>
				<path id="XMLID_18_" class="st31" d="M281.6,466.55c-0.29-0.12-0.81-0.31-1.38-0.24c-0.55,0.07-0.84,0.34-0.84,1.01v0.87h2.23
					v1.72h-2.23v5.45h-1.93v-5.45h-1.34v-1.72h1.34v-0.89c0-1.68,0.9-2.78,2.57-2.78c0.64,0,1.16,0.12,1.59,0.31L281.6,466.55z"/>
				<path id="XMLID_16_" class="st31" d="M286.3,469.88c-0.18-0.03-0.36-0.05-0.53-0.05c-0.9,0-1.51,0.55-1.51,1.61v3.91h-1.93
					v-7.17h1.87v0.78c0.45-0.67,1.14-0.98,2.02-0.98c0.41,0,0.85,0.13,1.09,0.34L286.3,469.88z"/>
				<path id="XMLID_13_" class="st31" d="M293.97,471.76c0,0.22-0.01,0.49-0.04,0.65h-5.08c0.21,1.04,0.93,1.49,1.84,1.49
					c0.62,0,1.3-0.25,1.81-0.69l1.13,1.24c-0.81,0.75-1.85,1.09-3.06,1.09c-2.2,0-3.72-1.5-3.72-3.75c0-2.26,1.48-3.8,3.63-3.8
					C292.54,467.99,293.96,469.52,293.97,471.76z M288.85,471.09h3.18c-0.18-0.92-0.73-1.44-1.56-1.44
					C289.55,469.65,289.02,470.2,288.85,471.09z"/>
				<path id="XMLID_10_" class="st31" d="M301.62,471.76c0,0.22-0.01,0.49-0.04,0.65h-5.08c0.21,1.04,0.93,1.49,1.84,1.49
					c0.62,0,1.3-0.25,1.81-0.69l1.13,1.24c-0.81,0.75-1.85,1.09-3.06,1.09c-2.2,0-3.72-1.5-3.72-3.75c0-2.26,1.48-3.8,3.63-3.8
					C300.2,467.99,301.61,469.52,301.62,471.76z M296.5,471.09h3.18c-0.18-0.92-0.73-1.44-1.56-1.44
					C297.21,469.65,296.67,470.2,296.5,471.09z"/>
				<path id="XMLID_7_" class="st31" d="M309.96,471.76c0,2.15-1.49,3.77-3.47,3.77c-0.96,0-1.64-0.38-2.11-0.93v3.71h-1.92v-10.13
					h1.89v0.79c0.47-0.58,1.15-0.98,2.14-0.98C308.47,467.99,309.96,469.61,309.96,471.76z M304.29,471.76
					c0,1.13,0.75,1.98,1.84,1.98c1.14,0,1.85-0.88,1.85-1.98c0-1.1-0.71-1.98-1.85-1.98C305.03,469.79,304.29,470.63,304.29,471.76z
					"/>
				<path id="XMLID_4_" class="st31" d="M313.07,465.84c0,0.7-0.54,1.23-1.24,1.23c-0.7,0-1.23-0.53-1.23-1.23
					c0-0.7,0.53-1.24,1.23-1.24C312.53,464.59,313.07,465.14,313.07,465.84z M312.81,475.35h-1.93v-7.17h1.93V475.35z"/>
				<path id="XMLID_2_" class="st31" d="M316.03,470.74l2.7-2.55h2.37l-3.48,3.38l3.5,3.8h-2.38l-2.72-2.9v2.9h-1.93V464.7h1.93
					V470.74z"/>
			</g>
			<g>
				<path class="st31" d="M184.41,475.29v-1.05c-0.53,0.72-1.39,1.23-2.39,1.23c-1.85,0-3.15-1.41-3.15-3.71
					c0-2.26,1.29-3.72,3.15-3.72c0.95,0,1.82,0.47,2.39,1.25v-3.76h1.1v9.77H184.41z M184.41,473.37v-3.21
					c-0.4-0.62-1.24-1.14-2.12-1.14c-1.42,0-2.27,1.17-2.27,2.74c0,1.57,0.85,2.72,2.27,2.72
					C183.17,474.48,184.02,473.99,184.41,473.37z"/>
				<path class="st31" d="M186.93,471.74c0-2.05,1.46-3.71,3.49-3.71c2.14,0,3.4,1.67,3.4,3.79v0.28h-5.73
					c0.09,1.33,1.03,2.45,2.55,2.45c0.81,0,1.63-0.32,2.18-0.89l0.53,0.72c-0.7,0.7-1.65,1.08-2.81,1.08
					C188.44,475.46,186.93,473.96,186.93,471.74z M190.4,468.95c-1.51,0-2.26,1.27-2.31,2.36h4.64
					C192.72,470.25,192.01,468.95,190.4,468.95z"/>
				<path class="st31" d="M194.61,474.35l0.57-0.79c0.47,0.54,1.36,1.01,2.33,1.01c1.08,0,1.67-0.51,1.67-1.22
					c0-1.71-4.38-0.66-4.38-3.28c0-1.1,0.95-2.04,2.64-2.04c1.2,0,2.05,0.45,2.62,1.03l-0.51,0.76c-0.42-0.51-1.2-0.89-2.11-0.89
					c-0.97,0-1.57,0.48-1.57,1.11c0,1.55,4.38,0.53,4.38,3.28c0,1.19-0.95,2.14-2.78,2.14
					C196.31,475.46,195.32,475.11,194.61,474.35z"/>
				<path class="st31" d="M201.48,466.47c0-0.41,0.34-0.75,0.73-0.75c0.41,0,0.75,0.34,0.75,0.75c0,0.41-0.34,0.73-0.75,0.73
					C201.81,467.2,201.48,466.88,201.48,466.47z M201.67,475.29v-7.07h1.1v7.07H201.67z"/>
				<path class="st31" d="M204.58,477.11l0.56-0.82c0.59,0.7,1.29,0.97,2.3,0.97c1.17,0,2.27-0.57,2.27-2.12v-1.01
					c-0.51,0.72-1.38,1.26-2.37,1.26c-1.85,0-3.15-1.38-3.15-3.66c0-2.27,1.29-3.68,3.15-3.68c0.95,0,1.8,0.47,2.37,1.25v-1.07h1.1
					v6.87c0,2.34-1.64,3.08-3.37,3.08C206.24,478.16,205.42,477.93,204.58,477.11z M209.71,473.25v-3.09
					c-0.38-0.62-1.23-1.14-2.11-1.14c-1.42,0-2.27,1.13-2.27,2.7c0,1.55,0.85,2.7,2.27,2.7
					C208.48,474.41,209.33,473.87,209.71,473.25z"/>
				<path class="st31" d="M217.41,475.29v-4.63c0-1.24-0.63-1.64-1.58-1.64c-0.86,0-1.68,0.53-2.09,1.1v5.17h-1.1v-7.07h1.1v1.03
					c0.5-0.59,1.46-1.2,2.52-1.2c1.48,0,2.26,0.75,2.26,2.29v4.97H217.41z"/>
				<path class="st31" d="M219.93,471.74c0-2.05,1.46-3.71,3.49-3.71c2.14,0,3.4,1.67,3.4,3.79v0.28h-5.73
					c0.09,1.33,1.03,2.45,2.55,2.45c0.81,0,1.63-0.32,2.18-0.89l0.53,0.72c-0.7,0.7-1.66,1.08-2.81,1.08
					C221.44,475.46,219.93,473.96,219.93,471.74z M223.4,468.95c-1.51,0-2.26,1.27-2.31,2.36h4.64
					C225.72,470.25,225.02,468.95,223.4,468.95z"/>
				<path class="st31" d="M233.35,475.29v-1.05c-0.53,0.72-1.39,1.23-2.39,1.23c-1.85,0-3.15-1.41-3.15-3.71
					c0-2.26,1.29-3.72,3.15-3.72c0.95,0,1.82,0.47,2.39,1.25v-3.76h1.1v9.77H233.35z M233.35,473.37v-3.21
					c-0.4-0.62-1.24-1.14-2.12-1.14c-1.42,0-2.27,1.17-2.27,2.74c0,1.57,0.85,2.72,2.27,2.72
					C232.1,474.48,232.95,473.99,233.35,473.37z"/>
				<path class="st31" d="M239.69,475.29v-9.77h1.1v3.76c0.57-0.78,1.42-1.25,2.39-1.25c1.85,0,3.15,1.46,3.15,3.72
					c0,2.3-1.3,3.71-3.15,3.71c-1,0-1.86-0.51-2.39-1.23v1.05H239.69z M242.9,474.48c1.44,0,2.29-1.16,2.29-2.72
					c0-1.57-0.85-2.74-2.29-2.74c-0.86,0-1.73,0.53-2.11,1.14v3.21C241.17,473.99,242.04,474.48,242.9,474.48z"/>
				<path class="st31" d="M247.53,477.06c0.16,0.07,0.43,0.12,0.6,0.12c0.48,0,0.81-0.16,1.05-0.75l0.47-1.07l-2.96-7.15h1.19
					l2.36,5.8l2.34-5.8h1.2l-3.54,8.51c-0.42,1.03-1.14,1.42-2.08,1.44c-0.23,0-0.6-0.04-0.81-0.1L247.53,477.06z"/>
			</g>
		</g>
	</g>
</g>
</svg>
